<svg width="30" height="30" viewBox="0 0 30 30" fill="none" xmlns="http://www.w3.org/2000/svg">
  <path d="M0.300781 14.8195C0.300781 22.8252 6.81329 29.3382 14.8195 29.3382C22.8257 29.3382 29.3382 22.8252 29.3382 14.8195C29.3382 6.81385 22.8257 0.300781 14.8195 0.300781C6.81329 0.300781 0.300781 6.81385 0.300781 14.8195ZM1.99453 14.8195C1.99453 7.74842 7.74842 1.99453 14.8195 1.99453C21.8906 1.99453 27.6445 7.74842 27.6445 14.8195C27.6445 21.8906 21.8906 27.6445 14.8195 27.6445C7.74842 27.6445 1.99453 21.8906 1.99453 14.8195Z" fill="#EB6E03" stroke="#EB6E03" stroke-width="0.6" />
  <path d="M7.9531 14.024L20.0052 9.3772C20.5646 9.17509 21.0531 9.5136 20.8718 10.3595L20.8729 10.3584L18.8208 20.0261C18.6687 20.7116 18.2614 20.8782 17.6916 20.5553L14.5666 18.2522L13.0593 19.7043C12.8927 19.8709 12.752 20.0115 12.4291 20.0115L12.651 16.8313L18.4427 11.599C18.6948 11.3772 18.3864 11.2522 18.0541 11.473L10.8968 15.9793L7.81143 15.0168C7.14164 14.8043 7.12705 14.347 7.9531 14.024Z" fill="#EB6E03" />
</svg>