<svg width="29" height="25" viewBox="0 0 29 25" fill="none" xmlns="http://www.w3.org/2000/svg">
<path d="M11.4453 19.3076C12.9918 19.3012 14.2512 20.5465 14.2607 22.0928C14.2703 23.6352 13.0286 24.8867 11.4717 24.8994C9.91062 24.9119 8.63818 23.656 8.63867 22.1055C8.63941 20.5664 9.89421 19.3142 11.4453 19.3076ZM21.5938 19.3076C23.0472 19.3146 24.2458 20.4178 24.3906 21.8203L24.4053 22.1055C24.405 23.6417 23.1471 24.8935 21.5938 24.8994C20.0408 24.9053 18.7841 23.6635 18.7773 22.1191C18.7707 20.5641 20.0369 19.3003 21.5938 19.3076ZM11.4473 20.9277C10.7928 20.9295 10.2612 21.4649 10.2686 22.1172C10.2761 22.7751 10.808 23.2884 11.4697 23.2793C12.1187 23.2702 12.6291 22.7576 12.6318 22.1104C12.6343 21.4545 12.1045 20.9252 11.4473 20.9277ZM21.5889 20.9287C20.9309 20.9263 20.4049 21.4518 20.4072 22.1104C20.4089 22.7722 20.9338 23.2851 21.5986 23.2793C22.2427 23.2735 22.7659 22.7571 22.7744 22.1172C22.7828 21.4714 22.2411 20.9312 21.5889 20.9287ZM0.203125 0.688477C0.453795 0.156807 1.05256 -0.0524131 1.64844 0.217773C2.45322 0.582337 3.25661 0.950177 4.05469 1.32812C4.8807 1.7191 5.39754 2.36596 5.60156 3.25098C6.58074 7.49564 7.55391 11.7418 8.5293 15.9873C8.59458 16.272 8.68321 16.4805 8.85059 16.6123C9.01774 16.7438 9.24417 16.7832 9.54297 16.7832H23.5244C23.8219 16.7832 24.0471 16.7472 24.2139 16.6172C24.3811 16.4866 24.4693 16.2771 24.5371 15.9873C25.2864 12.788 26.035 9.58781 26.7812 6.3877C26.86 6.0504 26.8288 5.76485 26.6611 5.56348C26.4945 5.36358 26.2153 5.27344 25.8613 5.27344C20.362 5.27344 13.8628 5.27398 8.36426 5.27246C8.2255 5.27246 8.09365 5.27439 7.96973 5.25879L7.84863 5.23633L7.75586 5.20898C7.30684 5.05553 7.03715 4.62179 7.08398 4.11914C7.12609 3.661 7.48128 3.293 7.95996 3.21289L8.05762 3.20117C8.14691 3.19402 8.23427 3.19726 8.33496 3.19727H25.9473C27.5501 3.19812 28.7783 4.26406 28.8936 5.84082C28.9342 6.39941 28.7764 6.9856 28.6426 7.57031C27.9545 10.5694 27.2472 13.5648 26.543 16.5605C26.2077 17.986 25.1054 18.8567 23.6338 18.8574C18.8969 18.8597 14.1607 18.8597 9.42383 18.8574C7.9793 18.8574 6.86546 17.9987 6.54102 16.6045C5.56189 12.3988 4.59426 8.19078 3.63574 3.98047C3.58758 3.76866 3.51564 3.58605 3.39844 3.43359C3.28056 3.28032 3.1219 3.16349 2.91016 3.0752C2.19327 2.77694 1.49729 2.43255 0.788086 2.10156C0.178289 1.81685 -0.0516713 1.22765 0.203125 0.688477ZM18.9814 9.98828C19.5246 9.99249 19.9275 10.3385 20.0166 10.8057C20.1095 11.29 19.8877 11.7562 19.4561 11.9443C19.2873 12.0179 19.0828 12.0501 18.8867 12.0537C18.1276 12.0664 17.3691 12.0588 16.6084 12.0586L16.6025 12.0547H16.5732C15.7527 12.0547 14.935 12.0652 14.1182 12.0508C13.6374 12.0424 13.2566 11.7332 13.1377 11.3008C13.0166 10.8589 13.1922 10.3811 13.585 10.1582C13.7563 10.0612 13.9675 9.99356 14.1553 9.99219C15.764 9.97776 17.3728 9.97613 18.9814 9.98828Z" fill="#3E4041" stroke="white" stroke-width="0.2"/>
</svg>
