<svg width="21" height="21" viewBox="0 0 21 21" fill="none" xmlns="http://www.w3.org/2000/svg">
<path d="M4.04956 14.3264C3.11735 12.7549 2.79088 10.8972 3.13146 9.10203C3.47204 7.30687 4.45623 5.69778 5.89924 4.57692C7.34225 3.45606 9.1448 2.90053 10.9684 3.01465C12.792 3.12877 14.5113 3.90468 15.8033 5.19669C17.0953 6.4887 17.8712 8.20793 17.9853 10.0315C18.0995 11.8552 17.544 13.6577 16.4231 15.1007C15.3023 16.5437 13.6932 17.5279 11.898 17.8685C10.1028 18.2091 8.2451 17.8827 6.67361 16.9505L4.08219 17.6908C3.97497 17.7214 3.86151 17.7228 3.75357 17.6949C3.64563 17.6669 3.54713 17.6106 3.46828 17.5317C3.38944 17.4529 3.33311 17.3544 3.30514 17.2464C3.27717 17.1385 3.27857 17.025 3.30921 16.9178L4.04956 14.3264Z" stroke="#3E4041" stroke-linecap="round" stroke-linejoin="round"/>
<path d="M12.3878 14.8737C11.5652 14.8748 10.7504 14.7137 9.99023 14.3994C9.23003 14.0852 8.5393 13.624 7.95763 13.0423C7.37597 12.4607 6.9148 11.7699 6.60054 11.0097C6.28628 10.2495 6.12512 9.43478 6.12629 8.61218C6.12815 8.03317 6.3596 7.47854 6.76986 7.06994C7.18011 6.66135 7.73568 6.43216 8.3147 6.43266C8.40967 6.43266 8.50295 6.45776 8.5851 6.50543C8.66724 6.5531 8.73532 6.62164 8.78244 6.7041L9.69618 8.30315C9.75128 8.39958 9.77971 8.50895 9.77853 8.62001C9.77735 8.73107 9.7466 8.83982 9.68946 8.93506L8.95563 10.1581C9.33317 10.9959 10.004 11.6668 10.8419 12.0443L12.0649 11.3105C12.1601 11.2534 12.2689 11.2226 12.38 11.2214C12.491 11.2203 12.6004 11.2487 12.6968 11.3038L14.2959 12.2175C14.3783 12.2647 14.4469 12.3327 14.4945 12.4149C14.5422 12.497 14.5673 12.5903 14.5673 12.6853C14.5657 13.2636 14.3358 13.8179 13.9276 14.2277C13.5195 14.6375 12.9661 14.8697 12.3878 14.8737Z" stroke="#3E4041" stroke-linecap="round" stroke-linejoin="round"/>
</svg>
