<svg width="21" height="18" viewBox="0 0 21 18" fill="none" xmlns="http://www.w3.org/2000/svg">
<path d="M19.5 4.5C19.5 2.567 17.933 1 16 1C14.067 1 12.5 2.567 12.5 4.5C12.5 6.433 14.067 8 16 8C17.933 8 19.5 6.433 19.5 4.5ZM16.7754 3.25586C16.9102 3.01515 17.2142 2.92901 17.4551 3.06348C17.6961 3.19821 17.7822 3.5031 17.6475 3.74414L15.873 6.91895L14.5498 4.16992C14.43 3.92115 14.5344 3.62275 14.7832 3.50293C15.032 3.38314 15.3304 3.48756 15.4502 3.73633L15.9385 4.75098L16.7754 3.25586ZM20.5 4.5C20.5 6.98528 18.4853 9 16 9C13.5147 9 11.5 6.98528 11.5 4.5C11.5 2.01472 13.5147 0 16 0C18.4853 0 20.5 2.01472 20.5 4.5Z" fill="#EB6E03"/>
<path fill-rule="evenodd" clip-rule="evenodd" d="M7.10383 13.6069C8.09795 13.6028 8.90724 14.3924 8.9134 15.3725C8.91931 16.3506 8.1206 17.1439 7.12043 17.1518C6.11756 17.1595 5.29985 16.3635 5.30012 15.3803C5.30059 14.4044 6.1073 13.6111 7.10383 13.6069ZM7.10578 14.7202C6.73362 14.7211 6.43159 15.0222 6.43586 15.3872C6.44025 15.7553 6.74166 16.0427 7.11848 16.0376C7.48777 16.0324 7.77721 15.745 7.77863 15.3823C7.7798 15.0152 7.47914 14.7189 7.10578 14.7202Z" fill="#EB6E03"/>
<path fill-rule="evenodd" clip-rule="evenodd" d="M13.4036 13.6069C14.3996 13.6117 15.2098 14.4068 15.2103 15.3803C15.2101 16.3547 14.4014 17.148 13.4036 17.1518C12.4058 17.1556 11.5975 16.3682 11.5931 15.3891C11.5888 14.4034 12.4028 13.6023 13.4036 13.6069ZM13.3997 14.7212C13.0258 14.72 12.7274 15.0142 12.7288 15.3833C12.7298 15.7538 13.0269 16.0407 13.4056 16.0376C13.7721 16.0343 14.0688 15.7442 14.0736 15.3862C14.0781 15.026 13.7708 14.7226 13.3997 14.7212Z" fill="#EB6E03"/>
<path d="M0.0696485 2.24656C0.241294 1.88767 0.651891 1.75157 1.04914 1.92918C1.54863 2.15228 2.04758 2.3774 2.54328 2.60886C3.0733 2.85623 3.40657 3.2678 3.53742 3.82761C4.14517 6.42527 4.74943 9.02344 5.3548 11.6216C5.43444 11.9642 5.55827 12.062 5.92316 12.062H14.6019C14.9666 12.0619 15.0873 11.9711 15.1702 11.6216C15.3782 10.7461 15.5846 9.87021 15.7923 8.99461C15.8612 8.99774 15.9303 9 16 9C16.45 8.99999 16.8843 8.93201 17.2943 8.80906C17.0421 9.87307 16.789 10.9369 16.5355 12.0005C16.3207 12.9005 15.612 13.4529 14.6702 13.4536C11.73 13.455 8.78923 13.455 5.84895 13.4536C4.9248 13.4534 4.20752 12.9095 3.99934 12.0278C3.39158 9.4538 2.79156 6.87805 2.1966 4.30125C2.13924 4.05249 2.02906 3.89089 1.78254 3.78953C1.33607 3.60637 0.901616 3.39557 0.463203 3.19383C0.0578594 3.00737 -0.105289 2.61156 0.0696485 2.24656Z" fill="#EB6E03"/>
<path d="M11.7825 7.90379C12.1474 7.90659 12.4244 8.13664 12.4857 8.45261C12.5482 8.77391 12.3986 9.09037 12.1009 9.21824C11.9862 9.26744 11.8504 9.2872 11.7239 9.28953C11.2453 9.29743 10.7666 9.29246 10.2884 9.29246L10.2864 9.2905C9.77833 9.29051 9.26967 9.29738 8.76203 9.28855C8.43589 9.28295 8.1761 9.07426 8.09504 8.78367C8.01325 8.48903 8.13071 8.16666 8.40168 8.01511C8.51489 7.95193 8.65613 7.90674 8.78547 7.90574C9.78437 7.8969 10.7836 7.89635 11.7825 7.90379Z" fill="#EB6E03"/>
<path d="M11.5638 3.74754C11.5226 3.99228 11.5 4.24354 11.5 4.5C11.5 4.71686 11.5165 4.93047 11.5462 5.13914C9.38096 5.13904 7.18083 5.13968 5.19172 5.13914C5.07984 5.13914 4.9639 5.14174 4.85676 5.1157C4.51177 5.03285 4.30162 4.72276 4.33527 4.36668C4.36624 4.03577 4.64143 3.77831 4.99641 3.74949C5.05519 3.74484 5.11488 3.74754 5.17414 3.74754H11.5638Z" fill="#EB6E03"/>
</svg>
