<svg width="12" height="12" viewBox="0 0 12 12" fill="none" xmlns="http://www.w3.org/2000/svg">
<path d="M1.10742 5.25C0.693208 5.25 0.357422 5.58579 0.357422 6C0.357422 6.41421 0.693208 6.75 1.10742 6.75L1.10742 5.25ZM11.6378 6.53033C11.9306 6.23744 11.9306 5.76256 11.6378 5.46967L6.86478 0.696699C6.57189 0.403806 6.09701 0.403806 5.80412 0.696699C5.51123 0.989593 5.51123 1.46447 5.80412 1.75736L10.0468 6L5.80412 10.2426C5.51123 10.5355 5.51123 11.0104 5.80412 11.3033C6.09701 11.5962 6.57189 11.5962 6.86478 11.3033L11.6378 6.53033ZM1.10742 6L1.10742 6.75L11.1074 6.75L11.1074 6L11.1074 5.25L1.10742 5.25L1.10742 6Z" fill="#3E4041"/>
</svg>
