<svg width="24" height="24" viewBox="0 0 24 24" fill="none" xmlns="http://www.w3.org/2000/svg">
<path d="M5.99902 14.25V13.5C5.58481 13.5 5.24902 13.8358 5.24902 14.25H5.99902ZM17.999 14.25H18.749C18.749 13.8358 18.4132 13.5 17.999 13.5V14.25ZM17.999 20.625V21.375C18.4132 21.375 18.749 21.0392 18.749 20.625H17.999ZM5.99902 20.625H5.24902C5.24902 21.0392 5.58481 21.375 5.99902 21.375V20.625ZM5.99902 17.25C6.41324 17.25 6.74902 16.9142 6.74902 16.5C6.74902 16.0858 6.41324 15.75 5.99902 15.75V16.5V17.25ZM2.62402 16.5H1.87402C1.87402 16.9142 2.20981 17.25 2.62402 17.25V16.5ZM21.374 16.5V17.25C21.7882 17.25 22.124 16.9142 22.124 16.5H21.374ZM17.999 15.75C17.5848 15.75 17.249 16.0858 17.249 16.5C17.249 16.9142 17.5848 17.25 17.999 17.25V16.5V15.75ZM5.24901 7.5C5.24901 7.91421 5.5848 8.25 5.99901 8.25C6.41322 8.25 6.74901 7.91421 6.74901 7.5H5.99901H5.24901ZM5.99901 3.75V3C5.5848 3 5.24901 3.33579 5.24901 3.75H5.99901ZM17.999 3.75H18.749C18.749 3.33579 18.4132 3 17.999 3V3.75ZM17.249 7.5C17.249 7.91421 17.5848 8.25 17.999 8.25C18.4132 8.25 18.749 7.91421 18.749 7.5H17.999H17.249ZM5.99902 14.25V15H17.999V14.25V13.5H5.99902V14.25ZM17.999 14.25H17.249V20.625H17.999H18.749V14.25H17.999ZM17.999 20.625V19.875H5.99902V20.625V21.375H17.999V20.625ZM5.99902 20.625H6.74902V14.25H5.99902H5.24902V20.625H5.99902ZM5.99902 16.5V15.75H2.62402V16.5V17.25H5.99902V16.5ZM2.62402 16.5H3.37402V9H2.62402H1.87402V16.5H2.62402ZM2.62402 9H3.37402C3.37402 8.64118 3.70812 8.25 4.24902 8.25V7.5V6.75C2.995 6.75 1.87402 7.70197 1.87402 9H2.62402ZM4.24902 7.5V8.25H19.749V7.5V6.75H4.24902V7.5ZM19.749 7.5V8.25C20.2899 8.25 20.624 8.64118 20.624 9H21.374H22.124C22.124 7.70197 21.003 6.75 19.749 6.75V7.5ZM21.374 9H20.624V16.5H21.374H22.124V9H21.374ZM21.374 16.5V15.75H17.999V16.5V17.25H21.374V16.5ZM17.6246 12V12.75C18.6601 12.75 19.4996 11.9105 19.4996 10.875H18.7496H17.9996C17.9996 11.0821 17.8317 11.25 17.6246 11.25V12ZM18.7496 10.875H19.4996C19.4996 9.83947 18.6601 9 17.6246 9V9.75V10.5C17.8317 10.5 17.9996 10.6679 17.9996 10.875H18.7496ZM17.6246 9.75V9C16.589 9 15.7496 9.83947 15.7496 10.875H16.4996H17.2496C17.2496 10.6679 17.4175 10.5 17.6246 10.5V9.75ZM16.4996 10.875H15.7496C15.7496 11.9105 16.589 12.75 17.6246 12.75V12V11.25C17.4175 11.25 17.2496 11.0821 17.2496 10.875H16.4996ZM5.99901 7.5H6.74901V3.75H5.99901H5.24901V7.5H5.99901ZM5.99901 3.75V4.5H17.999V3.75V3H5.99901V3.75ZM17.999 3.75H17.249V7.5H17.999H18.749V3.75H17.999Z" fill="#EB6E03"/>
</svg>
