<svg width="20" height="21" viewBox="0 0 20 21" fill="none" xmlns="http://www.w3.org/2000/svg">
<g clip-path="url(#clip0_718_20647)">
<path d="M18.0593 3.83203H1.94067C0.875664 3.83203 0 4.69545 0 5.7727V15.2284C0 16.2942 0.866943 17.169 1.94067 17.169H18.0593C19.1337 17.169 20 16.2934 20 15.2284V5.7727C20 4.69445 19.1235 3.83203 18.0593 3.83203ZM17.6813 4.89051L10 9.86974L2.31888 4.89051H17.6813ZM1.05855 5.7727C1.05855 5.63882 1.08884 5.50893 1.14529 5.39136L5.95023 8.50608L1.05855 15.0481V5.7727ZM18.0593 16.1105H1.94067C1.83095 16.1105 1.72623 16.0894 1.62916 16.0526L6.84047 9.08315L9.71213 10.9447C9.88735 11.0582 10.1128 11.0581 10.288 10.9447L13.1596 9.08315L18.3709 16.0526C18.2738 16.0895 18.1691 16.1105 18.0593 16.1105ZM18.9415 15.0481L14.0498 8.50608L18.8547 5.39136C18.9112 5.50893 18.9415 5.63882 18.9415 5.7727V15.0481Z" fill="#EB6E03"/>
</g>
<defs>
<clipPath id="clip0_718_20647">
<rect width="20" height="20" fill="white" transform="translate(0 0.5)"/>
</clipPath>
</defs>
</svg>
