<svg width="16" height="22" viewBox="0 0 16 22" fill="none" xmlns="http://www.w3.org/2000/svg">
<path d="M7.92344 11L1.84344 15.75C1.74408 15.8276 1.66344 15.9283 1.6079 16.044C1.55235 16.1597 1.52344 16.2873 1.52344 16.4167V20.1667C1.52344 20.3877 1.60772 20.5996 1.75775 20.7559C1.90778 20.9122 2.11126 21 2.32344 21H13.5234C13.7356 21 13.9391 20.9122 14.0891 20.7559C14.2392 20.5996 14.3234 20.3877 14.3234 20.1667V16.454C14.3234 16.3252 14.2948 16.1981 14.2397 16.0828C14.1845 15.9674 14.1045 15.867 14.0058 15.7893L7.92344 11ZM7.92344 11V15.1662M7.92344 11L1.84344 6.25C1.74408 6.17238 1.66344 6.07172 1.6079 5.95601C1.55235 5.8403 1.52344 5.7127 1.52344 5.58333V1.83333C1.52344 1.61232 1.60772 1.40036 1.75775 1.24408C1.90778 1.0878 2.11126 1 2.32344 1H13.5234C13.7356 1 13.9391 1.0878 14.0891 1.24408C14.2392 1.40036 14.3234 1.61232 14.3234 1.83333V5.54596C14.3234 5.6748 14.2948 5.80189 14.2397 5.91723C14.1845 6.03258 14.1045 6.13305 14.0058 6.21074L7.92344 11ZM2.5895 6.83286H13.2157" stroke="#EB6E03" stroke-width="2" stroke-linecap="round" stroke-linejoin="round"/>
</svg>
