<svg width="16" height="17" viewBox="0 0 16 17" fill="none" xmlns="http://www.w3.org/2000/svg">
<g clip-path="url(#clip0_4077_3152)">
<path d="M8 3.26562C13 3.26562 16 8.76562 16 8.76562C16 8.76562 13 14.2656 8 14.2656C3 14.2656 0 8.76562 0 8.76562C0 8.76562 3 3.26562 8 3.26562ZM8 4.26562C4.48 4.26562 1.998 7.51662 1.175 8.76562C1.997 10.0136 4.479 13.2656 8 13.2656C11.52 13.2656 14.002 10.0146 14.825 8.76562C14.003 7.51762 11.521 4.26562 8 4.26562ZM8 5.26562C8.92826 5.26562 9.8185 5.63437 10.4749 6.29075C11.1313 6.94713 11.5 7.83737 11.5 8.76562C11.5 9.69388 11.1313 10.5841 10.4749 11.2405C9.8185 11.8969 8.92826 12.2656 8 12.2656C7.07174 12.2656 6.1815 11.8969 5.52513 11.2405C4.86875 10.5841 4.5 9.69388 4.5 8.76562C4.5 7.83737 4.86875 6.94713 5.52513 6.29075C6.1815 5.63437 7.07174 5.26562 8 5.26562ZM8 6.26562C7.3372 6.26642 6.70178 6.53007 6.23311 6.99873C5.76444 7.4674 5.50079 8.10283 5.5 8.76562C5.5 10.1436 6.621 11.2656 8 11.2656C9.379 11.2656 10.5 10.1436 10.5 8.76562C10.5 7.38762 9.379 6.26562 8 6.26562Z" fill="#B2B2B2" stroke="#B2B2B2" stroke-width="0.015625"/>
</g>
<defs>
<clipPath id="clip0_4077_3152">
<rect width="16" height="16" fill="white" transform="translate(0 0.765625)"/>
</clipPath>
</defs>
</svg>
