<svg width="19" height="18" viewBox="0 0 19 18" fill="none" xmlns="http://www.w3.org/2000/svg">
<path d="M14.125 11.25V16.5M16.75 13.875H11.5M7.75 13.875C7.75 15.739 6.23896 17.25 4.375 17.25C2.51104 17.25 1 15.739 1 13.875C1 12.011 2.51104 10.5 4.375 10.5C6.23896 10.5 7.75 12.011 7.75 13.875ZM17.5 4.125C17.5 5.98896 15.989 7.5 14.125 7.5C12.261 7.5 10.75 5.98896 10.75 4.125C10.75 2.26104 12.261 0.75 14.125 0.75C15.989 0.75 17.5 2.26104 17.5 4.125ZM7.75 4.125C7.75 5.98896 6.23896 7.5 4.375 7.5C2.51104 7.5 1 5.98896 1 4.125C1 2.26104 2.51104 0.75 4.375 0.75C6.23896 0.75 7.75 2.26104 7.75 4.125Z" stroke="#EB6E03" stroke-width="1.5" stroke-linecap="round" stroke-linejoin="round"/>
</svg>
