<svg width="24" height="24" viewBox="0 0 24 24" fill="none" xmlns="http://www.w3.org/2000/svg">
<path d="M1.5 12.75C1.08579 12.75 0.75 13.0858 0.75 13.5C0.75 13.9142 1.08579 14.25 1.5 14.25V13.5V12.75ZM16.5 14.25C16.9142 14.25 17.25 13.9142 17.25 13.5C17.25 13.0858 16.9142 12.75 16.5 12.75V13.5V14.25ZM15.75 16.0514C15.75 16.4656 16.0858 16.8014 16.5 16.8014C16.9142 16.8014 17.25 16.4656 17.25 16.0514H16.5H15.75ZM22.5 11.25H23.25C23.25 11.1546 23.2318 11.06 23.1964 10.9715L22.5 11.25ZM16.5 7.5V6.75C16.0858 6.75 15.75 7.08579 15.75 7.5H16.5ZM20.4922 7.5L20.4922 6.75H20.4922V7.5ZM21.1886 7.97146L21.8849 7.69291L21.8849 7.69291L21.1886 7.97146ZM1.5 17.25H0.75H1.5ZM2.25 6V6.75V6ZM16.5 6H17.25C17.25 5.58579 16.9142 5.25 16.5 5.25V6ZM15.375 18V17.25H8.625V18V18.75H15.375V18ZM19.875 18H19.125C19.125 18.8284 18.4534 19.5 17.625 19.5V20.25V21C19.2819 21 20.625 19.6569 20.625 18H19.875ZM17.625 20.25V19.5C16.7966 19.5 16.125 18.8284 16.125 18H15.375H14.625C14.625 19.6569 15.9681 21 17.625 21V20.25ZM15.375 18H16.125C16.125 17.1716 16.7966 16.5 17.625 16.5V15.75V15C15.9681 15 14.625 16.3431 14.625 18H15.375ZM17.625 15.75V16.5C18.4534 16.5 19.125 17.1716 19.125 18H19.875H20.625C20.625 16.3431 19.2819 15 17.625 15V15.75ZM8.625 18H7.875C7.875 18.8284 7.20343 19.5 6.375 19.5V20.25V21C8.03185 21 9.375 19.6569 9.375 18H8.625ZM6.375 20.25V19.5C5.54657 19.5 4.875 18.8284 4.875 18H4.125H3.375C3.375 19.6569 4.71815 21 6.375 21V20.25ZM4.125 18H4.875C4.875 17.1716 5.54657 16.5 6.375 16.5V15.75V15C4.71815 15 3.375 16.3431 3.375 18H4.125ZM6.375 15.75V16.5C7.20343 16.5 7.875 17.1716 7.875 18H8.625H9.375C9.375 16.3431 8.03185 15 6.375 15V15.75ZM1.5 13.5V14.25H16.5V13.5V12.75H1.5V13.5ZM16.5 16.0514H17.25V11.25H16.5H15.75V16.0514H16.5ZM16.5 11.25V12H22.5V11.25V10.5H16.5V11.25ZM22.5 11.25H21.75V17.25H22.5H23.25V11.25H22.5ZM22.5 17.25H21.75L21.75 17.25L22.2803 17.7803L22.8107 18.3107C23.092 18.0294 23.25 17.6478 23.25 17.25H22.5ZM22.2803 17.7803L21.75 17.25L21.75 17.25V18V18.75C22.1478 18.75 22.5294 18.592 22.8107 18.3107L22.2803 17.7803ZM21.75 18V17.25H19.875V18V18.75H21.75V18ZM16.5 11.25H17.25V7.5H16.5H15.75V11.25H16.5ZM16.5 7.5V8.25H20.4922V7.5V6.75H16.5V7.5ZM20.4922 7.5L20.4922 8.25L20.4922 8.25L20.9127 7.62895L21.3332 7.0079C21.0849 6.83983 20.792 6.75 20.4922 6.75L20.4922 7.5ZM20.9127 7.62895L20.4922 8.25L20.4922 8.25L21.1886 7.97146L21.8849 7.69291C21.7736 7.41457 21.5814 7.17597 21.3332 7.0079L20.9127 7.62895ZM21.1886 7.97146L20.4922 8.25L21.8036 11.5285L22.5 11.25L23.1964 10.9715L21.8849 7.69291L21.1886 7.97146ZM4.125 18V17.25H2.25V18V18.75H4.125V18ZM2.25 18V17.25L2.25 17.25L1.71967 17.7803L1.18934 18.3107C1.47065 18.592 1.85218 18.75 2.25 18.75V18ZM1.71967 17.7803L2.25 17.25L2.25 17.25H1.5H0.75C0.75 17.6478 0.908035 18.0294 1.18934 18.3107L1.71967 17.7803ZM1.5 17.25H2.25V6.75H1.5H0.75V17.25H1.5ZM1.5 6.75H2.25L2.25 6.75L1.71967 6.21967L1.18934 5.68934C0.908035 5.97064 0.75 6.35218 0.75 6.75H1.5ZM1.71967 6.21967L2.25 6.75L2.25 6.75L2.25 6L2.25 5.25C1.85217 5.25 1.47064 5.40804 1.18934 5.68934L1.71967 6.21967ZM2.25 6V6.75H16.5V6V5.25H2.25V6ZM16.5 6H15.75V16.0514H16.5H17.25V6H16.5Z" fill="#EB6E03"/>
</svg>
