<svg width="20" height="20" viewBox="0 0 20 20" fill="none" xmlns="http://www.w3.org/2000/svg">
<path d="M7.00031 9.99976H13.0001M11.5002 13H14.0001C14.7957 13 15.5588 12.6839 16.1213 12.1213C16.6839 11.5587 17 10.7956 17 10C17 9.20435 16.6839 8.44129 16.1213 7.87868C15.5588 7.31607 14.7957 7 14.0001 7H11.5002M8.49983 13H5.99991C5.20428 13 4.44124 12.6839 3.87865 12.1213C3.31606 11.5587 3 10.7956 3 10C3 9.20435 3.31606 8.44129 3.87865 7.87868C4.44124 7.31607 5.20428 7 5.99991 7H8.49983" stroke="#3E4041" stroke-linecap="round" stroke-linejoin="round"/>
</svg>
