<svg width="23" height="9" viewBox="0 0 23 9" fill="none" xmlns="http://www.w3.org/2000/svg">
<path d="M22 5.075C22.3176 5.075 22.575 4.81756 22.575 4.5C22.575 4.18244 22.3176 3.925 22 3.925L22 4.5L22 5.075ZM0.593414 4.09341C0.368862 4.31796 0.368862 4.68203 0.593414 4.90658L4.25269 8.56586C4.47724 8.79041 4.84131 8.79041 5.06586 8.56586C5.29042 8.34131 5.29042 7.97724 5.06586 7.75269L1.81317 4.5L5.06586 1.24731C5.29042 1.02276 5.29042 0.658686 5.06586 0.434135C4.84131 0.209583 4.47724 0.209583 4.25269 0.434135L0.593414 4.09341ZM22 4.5L22 3.925L1 3.925L1 4.5L1 5.075L22 5.075L22 4.5Z" fill="#FE602C"/>
</svg>
