<svg width="16" height="17" viewBox="0 0 16 17" fill="none" xmlns="http://www.w3.org/2000/svg">
<path d="M1.22268 9.95702C1.05415 9.86207 0.913826 9.72411 0.81603 9.55721C0.718234 9.39031 0.666468 9.20046 0.666016 9.00702V5.00035C0.666016 4.61035 0.875349 4.25035 1.21668 4.05369L3.77202 2.58035C4.11868 2.38035 4.54668 2.38035 4.89335 2.58035L7.99935 4.37035L11.106 2.57969C11.452 2.37969 11.88 2.37969 12.226 2.57969L14.782 4.05302C15.1233 4.24969 15.3327 4.60969 15.3327 4.99969V9.00635C15.3322 9.19979 15.2805 9.38965 15.1827 9.55654C15.0849 9.72344 14.9445 9.8614 14.776 9.95635L8.69868 14.8497C8.49982 15.0094 8.25241 15.0965 7.99735 15.0965C7.74229 15.0965 7.49488 15.0094 7.29602 14.8497L1.22268 9.95635V9.95702Z" stroke="#B2B2B2" stroke-width="0.666667"/>
</svg>
