<svg width="20" height="20" viewBox="0 0 20 20" fill="none" xmlns="http://www.w3.org/2000/svg">
<path d="M8.14453 4.89648C8.8389 4.83447 10.1576 4.83486 10.8525 4.89648C11.0441 4.91352 11.224 4.9699 11.3633 5.08887C11.4698 5.17994 11.544 5.30008 11.584 5.44629L11.6123 5.60059L11.6445 6.04785C11.6633 6.50267 11.646 6.9789 11.627 7.4502C11.6014 8.08304 11.5718 8.70707 11.6113 9.28223C11.6164 9.35539 11.6204 9.41718 11.6279 9.4707C11.6337 9.51222 11.6416 9.53762 11.6475 9.55273C11.6633 9.5491 11.6921 9.54028 11.7373 9.51562C11.9196 9.416 12.1322 9.20984 12.3594 8.92578C12.584 8.64486 12.8136 8.29985 13.0322 7.93848C13.4691 7.21608 13.8573 6.43692 14.0732 5.9873C14.1342 5.86031 14.1803 5.74426 14.2334 5.62402C14.2844 5.50843 14.3401 5.39273 14.4141 5.29004C14.4896 5.1852 14.5848 5.09356 14.7129 5.02441C14.8401 4.9558 14.9934 4.91313 15.1807 4.89648C15.376 4.87924 15.8299 4.86698 16.2705 4.87109C16.4915 4.87316 16.712 4.87963 16.8975 4.8916C17.0767 4.90319 17.2411 4.92033 17.3379 4.95117C17.5791 5.02809 17.723 5.18446 17.7832 5.38574C17.8399 5.57556 17.8177 5.79094 17.7676 5.99219C17.7174 6.19347 17.6343 6.40123 17.5488 6.58691L17.3174 7.05078C16.7468 8.16659 15.9946 9.19502 15.3398 10.2305C15.3155 10.2859 15.317 10.345 15.3457 10.4229L15.3486 10.4287C15.3508 10.4328 15.3542 10.4384 15.3584 10.4453C15.367 10.4592 15.379 10.4771 15.3945 10.498C15.4258 10.5401 15.4683 10.5914 15.5195 10.6504C15.6223 10.7686 15.7559 10.9106 15.8955 11.0557C16.1699 11.3407 16.476 11.6453 16.5947 11.7822C16.8032 12.0227 17.1563 12.4369 17.4707 12.8672C17.6278 13.0823 17.7765 13.3041 17.8936 13.5117C18.0089 13.7163 18.1006 13.919 18.1309 14.0947C18.1813 14.3885 18.1331 14.6381 17.9756 14.8213C17.8213 15.0006 17.5853 15.0889 17.3174 15.1162C16.9625 15.1525 16.3666 15.1577 15.8906 15.1416L15.4678 15.1182C15.2316 15.0991 15.0048 14.9917 14.7949 14.8457C14.5841 14.6991 14.3794 14.5066 14.1865 14.3037C13.9934 14.1006 13.8074 13.8812 13.6357 13.6816C13.4623 13.48 13.3048 13.3001 13.1641 13.165C13.0034 13.0108 12.7449 12.7691 12.4736 12.5674C12.3379 12.4665 12.2016 12.3779 12.0762 12.3154C11.9483 12.2518 11.8441 12.2221 11.7676 12.2227C11.7134 12.2231 11.6856 12.2314 11.6729 12.2373C11.6639 12.2415 11.6597 12.2454 11.6553 12.2529C11.6487 12.2643 11.6407 12.2852 11.6338 12.3242C11.6268 12.3639 11.6232 12.4102 11.6172 12.4707C11.5903 12.7448 11.6111 13.0799 11.627 13.4297C11.6424 13.7698 11.6535 14.1267 11.5947 14.4121C11.5043 14.8508 11.0654 15.0259 10.75 15.0752C9.2101 15.3169 7.5851 14.633 6.40918 13.7041C5.51028 12.9945 4.59446 11.825 3.8252 10.5674C3.05507 9.30829 2.4229 7.947 2.09473 6.8457C2.00811 6.55516 1.85506 6.12018 1.85059 5.74805C1.84832 5.55801 1.88379 5.36334 2.00293 5.20508C2.12483 5.04319 2.31624 4.94275 2.57812 4.90918C3.04375 4.84955 4.06135 4.85343 4.5293 4.89844C4.71981 4.91681 4.88796 4.97109 5.03223 5.07031C5.17625 5.16936 5.28808 5.30724 5.37695 5.47852C5.51198 5.73882 5.62563 6.05896 5.73438 6.37402C5.84458 6.69334 5.94964 7.0084 6.06836 7.27734H6.06934C6.32533 7.85757 6.65854 8.52728 6.98926 9.05762C7.08746 9.21508 7.25717 9.4699 7.4375 9.70898C7.62268 9.9545 7.80384 10.1614 7.92676 10.2432L8.02246 10.2949C8.03183 10.2982 8.03919 10.299 8.04395 10.2998C8.04511 10.2977 8.04725 10.2954 8.04883 10.292C8.06287 10.2615 8.07415 10.2098 8.08203 10.1357C8.08978 10.0628 8.0924 9.9871 8.09766 9.90527C8.1201 9.55742 8.14046 8.90293 8.12793 8.26074C8.12166 7.93963 8.10695 7.62348 8.08105 7.35156C8.05481 7.07608 8.01795 6.85781 7.9707 6.72559C7.93604 6.62874 7.87344 6.52828 7.79492 6.41602C7.72052 6.30965 7.62716 6.18601 7.55469 6.06641C7.48109 5.94491 7.41591 5.80675 7.40234 5.65527C7.38829 5.4972 7.43141 5.33903 7.54883 5.18555C7.70961 4.97525 7.9351 4.91503 8.14453 4.89648ZM10.6855 5.48926C10.0215 5.4435 8.89143 5.43086 8.24219 5.48926C8.13809 5.49858 8.0659 5.52163 8.0293 5.55078C8.01454 5.56258 8.00686 5.57438 8.00293 5.58789C7.99863 5.60297 7.99627 5.63149 8.00879 5.68066V5.68164C8.00991 5.68431 8.01294 5.69117 8.01953 5.70312C8.02906 5.72038 8.0429 5.74234 8.06055 5.76855C8.0959 5.82106 8.14182 5.8832 8.19238 5.95117C8.28763 6.07921 8.4081 6.23892 8.46191 6.35547C8.59185 6.63674 8.66508 6.9949 8.68457 7.2959C8.73543 8.08149 8.73762 9.28914 8.68457 10.0742C8.66838 10.3145 8.61994 10.5079 8.53613 10.6494C8.44925 10.7961 8.32354 10.8869 8.16895 10.9092C8.02174 10.9302 7.86956 10.8865 7.72852 10.8115C7.58602 10.7358 7.44131 10.622 7.30176 10.4834C6.71207 9.89742 6.27213 9.10844 5.90234 8.2959C5.71706 7.88875 5.54824 7.47237 5.38672 7.06934C5.22474 6.66516 5.07009 6.27582 4.91309 5.91699C4.82864 5.72416 4.78442 5.63776 4.72559 5.58594C4.67462 5.54107 4.59508 5.50905 4.39551 5.49219C3.95717 5.45519 3.1494 5.45185 2.72168 5.50098C2.58358 5.51686 2.51459 5.54967 2.48047 5.57812C2.45204 5.60193 2.43514 5.63311 2.43066 5.6875C2.42572 5.74796 2.43705 5.82719 2.46094 5.93066C2.47257 5.98104 2.48698 6.0338 2.50195 6.09082C2.51679 6.14731 2.53222 6.20786 2.54688 6.26953C2.78713 7.28257 3.38972 8.63767 4.13281 9.91309C4.87634 11.1892 5.75039 12.3678 6.52441 13.0361C7.04928 13.4891 7.72584 13.9081 8.44434 14.1855C9.16389 14.4634 9.91537 14.5954 10.5947 14.4854C10.6999 14.4683 10.81 14.4462 10.8965 14.4053C10.9796 14.3658 11.0175 14.3206 11.0264 14.2627C11.065 14.0108 11.0548 13.7006 11.0391 13.3691C11.0237 13.0447 11.0027 12.6993 11.0254 12.4014C11.0422 12.1807 11.0908 11.9761 11.2207 11.8291C11.3569 11.6751 11.5563 11.6128 11.8047 11.6182C12.0943 11.6246 12.3927 11.7653 12.6768 11.96C12.9637 12.1566 13.2536 12.421 13.5293 12.7002C13.8055 12.98 14.0723 13.2797 14.3105 13.5479C14.5506 13.8179 14.7591 14.0526 14.9258 14.2119C15.1172 14.3947 15.2882 14.4995 15.5312 14.5244C15.6858 14.5402 16.1094 14.5506 16.5312 14.5449C16.7409 14.5421 16.9467 14.5352 17.1152 14.5234C17.1995 14.5176 17.273 14.5101 17.332 14.502C17.3936 14.4935 17.4308 14.4855 17.4473 14.4795C17.5194 14.4531 17.5427 14.4148 17.5518 14.3662C17.5633 14.3037 17.5507 14.213 17.5107 14.0986C17.4315 13.8721 17.274 13.6299 17.1865 13.4941C16.8795 13.0182 16.5151 12.616 16.1377 12.2207C15.7628 11.828 15.3699 11.4375 15.0234 10.999C14.8463 10.7749 14.7324 10.5869 14.7227 10.377C14.7131 10.169 14.8078 9.97158 14.9463 9.73633L15.208 9.31738C15.2989 9.1789 15.393 9.04171 15.4863 8.90527C15.674 8.6309 15.8602 8.361 16.0273 8.08887C16.2099 7.79157 16.4914 7.34641 16.7383 6.89258C16.9887 6.43227 17.1893 5.98802 17.2275 5.69043C17.2365 5.62024 17.2287 5.58414 17.2217 5.56738C17.2163 5.55454 17.2082 5.54563 17.1904 5.53613C17.1686 5.52451 17.1341 5.51359 17.0811 5.50586C17.028 5.49815 16.9689 5.49436 16.8984 5.48926C16.7051 5.47526 16.3256 5.46339 15.9521 5.46777C15.7655 5.46996 15.5823 5.47619 15.4258 5.48828C15.2658 5.50065 15.145 5.51808 15.0771 5.53906C14.9381 5.58215 14.8253 5.72384 14.7188 5.94727C14.6675 6.05482 14.6226 6.17098 14.5771 6.28809C14.5327 6.40262 14.4863 6.52133 14.4365 6.62207L14.4355 6.62109C14.2386 7.01989 13.8163 7.8202 13.3389 8.55273C13.1004 8.9186 12.8457 9.27112 12.5977 9.5498C12.3551 9.82227 12.0986 10.0468 11.8535 10.1221C11.6322 10.19 11.4295 10.1687 11.2754 10.043C11.1284 9.92299 11.0554 9.73218 11.0312 9.52539C10.9622 8.9337 10.9865 8.28085 11.0146 7.63867C11.043 6.99141 11.0757 6.35481 11.0283 5.77539C11.0131 5.58868 10.9797 5.55172 10.9629 5.53906C10.9517 5.53065 10.9304 5.51987 10.8828 5.51074C10.8343 5.50145 10.7722 5.49524 10.6855 5.48926Z" fill="#3E4041" stroke="#3E4041" stroke-width="0.3"/>
</svg>
