<svg width="19" height="19" viewBox="0 0 19 19" fill="none" xmlns="http://www.w3.org/2000/svg">
<path d="M8.37288 13.389L8.37504 4.57199C8.37252 4.25705 8.49522 3.95402 8.71613 3.72955C8.93704 3.50508 9.23808 3.37755 9.55301 3.37504C9.86795 3.37252 10.171 3.49522 10.3955 3.71613C10.6199 3.93704 10.7474 4.23808 10.75 4.55301L10.7612 15.0493C10.7637 15.3612 10.7047 15.6705 10.5877 15.9596C10.4706 16.2487 10.2978 16.5119 10.079 16.7342C9.86026 16.9565 9.59985 17.1335 9.31267 17.2552C9.02548 17.3768 8.71714 17.4407 8.40526 17.4432C8.09339 17.4457 7.78407 17.3868 7.49498 17.2697C7.20588 17.1527 6.94268 16.9798 6.72038 16.761C6.49809 16.5423 6.32106 16.2819 6.19941 15.9947C6.07776 15.7075 6.01386 15.3992 6.01137 15.0873L6.00011 4.59096C5.99257 3.64616 6.36065 2.73705 7.02339 2.06364C7.68613 1.39022 8.58924 1.00766 9.53404 1.00011C10.4788 0.992566 11.3879 1.36065 12.0614 2.02339C12.7348 2.68613 13.1173 3.58924 13.1249 4.53404L13.1993 13.1405" stroke="#181D29" stroke-linecap="round" stroke-linejoin="round"/>
</svg>
