<svg width="20" height="20" viewBox="0 0 20 20" fill="none" xmlns="http://www.w3.org/2000/svg">
<path d="M6.46812 10.1455L13.1932 15.8561C13.271 15.9221 13.3653 15.9676 13.4668 15.9879C13.5682 16.0083 13.6735 16.0028 13.7721 15.9721C13.8707 15.9414 13.9594 15.8865 14.0295 15.8128C14.0995 15.7391 14.1485 15.6491 14.1717 15.5516L16.9849 3.70632C17.0092 3.6039 17.0041 3.49703 16.9701 3.3972C16.9361 3.29738 16.8746 3.20839 16.7921 3.13984C16.7096 3.07128 16.6092 3.02575 16.5019 3.00815C16.3945 2.99056 16.2842 3.00156 16.1829 3.03998L2.37955 8.27256C2.25925 8.31816 2.15749 8.40013 2.08949 8.50619C2.0215 8.61226 1.99092 8.73671 2.00234 8.86094C2.01376 8.98517 2.06656 9.1025 2.15284 9.19535C2.23913 9.28821 2.35425 9.35161 2.48099 9.37607L6.46812 10.1455ZM6.46812 10.1455V14.8446C6.46812 14.9588 6.50322 15.0704 6.56896 15.1653C6.63471 15.2603 6.72816 15.3343 6.83749 15.378C6.94682 15.4217 7.06712 15.4331 7.18319 15.4108C7.29925 15.3886 7.40587 15.3336 7.48954 15.2528L9.8268 12.9975M6.46812 10.1455L16.6482 3.05108" stroke="#3E4041" stroke-linecap="round" stroke-linejoin="round"/>
</svg>
