<svg width="20" height="20" viewBox="0 0 20 20" fill="none" xmlns="http://www.w3.org/2000/svg">
<g clip-path="url(#clip0_3154_26614)">
<path d="M14.8398 10.9785C14.6079 10.8534 14.4126 10.8783 14.2256 10.9629C14.1307 11.0058 14.0379 11.0638 13.9434 11.127C13.8497 11.1895 13.7529 11.2581 13.6543 11.3164C11.4368 12.6283 8.59542 12.633 6.37402 11.3252C6.29211 11.277 6.21298 11.2223 6.13672 11.1699C6.05999 11.1172 5.98504 11.066 5.9082 11.0225C5.7553 10.9358 5.59694 10.8804 5.4082 10.9004C5.07553 10.9357 4.85406 11.2129 4.86523 11.5176C4.87728 11.8402 5.02267 12.0727 5.23535 12.2607C5.45005 12.4504 5.73077 12.5935 6.01172 12.7373C6.71908 13.0994 7.44675 13.3453 8.23535 13.5088C8.30455 13.5231 8.37818 13.5333 8.45703 13.5469C8.534 13.5602 8.61341 13.5765 8.68555 13.6035C8.7578 13.6306 8.8256 13.6692 8.87695 13.7285C8.92894 13.7887 8.9615 13.8669 8.96777 13.9668C8.97382 14.0639 8.9521 14.1365 8.91113 14.1992C8.87211 14.2588 8.81511 14.309 8.75977 14.3613C7.91852 15.1576 7.03899 15.9278 6.19336 16.7158C6.08012 16.8213 5.95775 16.9207 5.85645 17.0352C5.75652 17.1481 5.6844 17.2682 5.6709 17.4082C5.6215 17.9263 6.1281 18.3107 6.66602 18.1396C6.8529 18.0802 6.91346 17.9938 7.05664 17.8594C7.50547 17.438 7.94515 17.0071 8.38477 16.5762C8.82429 16.1453 9.26449 15.7135 9.71289 15.29L9.71582 15.2871H9.7168C9.87007 15.1691 10.0819 15.158 10.2461 15.251L10.3135 15.2969L10.3164 15.2998C11.1429 16.1003 11.9631 16.9055 12.7939 17.7012C12.9088 17.8112 13.0019 17.9204 13.1152 18.0107C13.2252 18.0985 13.3476 18.1619 13.5078 18.1748C13.8869 18.2052 14.1627 18.0252 14.2803 17.7812C14.3976 17.5376 14.3611 17.2218 14.0967 16.9697C13.857 16.7412 13.6136 16.5158 13.3682 16.292L11.8857 14.9541C11.6398 14.7298 11.3958 14.5036 11.1553 14.2744L11.1504 14.2705L11.1514 14.2695C11.0472 14.1438 11.0244 13.991 11.0713 13.8584C11.1183 13.726 11.2331 13.6174 11.3955 13.5771C11.4847 13.5551 11.5805 13.539 11.6748 13.5234C11.7698 13.5077 11.8635 13.4929 11.9521 13.4736C12.7935 13.291 13.6183 12.9684 14.3535 12.5469C14.5221 12.4502 14.7089 12.3459 14.8359 12.2178C15.0013 12.0508 15.1244 11.8024 15.1436 11.5645C15.1624 11.3292 15.0801 11.1082 14.8398 10.9785ZM16.0498 11.6729L16 11.665L16.0488 11.6729L16.0088 11.9121V11.915L15.96 11.9033L16.0078 11.915C15.8754 12.476 15.5156 12.8666 15.0234 13.1689C14.3752 13.567 13.6029 13.9072 12.8652 14.1299C12.7864 14.1537 12.6976 14.1743 12.6133 14.1943C12.5492 14.2096 12.4877 14.2262 12.4316 14.2432L14.8018 16.4141L14.8037 16.415C15.6891 17.2882 15.2207 18.7478 13.9697 19.0088C13.9305 19.017 13.8911 19.0229 13.8535 19.0283C13.8154 19.0339 13.7787 19.0393 13.7432 19.0469L13.7334 19.0488V19.0479H13.4609V19.0469C13.4132 19.0373 13.3651 19.0299 13.3154 19.0215C13.2664 19.0131 13.2161 19.0038 13.166 18.9912C12.9184 18.9292 12.6949 18.8095 12.5029 18.6543L12.499 18.6523L10.1475 16.377C10.1402 16.37 10.1258 16.3553 10.1104 16.3389C10.0938 16.3213 10.0743 16.3002 10.0547 16.2803C10.0369 16.2622 10.0197 16.2458 10.0059 16.2334L8.93457 17.2812L8.93359 17.2832C8.71222 17.4871 8.49867 17.6984 8.28418 17.9102C8.06989 18.1217 7.85435 18.3335 7.63086 18.5381C7.38983 18.7587 7.1859 18.9054 6.84375 18.9912L6.83984 18.9922V18.9912L6.53809 19.0469L6.5293 19.0488V19.0479H6.27637V19.0469L5.96777 18.9902L5.96387 18.9893C4.79301 18.6814 4.35443 17.3182 5.17676 16.4512L5.17871 16.4492L7.57617 14.2432C7.55634 14.2378 7.53374 14.2323 7.51074 14.2266C7.43679 14.2081 7.35231 14.188 7.33301 14.1826C6.6328 13.9861 5.93861 13.699 5.30957 13.3525C4.72991 13.0332 4.26631 12.7154 4.05078 12.0664C4.00075 11.9156 3.97838 11.7606 3.95117 11.6123L3.94922 11.6035H3.9502V11.3584L3.95215 11.3516C3.96325 11.3147 3.97043 11.2765 3.97754 11.2354C3.98453 11.1949 3.99146 11.1507 4.00293 11.1074C4.22546 10.2681 5.19808 9.84003 6.04395 10.124C6.19151 10.1736 6.32051 10.2463 6.44238 10.3242C6.56662 10.4037 6.67763 10.4849 6.80273 10.5596C8.71787 11.7023 11.2717 11.7096 13.1914 10.5713C13.3103 10.5008 13.4234 10.4201 13.5459 10.3408C13.6667 10.2627 13.7938 10.1879 13.9316 10.1377C14.8567 9.80108 15.9254 10.3303 16.0381 11.2803L16.043 11.2871L16.0498 11.2998V11.6729Z" fill="#3E4041" stroke="#3E4041" stroke-width="0.1"/>
<path d="M10.2871 0.956055C12.3986 1.04475 14.2778 2.39995 14.9697 4.25977C16.0093 7.05535 14.1772 10.0765 11.1211 10.6943C7.52146 11.4218 4.26825 8.54895 4.81348 5.13086C5.17602 2.85862 7.26827 1.06207 9.7207 0.956055C9.8968 0.948441 10.111 0.948677 10.2871 0.956055ZM9.8916 1.81348C6.38973 1.9119 4.42381 5.66682 6.52637 8.30664C8.37369 10.6258 12.1267 10.4463 13.7227 7.97656C15.492 5.23809 13.2998 1.71782 9.8916 1.81348Z" fill="#3E4041" stroke="#3E4041" stroke-width="0.1"/>
<path d="M9.80273 3.20508C11.0691 3.13424 12.0758 3.78593 12.5576 4.68359C13.0398 5.58215 12.9951 6.72703 12.1621 7.63379C10.8233 9.09081 8.31623 8.7638 7.43164 7.03711C6.563 5.34156 7.81233 3.31668 9.80273 3.20508ZM9.93848 4.06055C8.39404 4.11874 7.52875 5.75275 8.4248 6.93066C9.22011 7.97579 10.8855 7.94151 11.6338 6.86816C12.4853 5.6462 11.5033 4.00185 9.93848 4.06055Z" fill="#3E4041" stroke="#3E4041" stroke-width="0.1"/>
</g>
<defs>
<clipPath id="clip0_3154_26614">
<rect width="20" height="19.9978" fill="white"/>
</clipPath>
</defs>
</svg>
