<svg width="21" height="18" viewBox="0 0 21 18" fill="none" xmlns="http://www.w3.org/2000/svg">
<rect x="5" y="0.5" width="16" height="3" rx="1" fill="white"/>
<rect y="0.5" width="3" height="3" rx="1" fill="white"/>
<rect x="5" y="7.5" width="16" height="3" rx="1" fill="white"/>
<path d="M0 8.5C0 7.94772 0.447715 7.5 1 7.5H2C2.55228 7.5 3 7.94772 3 8.5V9.5C3 10.0523 2.55228 10.5 2 10.5H1C0.447715 10.5 0 10.0523 0 9.5V8.5Z" fill="white"/>
<rect x="5" y="14.5" width="16" height="3" rx="1" fill="white"/>
<path d="M0 15.5C0 14.9477 0.447715 14.5 1 14.5H2C2.55228 14.5 3 14.9477 3 15.5V16.5C3 17.0523 2.55228 17.5 2 17.5H1C0.447715 17.5 0 17.0523 0 16.5V15.5Z" fill="white"/>
</svg>
