<svg width="31" height="31" viewBox="0 0 31 31" fill="none" xmlns="http://www.w3.org/2000/svg">
<path d="M0.841797 15.4992C0.841797 23.5049 7.35431 30.0179 15.3605 30.0179C23.3667 30.0179 29.8792 23.5049 29.8792 15.4992C29.8792 7.49354 23.3667 0.980469 15.3605 0.980469C7.35431 0.980469 0.841797 7.49354 0.841797 15.4992ZM2.53555 15.4992C2.53555 8.42811 8.28944 2.67422 15.3605 2.67422C22.4316 2.67422 28.1855 8.42811 28.1855 15.4992C28.1855 22.5703 22.4316 28.3242 15.3605 28.3242C8.28944 28.3242 2.53555 22.5703 2.53555 15.4992Z" fill="#3E4041" stroke="#3E4041" stroke-width="0.6"/>
<path d="M8.49412 14.7037L20.5462 10.0569C21.1056 9.85478 21.5941 10.1933 21.4128 11.0392L21.4139 11.0381L19.3618 20.7058C19.2097 21.3913 18.8024 21.5579 18.2326 21.235L15.1076 18.9319L13.6003 20.384C13.4337 20.5506 13.293 20.6912 12.9701 20.6912L13.192 17.511L18.9837 12.2787C19.2358 12.0569 18.9274 11.9319 18.5951 12.1527L11.4378 16.659L8.35245 15.6965C7.68266 15.484 7.66807 15.0267 8.49412 14.7037Z" fill="#3E4041"/>
</svg>
