<svg width="20" height="20" viewBox="0 0 20 20" fill="none" xmlns="http://www.w3.org/2000/svg">
<path d="M10.3555 3.14453C14.1416 3.14453 17.2109 6.21383 17.2109 10C17.2109 13.7806 14.1506 16.8455 10.3721 16.8545C9.63612 16.7936 9.13711 16.691 8.73047 16.5381C8.32319 16.3849 7.98143 16.1719 7.56738 15.8564L7.21875 15.5908L6.91016 15.9023C6.34155 16.4745 5.71164 16.7592 5.23145 16.8291C4.98988 16.8643 4.81206 16.8417 4.70312 16.8008C4.64514 16.779 4.61502 16.7548 4.59766 16.7354C4.5786 15.5217 4.29377 14.5711 4.03027 13.6025C3.75806 12.6019 3.49568 11.5341 3.5 10.001V10C3.5 6.21384 6.56933 3.14455 10.3555 3.14453Z" stroke="#3E4041"/>
<path d="M10.3516 6.16016C12.1757 6.16016 13.613 7.51539 13.6133 9.29102C13.6133 11.0826 12.1634 12.5369 10.3701 12.5469C9.65023 12.4852 9.03131 12.2589 8.68848 11.998L8.33984 11.7334L8.03125 12.0439C7.88075 12.1952 7.7493 12.3106 7.63867 12.3926C7.60577 12.417 7.57419 12.4343 7.54785 12.4512C7.40307 12.1253 7.31717 11.8933 7.25977 11.5469C7.19111 11.1324 7.16113 10.5447 7.16113 9.46973C7.1612 8.80138 7.50074 7.96239 8.10156 7.28418C8.69785 6.61111 9.49374 6.16018 10.3516 6.16016Z" stroke="#3E4041"/>
</svg>
