<svg width="17" height="17" viewBox="0 0 17 17" fill="none" xmlns="http://www.w3.org/2000/svg">
<path d="M9.25 3.97917C9.25 3.56495 8.91421 3.22917 8.5 3.22917C8.08579 3.22917 7.75 3.56495 7.75 3.97917H8.5H9.25ZM8.5 8.5H7.75C7.75 8.91421 8.08579 9.25 8.5 9.25V8.5ZM13.0208 9.25C13.435 9.25 13.7708 8.91421 13.7708 8.5C13.7708 8.08579 13.435 7.75 13.0208 7.75V8.5V9.25ZM16.25 8.5H15.5C15.5 12.366 12.366 15.5 8.5 15.5V16.25V17C13.1944 17 17 13.1944 17 8.5H16.25ZM8.5 16.25V15.5C4.63401 15.5 1.5 12.366 1.5 8.5H0.75H0C0 13.1944 3.80558 17 8.5 17V16.25ZM0.75 8.5H1.5C1.5 4.63401 4.63401 1.5 8.5 1.5V0.75V0C3.80558 0 0 3.80558 0 8.5H0.75ZM8.5 0.75V1.5C12.366 1.5 15.5 4.63401 15.5 8.5H16.25H17C17 3.80558 13.1944 0 8.5 0V0.75ZM8.5 3.97917H7.75V8.5H8.5H9.25V3.97917H8.5ZM8.5 8.5V9.25H13.0208V8.5V7.75H8.5V8.5Z" fill="#505052"/>
</svg>
