<svg width="26" height="26" viewBox="0 0 26 26" fill="none" xmlns="http://www.w3.org/2000/svg">
<path d="M3.5 2.43359C4.40557 1.63056 5.72957 1.64013 6.64844 2.4209L7.01172 2.74316C7.36839 3.07161 7.70834 3.41829 8.04688 3.75879C8.74468 4.46053 9.4612 5.15592 10.1211 5.90039H10.1221C10.9423 6.82517 10.9179 8.16152 10.0918 9.08301C9.50889 9.73282 8.88265 10.3465 8.24609 11.0049C8.43483 11.3432 8.61227 11.7005 8.83691 12.0342C10.1803 14.0322 11.8567 15.6993 13.8721 17.0176C13.9992 17.1006 14.1347 17.1728 14.2754 17.2451C14.415 17.3169 14.5608 17.3896 14.7002 17.4727L14.7578 17.498C14.7707 17.5011 14.7784 17.5001 14.7832 17.499C14.7983 17.4956 14.8221 17.4826 14.8672 17.4375L15.7021 16.5977C15.9826 16.3181 16.267 16.0417 16.5615 15.7773C17.101 15.2933 17.6949 15.0432 18.291 15.0449C18.8873 15.0468 19.4732 15.3005 19.9971 15.8008C21.1153 16.8689 22.2022 17.9734 23.2588 19.1025C24.0952 19.9962 24.0805 21.3573 23.2969 22.293C23.0177 22.6261 22.7053 22.9327 22.4062 23.2383C21.9429 23.7121 21.4841 24.2072 20.9883 24.6572C20.4874 25.1116 19.8921 25.3813 19.2412 25.5068L18.959 25.5527C18.948 25.5541 18.9344 25.5576 18.9141 25.5654C18.8977 25.5717 18.8671 25.5853 18.8418 25.5938L18.8262 25.5986H17.7275L17.7188 25.5967C17.4648 25.5524 17.2129 25.5072 16.96 25.4658C15.6277 25.2468 14.3923 24.75 13.1973 24.167C10.4309 22.8175 7.9954 21.0117 5.90625 18.7539C3.8141 16.4926 2.07636 13.9896 0.977539 11.0781C0.584248 10.0353 0.285999 8.96571 0.226562 7.83691C0.158872 6.55548 0.481851 5.40111 1.4209 4.4668C2.10392 3.78706 2.77435 3.07722 3.5 2.43359ZM4.91992 3.5C4.73568 3.54381 4.542 3.66041 4.33789 3.86133C3.80304 4.38768 3.27585 4.94221 2.72852 5.46387C2.11909 6.04449 1.82576 6.73242 1.86523 7.44434L1.81543 7.44727H1.86523C1.86134 8.50717 2.11748 9.39843 2.43359 10.2832C3.28569 12.664 4.63749 14.7526 6.25586 16.6816C8.36426 19.1956 10.8781 21.2016 13.8242 22.6553C15.1655 23.3167 16.5375 23.8542 18.0352 23.9648C18.7506 24.0178 19.4193 23.8987 19.9355 23.4121C20.6481 22.7396 21.3287 22.0302 21.9961 21.3096C22.1763 21.1148 22.2542 20.9068 22.248 20.7031C22.2418 20.4982 22.1496 20.2855 21.9688 20.083C21.7822 19.8737 21.5811 19.6778 21.3779 19.4746H21.377C20.5544 18.6514 19.736 17.8257 18.9082 17.0098C18.6922 16.797 18.4791 16.7006 18.2734 16.6982C18.0671 16.696 17.8488 16.7885 17.6211 16.9922L17.6201 16.9912C17.5502 17.0541 17.4847 17.1218 17.415 17.1914C16.857 17.7482 16.3006 18.3096 15.7383 18.8633C15.5287 19.0694 15.2968 19.198 15.0479 19.2393C14.7988 19.2805 14.5418 19.2329 14.2852 19.1035C13.9445 18.9322 13.6011 18.7568 13.2705 18.5605C11.7651 17.6675 10.4631 16.5273 9.28809 15.2451C8.266 14.1298 7.33273 12.9407 6.70508 11.5352C6.55227 11.1928 6.48807 10.9045 6.54199 10.6299C6.59597 10.3554 6.76426 10.1118 7.03418 9.85059C7.62979 9.27342 8.22384 8.69629 8.79688 8.09961C9.0001 7.88797 9.08968 7.6865 9.0918 7.49219C9.09379 7.29691 9.00783 7.08883 8.81934 6.8623L8.66309 6.6875C7.7155 5.73728 6.76829 4.7858 5.81641 3.83984C5.71403 3.73814 5.59624 3.6469 5.47266 3.58203C5.28389 3.48271 5.10157 3.45688 4.91992 3.5Z" fill="#3E4041" stroke="#3E4041" stroke-width="0.15"/>
<path d="M13.5977 0.608398C13.7861 0.438453 14.0554 0.362579 14.3477 0.417969C17.0004 0.918188 19.3259 2.06683 21.2939 3.92871C23.2351 5.76435 24.5248 7.98029 25.1797 10.5674L25.3457 11.2754C25.3831 11.4401 25.4032 11.609 25.4033 11.7783V11.7891C25.4032 11.7952 25.403 11.804 25.4023 11.8145C25.4011 11.8353 25.3976 11.8642 25.3916 11.8984C25.3796 11.9663 25.355 12.0582 25.3008 12.1484C25.246 12.2396 25.1618 12.3284 25.0352 12.3887C24.9089 12.4487 24.7469 12.4769 24.541 12.457V12.4561C24.3326 12.4371 24.1528 12.3647 24.0146 12.2314C23.8771 12.0986 23.7887 11.9134 23.7471 11.6855C23.4856 10.2539 22.9922 8.90912 22.2393 7.66504C21.2705 6.06412 20.004 4.75737 18.4414 3.75L18.125 3.55273C16.8942 2.80995 15.5709 2.30954 14.1553 2.05273H14.1543C13.9182 2.00971 13.7264 1.92668 13.5869 1.80371C13.4456 1.67911 13.3633 1.5172 13.3418 1.3291C13.3085 1.03624 13.409 0.778544 13.5977 0.608398Z" fill="#3E4041" stroke="#3E4041" stroke-width="0.15"/>
<path d="M13.9541 4.94727C14.5454 4.94738 15.324 5.23109 15.9258 5.49707H15.9268C18.4166 6.59918 20.0217 8.48482 20.7266 11.1201C20.7857 11.3408 20.8383 11.5725 20.8555 11.8066C20.8828 12.1729 20.6642 12.497 20.3486 12.6172L20.208 12.6562C19.7912 12.7282 19.4038 12.5098 19.2754 12.0967C19.2001 11.8545 19.14 11.6044 19.0771 11.3643C19.0137 11.1218 18.9465 10.8859 18.8525 10.6631C17.9365 8.48917 16.33 7.12605 14.0215 6.60156C13.9799 6.5921 13.938 6.58398 13.8936 6.5752C13.8498 6.56653 13.8036 6.55743 13.7578 6.5459H13.7568C13.3304 6.43684 13.0835 6.06585 13.1406 5.62793C13.1427 5.61238 13.1453 5.59712 13.1475 5.58203C13.2062 5.17976 13.5738 4.94727 13.9541 4.94727Z" fill="#3E4041" stroke="#3E4041" stroke-width="0.15"/>
</svg>
