<svg width="17" height="23" viewBox="0 0 17 23" fill="none" xmlns="http://www.w3.org/2000/svg">
<g clip-path="url(#clip0_718_20626)">
<g clip-path="url(#clip1_718_20626)">
<path d="M8.118 0C3.64 0 0 3.781 0 8.43C0 10.565 1.296 13.581 3.851 17.396C5.719 20.184 7.556 22.342 7.633 22.433L8.118 23L8.602 22.433C9.9502 20.8215 11.2126 19.1402 12.384 17.396C14.94 13.581 16.235 10.564 16.235 8.429C16.235 3.781 12.594 0 8.118 0ZM11.328 16.617C10.3229 18.1096 9.25187 19.5567 8.118 20.954C6.9863 19.5603 5.91724 18.1169 4.914 16.628C2.546 13.094 1.294 10.258 1.294 8.429C1.294 4.523 4.356 1.345 8.118 1.345C11.88 1.345 14.94 4.523 14.94 8.429C14.94 10.257 13.691 13.088 11.328 16.617ZM8.118 3.115C5.476 3.115 3.327 5.347 3.327 8.09C3.327 10.834 5.476 13.065 8.117 13.065C10.759 13.065 12.909 10.834 12.909 8.09C12.909 5.347 10.759 3.115 8.118 3.115ZM8.118 11.721C6.19 11.721 4.622 10.092 4.622 8.091C4.622 6.089 6.19 4.461 8.118 4.461C10.045 4.461 11.614 6.089 11.614 8.091C11.614 10.092 10.045 11.721 8.118 11.721Z" fill="#EB6E03"/>
</g>
</g>
<defs>
<clipPath id="clip0_718_20626">
<rect width="17" height="23" fill="white"/>
</clipPath>
<clipPath id="clip1_718_20626">
<rect width="17" height="23" fill="white"/>
</clipPath>
</defs>
</svg>
