<svg width="19" height="20" viewBox="0 0 19 20" fill="none" xmlns="http://www.w3.org/2000/svg">
<g clip-path="url(#clip0_4001_2661)">
<g clip-path="url(#clip1_4001_2661)">
<path d="M7.49942 0C6.40724 0.000553102 5.33016 0.255066 4.35325 0.743433C3.37635 1.2318 2.52639 1.94064 1.87052 2.81396C1.21465 3.68727 0.77084 4.70114 0.574152 5.77545C0.377463 6.84977 0.433285 7.95511 0.737206 9.00414C1.04113 10.0532 1.58482 11.0172 2.32534 11.82C3.06585 12.6228 3.9829 13.2424 5.00404 13.6298C6.02517 14.0173 7.12242 14.162 8.20909 14.0525C9.29576 13.943 10.3421 13.5824 11.2654 12.999C11.2854 13.025 11.3084 13.051 11.3324 13.075L17.1394 18.882C17.211 18.9536 17.296 19.0103 17.3895 19.0491C17.483 19.0878 17.5832 19.1077 17.6844 19.1077C17.7856 19.1077 17.8859 19.0878 17.9794 19.0491C18.0729 19.0103 18.1578 18.9536 18.2294 18.882C18.301 18.8104 18.3578 18.7255 18.3965 18.632C18.4352 18.5384 18.4552 18.4382 18.4552 18.337C18.4552 18.2358 18.4352 18.1356 18.3965 18.042C18.3578 17.9485 18.301 17.8636 18.2294 17.792L12.4724 12.034C13.4597 11.0496 14.1328 9.79449 14.4063 8.42742C14.6799 7.06036 14.5417 5.64286 14.0093 4.35437C13.4768 3.06589 12.574 1.96436 11.4152 1.18923C10.2563 0.414096 8.89359 0.000222305 7.49942 0ZM1.99742 7.044C1.99755 6.32134 2.14002 5.60577 2.41669 4.93817C2.69336 4.27056 3.09882 3.66399 3.60992 3.15308C4.12101 2.64218 4.72773 2.23694 5.39543 1.96051C6.06314 1.68408 6.77875 1.54187 7.50142 1.542C8.22408 1.54213 8.93964 1.6846 9.60725 1.96127C10.2749 2.23795 10.8814 2.6434 11.3923 3.1545C11.9032 3.66559 12.3085 4.27231 12.5849 4.94002C12.8613 5.60772 13.0035 6.32334 13.0034 7.046C13.0032 8.50549 12.4231 9.90509 11.3909 10.9369C10.3587 11.9687 8.9589 12.5483 7.49942 12.548C6.03993 12.5477 4.64033 11.9677 3.6085 10.9355C2.57668 9.9033 1.99715 8.50349 1.99742 7.044Z" fill="#808080"/>
</g>
</g>
<defs>
<clipPath id="clip0_4001_2661">
<rect width="18" height="20" fill="white" transform="translate(0.455078)"/>
</clipPath>
<clipPath id="clip1_4001_2661">
<rect width="18" height="20" fill="white" transform="translate(0.455078)"/>
</clipPath>
</defs>
</svg>
