<svg width="44" height="43" viewBox="0 0 44 43" fill="none" xmlns="http://www.w3.org/2000/svg">
<path d="M30.5684 16.5508L19.11 27.4883L13.3809 22.0195M7.6115 35.6014C5.81385 33.8037 7.00616 30.0296 6.09117 27.8182C5.14265 25.5257 1.66211 23.6806 1.66211 21.2382C1.66211 18.7958 5.14267 16.9508 6.09118 14.6584C7.00617 12.4469 5.81385 8.67283 7.6115 6.87517C9.40916 5.07752 13.1833 6.26983 15.3947 5.35484C17.6872 4.40632 19.5322 0.925781 21.9747 0.925781C24.4171 0.925781 26.2621 4.40634 28.5545 5.35485C30.766 6.26984 34.5401 5.07752 36.3377 6.87517C38.1354 8.67283 36.9431 12.4469 37.858 14.6584C38.8066 16.9508 42.2871 18.7959 42.2871 21.2384C42.2871 23.6808 38.8065 25.5258 37.858 27.8182C36.943 30.0296 38.1354 33.8037 36.3377 35.6014C34.5401 37.399 30.7659 36.2067 28.5545 37.1217C26.262 38.0702 24.417 41.5508 21.9745 41.5508C19.5321 41.5508 17.6871 38.0702 15.3947 37.1217C13.1833 36.2067 9.40916 37.399 7.6115 35.6014Z" stroke="#EB6E03" stroke-width="1.5" stroke-linecap="round" stroke-linejoin="round"/>
</svg>
