<svg width="33" height="41" viewBox="0 0 33 41" fill="none" xmlns="http://www.w3.org/2000/svg">
<path d="M10.375 27.5625H22.875M10.375 21.3125H22.875M26 1V7.25M16.625 1V7.25M7.25 1V7.25M2.5625 4.125H30.6875C31.1019 4.125 31.4993 4.28962 31.7924 4.58265C32.0854 4.87567 32.25 5.2731 32.25 5.6875V35.375C32.25 36.6182 31.7561 37.8105 30.8771 38.6896C29.998 39.5686 28.8057 40.0625 27.5625 40.0625H5.6875C4.4443 40.0625 3.25201 39.5686 2.37294 38.6896C1.49386 37.8105 1 36.6182 1 35.375V5.6875C1 5.2731 1.16462 4.87567 1.45765 4.58265C1.75067 4.28962 2.1481 4.125 2.5625 4.125Z" stroke="#EB6E03" stroke-width="1.5" stroke-linecap="round" stroke-linejoin="round"/>
</svg>
