<svg width="48" height="33" viewBox="0 0 48 33" fill="none" xmlns="http://www.w3.org/2000/svg">
<path d="M41.0664 16.1631L45.8941 13.7493C46.0797 13.6565 46.2449 13.5276 46.3802 13.3703C46.5154 13.2129 46.618 13.0302 46.6819 12.8328C46.7458 12.6354 46.7697 12.4272 46.7523 12.2204C46.7348 12.0137 46.6764 11.8124 46.5803 11.6285L41.777 2.42986C41.5874 2.06674 41.2628 1.79261 40.873 1.66649C40.4833 1.54037 40.0596 1.57236 39.6932 1.75555L34.8164 4.19396M41.0664 16.1631L34.8164 4.19396M41.0664 16.1631L37.9414 19.819M34.8164 4.19396L26.8699 4.19395C26.6647 4.19395 26.4615 4.23437 26.2719 4.31289C26.0823 4.39142 25.9101 4.50651 25.765 4.6516L18.1216 12.295C17.9633 12.4533 17.8408 12.6438 17.7625 12.8535C17.6843 13.0633 17.652 13.2874 17.6678 13.5107C17.6837 13.734 17.7474 13.9512 17.8545 14.1478C17.9617 14.3443 18.1098 14.5156 18.2889 14.6499L19.3476 15.444C20.4295 16.2553 21.7453 16.694 23.0976 16.694C24.45 16.694 25.7658 16.2553 26.8476 15.444L29.3476 13.569L37.9414 19.819M37.9414 19.819L30.7545 27.0059C30.5637 27.1967 30.3267 27.3348 30.0667 27.4068C29.8067 27.4789 29.5324 27.4823 29.2706 27.4169L17.9509 24.587C17.7386 24.5339 17.5398 24.4368 17.3674 24.302L6.69139 15.9538M6.69139 15.9538L1.86373 13.5399C1.67813 13.4471 1.51288 13.3183 1.37761 13.161C1.24235 13.0036 1.13978 12.8209 1.0759 12.6235C1.01201 12.426 0.988089 12.2179 1.00553 12.0111C1.02296 11.8043 1.08141 11.6031 1.17746 11.4192L5.98077 2.22053C6.17038 1.85741 6.495 1.58328 6.88475 1.45715C7.27449 1.33103 7.69818 1.36301 8.06458 1.54621L12.9414 3.98462L6.69139 15.9538ZM20.7539 31.5377L14.8673 30.0661C14.6284 30.0063 14.407 29.891 14.2212 29.7295L9.81639 25.9007M13.0536 3.98462L23.077 1.06245C23.4351 0.958061 23.8187 0.985196 24.1585 1.13895L30.9101 4.19395" stroke="#EB6E03" stroke-width="1.5" stroke-linecap="round" stroke-linejoin="round"/>
</svg>
