<svg width="25" height="24" viewBox="0 0 25 24" fill="none" xmlns="http://www.w3.org/2000/svg">
<path d="M12.7971 6.74907C12.7971 6.33485 12.4613 5.99907 12.0471 5.99907C11.6329 5.99907 11.2971 6.33485 11.2971 6.74907H12.0471H12.7971ZM12.0471 11.9991H11.2971C11.2971 12.4133 11.6329 12.7491 12.0471 12.7491V11.9991ZM17.3181 12.7491C17.7323 12.7491 18.0681 12.4133 18.0681 11.9991C18.0681 11.5849 17.7323 11.2491 17.3181 11.2491V11.9991V12.7491ZM18.9658 1.92174C18.6724 1.62943 18.1975 1.63038 17.9052 1.92386C17.6129 2.21734 17.6138 2.69221 17.9073 2.98451L18.4366 2.45312L18.9658 1.92174ZM21.102 6.1665C21.3955 6.4588 21.8704 6.45785 22.1627 6.16437C22.455 5.8709 22.454 5.39602 22.1606 5.10372L21.6313 5.63511L21.102 6.1665ZM1.93362 5.10372C1.64014 5.39602 1.63919 5.8709 1.9315 6.16437C2.22381 6.45785 2.69868 6.4588 2.99216 6.1665L2.46289 5.63511L1.93362 5.10372ZM6.18689 2.98451C6.48037 2.69221 6.48132 2.21734 6.18901 1.92386C5.89671 1.63038 5.42183 1.62943 5.12836 1.92174L5.65762 2.45312L6.18689 2.98451ZM12.0471 6.74907H11.2971V11.9991H12.0471H12.7971V6.74907H12.0471ZM12.0471 11.9991V12.7491H17.3181V11.9991V11.2491H12.0471V11.9991ZM20.3302 11.9991H19.5802C19.5802 16.1384 16.2103 19.4991 12.0471 19.4991V20.2491V20.9991C17.0331 20.9991 21.0802 16.9725 21.0802 11.9991H20.3302ZM12.0471 20.2491V19.4991C7.88386 19.4991 4.51403 16.1384 4.51403 11.9991H3.76403H3.01403C3.01403 16.9725 7.0611 20.9991 12.0471 20.9991V20.2491ZM3.76403 11.9991H4.51403C4.51403 7.85976 7.88386 4.49907 12.0471 4.49907V3.74907V2.99907C7.0611 2.99907 3.01403 7.02568 3.01403 11.9991H3.76403ZM12.0471 3.74907V4.49907C16.2103 4.49907 19.5802 7.85976 19.5802 11.9991H20.3302H21.0802C21.0802 7.02568 17.0331 2.99907 12.0471 2.99907V3.74907ZM18.4366 2.45312L17.9073 2.98451L21.102 6.1665L21.6313 5.63511L22.1606 5.10372L18.9658 1.92174L18.4366 2.45312ZM2.46289 5.63511L2.99216 6.1665L6.18689 2.98451L5.65762 2.45312L5.12836 1.92174L1.93362 5.10372L2.46289 5.63511Z" fill="#EB6E03"/>
</svg>
