<svg width="25" height="24" viewBox="0 0 25 24" fill="none" xmlns="http://www.w3.org/2000/svg">
<path d="M12.0478 22.0134C11.9185 22.0134 11.7913 21.9802 11.6786 21.917L3.39556 17.2764C3.2791 17.2112 3.18218 17.1162 3.11472 17.0014C3.04727 16.8865 3.01172 16.7558 3.01172 16.6227V7.375C3.01172 7.24192 3.04727 7.11124 3.11472 6.99637C3.18218 6.88149 3.2791 6.78656 3.39556 6.72132L11.6786 2.08069C11.7913 2.01755 11.9185 1.98438 12.0478 1.98438C12.1771 1.98437 12.3042 2.01755 12.417 2.08069L20.7 6.72132C20.8165 6.78656 20.9134 6.88149 20.9809 6.99637C21.0483 7.11124 21.0839 7.24192 21.0839 7.375V16.6227C21.0839 16.7558 21.0483 16.8865 20.9809 17.0014C20.9134 17.1162 20.8165 17.2112 20.7 17.2764L12.417 21.917C12.3042 21.9802 12.1771 22.0134 12.0478 22.0134ZM12.0478 22.0134L12.1371 11.9989M16.662 14.2968V9.42177L7.52975 4.40511M20.98 6.99515L12.1371 11.9989M12.1371 11.9989L3.11601 6.99421" stroke="#EB6E03" stroke-width="1.5" stroke-linecap="round" stroke-linejoin="round"/>
</svg>
