<svg width="18" height="18" viewBox="0 0 18 18" fill="none" xmlns="http://www.w3.org/2000/svg">
<path d="M11.5952 10.4106L6.68569 15.3201C6.33756 15.6685 5.90382 15.9191 5.42808 16.0466C4.95235 16.1742 4.45142 16.1742 3.97569 16.0466L1.92403 16.9423C1.79483 16.9987 1.65163 17.0148 1.51311 16.9887C1.37458 16.9625 1.24717 16.8951 1.14749 16.7954C1.07592 16.7239 1.02758 16.6324 1.00877 16.5329C0.989962 16.4335 1.00156 16.3307 1.04206 16.2379L1.9917 14.0626C1.86414 13.5869 1.86414 13.086 1.99168 12.6102C2.11922 12.1345 2.3698 11.7007 2.71822 11.3526L7.62771 6.44313M13.4513 8.05857L13.8797 8.48703C14.01 8.61729 14.1133 8.77192 14.1838 8.94211C14.2543 9.11229 14.2906 9.29469 14.2906 9.4789C14.2906 9.66311 14.2543 9.84551 14.1838 10.0157C14.1133 10.1859 14.01 10.3405 13.8797 10.4708L13.2635 11.087C13.1319 11.2186 12.9536 11.2925 12.7675 11.2925C12.5815 11.2925 12.4031 11.2186 12.2716 11.087L6.95128 5.7667C6.81975 5.63517 6.74586 5.45678 6.74586 5.27077C6.74586 5.08476 6.81975 4.90636 6.95128 4.77483L7.56754 4.15857C7.6978 4.02831 7.85243 3.92499 8.02262 3.8545C8.1928 3.78401 8.3752 3.74772 8.55941 3.74772C8.74362 3.74772 8.92602 3.78401 9.09621 3.8545C9.26639 3.92499 9.42102 4.02831 9.55128 4.15857L9.97974 4.58703L12.3984 2.1684C13.3442 1.2226 14.8852 1.16466 15.8566 2.08418C16.095 2.30962 16.2859 2.58059 16.4178 2.88106C16.5498 3.18154 16.6201 3.50542 16.6248 3.83356C16.6294 4.16169 16.5681 4.48742 16.4447 4.79149C16.3212 5.09555 16.1381 5.37177 15.906 5.60382L13.4513 8.05857Z" stroke="#505052" stroke-width="2" stroke-linecap="round" stroke-linejoin="round"/>
</svg>
