<svg width="25" height="24" viewBox="0 0 25 24" fill="none" xmlns="http://www.w3.org/2000/svg">
<path d="M16.1904 9.75L10.6683 15L7.90731 12.375M5.12692 18.8943C4.26059 18.0314 4.83519 16.2198 4.39423 15.1584C3.93712 14.058 2.25977 13.1723 2.25977 12C2.25977 10.8276 3.93713 9.942 4.39424 8.84164C4.8352 7.78015 4.26059 5.96858 5.12692 5.10571C5.99325 4.24283 7.81209 4.81514 8.87783 4.37595C9.98262 3.92066 10.8718 2.25 12.0489 2.25C13.2259 2.25 14.1151 3.92067 15.2199 4.37595C16.2856 4.81515 18.1044 4.24283 18.9708 5.10571C19.8371 5.96858 19.2625 7.78016 19.7035 8.84165C20.1606 9.94203 21.8379 10.8277 21.8379 12C21.8379 13.1724 20.1606 14.058 19.7034 15.1584C19.2625 16.2199 19.8371 18.0314 18.9708 18.8943C18.1044 19.7572 16.2856 19.1849 15.2199 19.6241C14.1151 20.0793 13.2259 21.75 12.0488 21.75C10.8718 21.75 9.98259 20.0793 8.87782 19.624C7.81208 19.1848 5.99325 19.7572 5.12692 18.8943Z" stroke="#EB6E03" stroke-width="1.5" stroke-linecap="round" stroke-linejoin="round"/>
</svg>
