<svg width="78" height="60" viewBox="0 0 78 60" fill="none" xmlns="http://www.w3.org/2000/svg">
<path d="M20.9781 34.7706C20.9781 38.4164 17.9897 41.5018 14.3806 41.5018H5.80701V18.2239H14.3806C17.9897 18.2239 20.9781 21.3091 20.9781 24.9549V34.7706ZM14.3806 12.6142H0V47.1097H14.3806C21.0918 47.1097 26.7877 41.4445 26.7877 34.7693V24.9537C26.7877 18.2786 21.0919 12.6133 14.3806 12.6133" fill="#003E65"/>
<path d="M0.015625 0H77.8563V4.97732H0.015625V0Z" fill="#003E65"/>
<path d="M34.0312 12.6133H39.8394V47.1088H34.0312V12.6133Z" fill="#003E65"/>
<path d="M48.2422 12.6133H53.8816C59.9403 20.9191 66.0422 29.1932 72.0393 37.5431V12.6133H77.8492V47.1088H72.2098C66.104 38.7848 59.95 30.4966 54.0508 22.0267V47.0533H48.2426L48.2422 12.6133Z" fill="#003E65"/>
<path d="M77.8563 59.9993H0.015625V54.7461H77.8563V59.9993Z" fill="#003E65"/>
</svg>
