<svg width="19" height="26" viewBox="0 0 19 26" fill="none" xmlns="http://www.w3.org/2000/svg">
<path d="M0 2.45312C0 1.37444 0.877118 0.5 1.9591 0.5H11.4607L18.8073 7.87305V23.5469C18.8073 24.6256 17.9302 25.5 16.8482 25.5H1.9591C0.877118 25.5 0 24.6256 0 23.5469V2.45312Z" fill="#EB6E03"/>
<path d="M11.4607 0.5L18.8073 7.87305H11.4607V0.5Z" fill="#FE602C"/>
<path d="M4.85758 16.6621C5.25234 16.6621 5.59404 16.7277 5.88268 16.8589C6.17557 16.9901 6.40054 17.1763 6.55759 17.4175C6.71465 17.6587 6.79317 17.9443 6.79317 18.2744C6.79317 18.6003 6.71465 18.8859 6.55759 19.1313C6.40054 19.3726 6.17557 19.5588 5.88268 19.6899C5.59404 19.8169 5.25234 19.8804 4.85758 19.8804H3.95983V21.1055H2.92836V16.6621H4.85758ZM4.80028 19.0425C5.11014 19.0425 5.34573 18.9769 5.50702 18.8457C5.66832 18.7103 5.74897 18.5199 5.74897 18.2744C5.74897 18.0247 5.66832 17.8343 5.50702 17.7031C5.34573 17.5677 5.11014 17.5 4.80028 17.5H3.95983V19.0425H4.80028Z" fill="white"/>
<path d="M7.52956 16.6621H9.55429C10.0382 16.6621 10.4648 16.7552 10.8341 16.9414C11.2076 17.1234 11.4962 17.3815 11.7 17.7158C11.908 18.0501 12.012 18.4395 12.012 18.8838C12.012 19.3281 11.908 19.7174 11.7 20.0518C11.4962 20.3861 11.2076 20.6463 10.8341 20.8325C10.4648 21.0145 10.0382 21.1055 9.55429 21.1055H7.52956V16.6621ZM9.50335 20.2612C9.94905 20.2612 10.3035 20.1385 10.5667 19.8931C10.8341 19.6434 10.9678 19.307 10.9678 18.8838C10.9678 18.4606 10.8341 18.1263 10.5667 17.8809C10.3035 17.6312 9.94905 17.5063 9.50335 17.5063H8.56103V20.2612H9.50335Z" fill="white"/>
<path d="M13.8213 17.4873V18.6616H15.8843V19.4868H13.8213V21.1055H12.7899V16.6621H16.158V17.4873H13.8213Z" fill="white"/>
</svg>
