<svg width="23" height="9" viewBox="0 0 23 9" fill="none" xmlns="http://www.w3.org/2000/svg">
<g clip-path="url(#clip0_4279_21655)">
<path d="M0.999218 3.9251C0.681618 3.9251 0.424217 4.18254 0.424217 4.5001C0.424217 4.81766 0.681618 5.0751 0.999218 5.0751V4.5001V3.9251ZM22.4058 4.90669C22.6304 4.68214 22.6304 4.31807 22.4058 4.09352L18.7465 0.434237C18.522 0.209687 18.1579 0.209687 17.9334 0.434237C17.7088 0.658787 17.7088 1.02286 17.9334 1.24741L21.186 4.5001L17.9334 7.75279C17.7088 7.97734 17.7088 8.34141 17.9334 8.56596C18.1579 8.79051 18.522 8.79051 18.7465 8.56596L22.4058 4.90669ZM0.999218 4.5001V5.0751L21.9992 5.0751V4.5001V3.9251L0.999218 3.9251V4.5001Z" fill="#FE602C"/>
</g>
<defs>
<clipPath id="clip0_4279_21655">
<rect width="23" height="9" fill="white" transform="matrix(-1 0 0 -1 23 9)"/>
</clipPath>
</defs>
</svg>
