<svg width="93" height="76" viewBox="0 0 93 76" fill="none" xmlns="http://www.w3.org/2000/svg">
<path d="M72.2408 20.4851C79.302 19.9661 88.2854 22.6045 91.0615 29.7563C93.8453 36.9298 92.586 48.5146 85.1009 52.4301C75.0865 57.6682 58.2668 54.8689 56.487 41.8168C54.8689 29.9567 59.7635 21.4017 72.2416 20.4851H72.2408ZM74.3254 28.8305C72.5966 28.8568 70.4385 29.4493 69.6055 31.12C68.5288 33.2789 68.4955 42.0651 69.6132 44.1961C71.3776 47.5593 78.5486 47.4402 79.4126 43.1643C79.9015 40.7471 79.958 34.2519 79.3894 31.8843C78.8604 29.6821 76.3728 28.7987 74.3246 28.8305H74.3254Z" fill="#061F5C"/>
<path d="M47.2545 21.5177C47.4201 21.353 47.8014 21.346 48.0327 21.3274C48.9176 21.254 53.1633 21.1975 53.7867 21.4009C53.9267 21.4466 54.0574 21.5154 54.1534 21.6307L54.3096 32.3808C54.2199 32.8039 53.7666 32.7908 53.4123 32.8209C51.4987 32.9826 49.2927 32.7413 47.3536 32.7506C44.7608 29.3626 39.7107 27.5951 35.5137 28.043C33.7694 28.2294 32.9774 29.8793 34.8013 30.6946C42.2206 33.2696 56.1815 34.2163 55.4165 45.1135C54.6213 56.4383 38.924 56.6595 31.4807 52.0479L31.1388 52.2962C30.9794 52.792 31.4087 53.902 30.7126 54.1062C29.5918 53.943 24.6159 54.4527 23.9569 54.0637C23.7032 53.9136 23.6776 53.4449 23.6537 53.1741C23.4193 50.552 23.434 45.5064 23.6544 42.8726C23.7241 42.0419 23.7929 41.973 24.6236 41.9034C26.3934 41.7549 28.4377 41.9715 30.2307 41.9746C30.6437 42.1115 31.3151 43.3514 31.7088 43.7768C34.2003 46.4702 38.9549 47.5013 42.4813 46.9389C44.4019 46.6326 46.324 45.6626 43.5302 44.48C36.7868 41.6257 24.1309 41.3333 23.3644 31.8432C22.3619 19.4254 38.7128 18.3402 46.7038 23.1243L47.0465 22.8768L47.2538 21.5185L47.2545 21.5177Z" fill="#061F5C"/>
<path d="M16.8068 45.9342C17.0195 46.2684 20.5289 45.9621 21.201 46.0874C21.4006 46.1245 21.5506 46.1988 21.6535 46.3806L21.734 53.4705L21.43 54.0607L0.327484 53.9895C0.13179 53.7435 0.125598 53.4689 0.100846 53.1727C-0.0345157 51.5746 -0.032968 48.6454 0.10162 47.0458C0.161179 46.3396 0.175878 46.1617 0.925394 46.0828C1.70508 46.0008 4.41076 46.2692 4.81917 45.9482C4.94215 45.8515 5.00403 45.7099 5.02415 45.5568L4.92901 29.4145C4.62116 28.7029 1.04606 29.4021 0.292671 28.8986C0.172779 28.6031 0.126373 28.2898 0.102394 27.9712C-0.0229118 26.353 -0.0414772 23.45 0.100846 21.8458C0.143388 21.3685 0.179745 20.8696 0.770695 20.875L21.331 20.9083C21.628 21.0081 21.6992 21.4242 21.7309 21.7011C21.9799 23.8584 21.6009 26.5765 21.6543 28.7872C21.5166 29.0355 21.3178 29.0587 21.0641 29.0912C19.7322 29.2629 17.9361 28.6789 16.8076 29.4571V45.9327L16.8068 45.9342Z" fill="#061F5C"/>
<path d="M76.88 17.1449C75.3524 17.8341 74.5255 15.7302 73.6901 14.771C72.5546 13.4677 69.7755 10.4425 68.3886 9.63574C67.0783 8.87384 65.6311 10.7488 64.3765 11.1255C64.221 11.2268 64.0648 11.3684 64.0655 11.5664C64.0678 11.9052 68.0599 15.9413 67.9578 17.0668C67.5091 17.5015 66.7047 17.155 66.3002 16.793C65.3998 15.987 64.31 13.8838 63.2541 12.8311C63.0043 12.582 62.7289 12.2672 62.3484 12.2417L56.3847 14.317C55.7474 14.8538 57.1234 16.3505 57.0747 17.066C55.3088 18.282 55.0559 15.0982 54.1524 14.9234L46.0176 15.8818C45.4692 16.0311 45.6308 16.6909 45.562 17.1364C45.3686 17.223 45.1219 17.3189 44.9115 17.3128C43.8216 17.2787 44.2625 16.6321 44.0189 16.1138C43.8054 15.6582 41.3619 15.7371 40.7385 15.6667C39.2472 15.4981 37.0296 14.8971 35.6659 14.9079C34.2094 14.9195 34.7067 18.1396 32.674 17.1666C32.3058 16.6692 33.8977 14.8971 33.3616 14.3982L27.4661 12.3747C26.3406 12.4443 24.1833 16.0682 23.3743 16.9423C22.9457 17.2725 22.1351 17.5394 21.7306 17.0854C22.6944 15.0286 24.4332 13.4886 25.5826 11.5873C25.5354 11.4388 25.4117 11.3653 25.2979 11.2763C25.134 11.1479 22.7446 9.73475 22.5807 9.67132C21.4312 9.22655 20.3746 10.4587 19.5609 11.1905C17.5908 12.9626 15.9766 15.0673 14.2648 17.0768C13.7999 17.4458 13.2949 17.312 12.7812 17.1565C20.2671 5.12621 34.6101 -1.10359 48.6389 0.161091C59.0007 1.09548 69.4398 6.67167 75.6989 14.9992C75.9619 15.3496 77.0928 16.8309 76.8808 17.1449H76.88ZM52.59 2.25032C48.2522 1.27107 43.9663 1.15272 39.5689 1.82567C39.1907 1.88368 36.9414 2.17839 36.9383 2.47155C40.5064 5.24146 46.2519 5.40235 50.3515 3.81048C50.6384 3.6991 52.3277 2.89079 52.4414 2.76935C52.6085 2.59067 52.6224 2.48779 52.59 2.24955V2.25032ZM54.3968 3.87082C56.3855 4.93361 58.4662 6.37233 60.1965 7.83734C60.8385 8.38111 61.8208 9.73939 62.5773 9.93431C63.719 10.229 65.201 8.84522 66.1578 8.28365C66.2104 8.07171 65.9676 7.96342 65.8477 7.85126C64.2349 6.33829 57.3122 3.10659 55.1448 2.92791C54.9685 2.91322 54.6235 2.93333 54.5136 3.0888L54.3953 3.87082H54.3968ZM35.2668 3.86385C35.4787 2.88228 34.361 2.9078 33.6517 3.06714C31.6514 3.51578 25.2361 6.55642 23.7618 7.93635C23.655 8.03613 23.4663 8.06475 23.5212 8.27669C23.6079 8.67891 26.5092 10.3443 27.1358 10.1269C29.611 7.7538 32.3298 5.63595 35.2675 3.86463L35.2668 3.86385ZM34.5064 12.7893L39.1636 5.47274C39.0631 5.13008 37.4936 4.66984 37.1286 4.67835C36.386 4.69614 32.1658 7.71281 31.3482 8.36564C30.9909 8.65107 28.6325 10.6513 28.5923 10.8316C28.5412 11.0613 28.7795 11.141 28.928 11.2245C29.7533 11.6925 31.5764 12.2649 32.534 12.5387C33.0654 12.6911 34.0787 13.1521 34.5072 12.7893H34.5064ZM55.1549 12.8025C55.6174 13.0709 57.3253 12.4242 57.8861 12.2409C58.6387 11.9949 60.0225 11.5215 60.6776 11.1564C61.4016 10.7535 60.7766 10.3389 60.345 9.92503C58.8599 8.50101 55.7907 6.20912 53.9768 5.25925C52.6503 4.56465 51.1721 4.19878 50.5193 5.86955L55.1549 12.8017V12.8025ZM44.0916 13.9527V7.094C44.0916 6.08304 41.3395 5.66534 40.6248 6.27022C39.4645 7.89536 38.1952 9.48568 37.1703 11.2059C36.7867 11.8495 36.2661 12.606 36.1779 13.337C36.2553 13.7175 43.028 14.5049 43.8402 14.3309L44.0916 13.9527ZM45.7321 6.79621V13.9534C45.7321 13.9944 45.8853 14.3015 45.9835 14.3317C47.9737 14.2953 50.0645 14.0679 52.0214 13.6827C52.32 13.6239 53.3209 13.5597 53.348 13.2101C53.3549 13.0268 53.3155 12.8566 53.2644 12.6818C53.0572 11.9709 49.6708 7.00815 49.0853 6.57344C48.714 6.29807 48.058 6.00955 47.597 6.00491C47.1623 6.00027 45.8149 6.29033 45.7321 6.79543V6.79621Z" fill="#061F5C"/>
<path d="M34.3658 57.9015C34.5925 58.1165 34.8725 59.1499 35.0867 59.4903C35.4704 60.1006 36.0675 59.9915 36.7119 59.9482C38.361 59.836 40.2282 59.3619 41.9337 59.2072C43.2657 59.0865 44.5706 59.7981 44.4569 57.8543C44.651 57.5689 45.4245 57.7321 45.7107 57.8891C45.737 58.4584 45.7749 59.0223 46.4378 59.1739C47.2213 59.3541 48.7482 59.2458 49.6841 59.3565C51.228 59.5398 52.7665 59.8538 54.3011 60.0936C55.5921 60.0116 55.3956 56.6198 57.3642 57.9425C57.2466 58.4785 56.2882 60.0673 56.6031 60.4788C58.4502 61.4225 60.5324 61.998 62.511 62.6493C62.9682 62.7088 63.1298 62.4636 63.4044 62.1898C64.6281 60.9715 65.6058 59.218 66.6724 57.8535C66.9524 57.63 68.3161 57.5604 68.2364 58.0717L64.2228 63.4529L68.1668 65.6257C68.7113 65.5739 72.0157 62.2888 72.5765 61.6708C73.3995 60.7635 74.668 58.7322 75.4176 58.1003C75.8252 57.7561 76.4571 57.637 76.9738 57.7151C77.1564 57.7429 77.2546 57.6408 77.1974 57.9417C77.1293 58.2983 75.3247 60.6149 74.9542 61.0674C59.8254 79.5712 30.8689 79.811 15.4701 61.5145C15.1283 61.1084 12.6252 58.016 12.9323 57.7174C14.7523 57.3183 14.979 58.7547 15.918 59.8747C17.2662 61.482 19.5875 64.1003 21.2915 65.2366C21.549 65.4083 21.9234 65.6381 22.2398 65.6172C22.6938 65.5878 25.6787 63.8203 25.7445 63.4359C24.8201 61.9926 23.5129 60.7472 22.6195 59.2861C22.4192 58.9581 21.7339 58.0809 22.1694 57.7839C22.5422 57.6555 22.963 57.6478 23.3056 57.8551C23.7295 58.1111 25.6292 61.0527 26.2743 61.7443C26.5729 62.0645 27.1839 62.7668 27.6148 62.7715L33.59 60.7078C33.6774 60.6397 33.7563 60.5531 33.7873 60.444C33.8731 60.1423 32.979 58.3695 32.7655 57.9394C33.0904 57.5372 34.0417 57.5967 34.3658 57.9038V57.9015ZM44.2062 60.7333C44.1026 60.6281 43.8783 60.5724 43.7282 60.5732C41.9531 60.5832 39.1252 60.9893 37.3515 61.3358C36.2996 61.5416 36.3197 61.646 36.7614 62.5874C37.1907 63.5024 40.0719 67.9532 40.7402 68.449C41.8084 69.2426 43.1326 69.1645 44.2441 68.4892C44.3965 67.4837 44.5953 61.127 44.207 60.7333H44.2062ZM45.8824 60.6969V68.227C45.8824 68.9649 48.7529 69.3184 49.3028 68.8149C50.4043 67.329 51.5405 65.8446 52.5043 64.2628C52.8083 63.7639 53.8943 62.1527 53.796 61.6839C52.939 61.1958 46.1036 60.362 45.8816 60.6969H45.8824ZM34.2204 62.0684C33.4075 62.1565 31.3361 62.9378 30.4883 63.2696C29.8773 63.5086 29.1896 63.7005 28.7387 64.2009C30.1557 65.6744 31.7189 67.0219 33.399 68.186C34.3388 68.8373 36.6709 70.4253 37.7452 70.3789C38.3726 70.3518 39.515 69.839 39.2079 69.0918C38.8405 68.1976 37.35 66.4108 36.725 65.4563C36.032 64.3981 35.4023 63.2859 34.775 62.1867C34.6188 61.9779 34.4293 62.0467 34.2197 62.0691L34.2204 62.0684ZM61.0437 64.5289L61.2146 64.0733C61.159 63.8698 60.988 63.8111 60.8294 63.7159C60.2339 63.3601 56.0438 61.9051 55.5797 62.1078L50.8583 69.4979C51.0811 70.3185 52.8006 70.3789 53.4781 70.1569C54.2192 69.914 56.8862 68.0375 57.6488 67.4682C58.8586 66.5655 59.8974 65.4981 61.0437 64.5289ZM62.9898 64.8971C62.4816 65.003 61.9526 65.7982 61.5411 66.1409C60.4419 67.0551 59.2182 68.1272 58.0967 68.9595C57.2381 69.5969 55.4823 70.4446 54.841 71.0712C54.7227 71.1864 54.52 71.3984 54.5997 71.584C55.251 72.4542 56.1258 72.011 56.996 71.7364C60.2215 70.7192 63.9103 68.9363 66.4551 66.7357C66.3607 66.6328 66.2671 66.5276 66.1642 66.434C65.9113 66.202 63.9304 65.0324 63.6318 64.9373C63.3967 64.8623 63.2342 64.8468 62.9898 64.8978V64.8971ZM35.5926 71.7271C35.6421 71.4409 35.4 71.3001 35.2182 71.1377C34.1477 70.184 32.2387 69.1784 30.988 68.2115C29.7071 67.2207 28.5159 66.1076 27.2891 65.0518C26.231 64.7308 24.5378 66.1935 23.6669 66.738C23.605 66.9894 25.0429 67.8874 25.319 68.0653C26.5234 68.8404 28.075 69.6734 29.3807 70.2659C30.1658 70.6218 34.3566 72.3049 34.8887 72.1564C35.1061 72.0953 35.2832 71.7124 35.5926 71.7279V71.7271ZM53.0388 72.7729C53.0906 72.4697 52.847 72.349 52.642 72.2028C48.9029 69.5234 41.8927 69.74 37.9773 71.9522C37.7344 72.0891 37.0893 72.3923 37.0839 72.6986C42.2625 74.0894 47.8316 73.954 53.0388 72.7729Z" fill="#061F5C"/>
</svg>
