<svg width="23" height="12" viewBox="0 0 23 12" fill="none" xmlns="http://www.w3.org/2000/svg">
<path d="M1 8.075C0.682436 8.075 0.425 7.81756 0.425 7.5C0.425 7.18244 0.682436 6.925 1 6.925L1 8.075ZM22.4066 7.09341C22.6311 7.31796 22.6311 7.68203 22.4066 7.90658L18.7473 11.5659C18.5228 11.7904 18.1587 11.7904 17.9341 11.5659C17.7096 11.3413 17.7096 10.9772 17.9341 10.7527L21.1868 7.5L17.9341 4.24731C17.7096 4.02276 17.7096 3.65869 17.9341 3.43413C18.1587 3.20958 18.5228 3.20958 18.7473 3.43413L22.4066 7.09341ZM1 7.5L1 6.925L22 6.925L22 7.5L22 8.075L1 8.075L1 7.5Z" fill="#969696"/>
</svg>
