<svg width="25" height="48" viewBox="0 0 25 48" fill="none" xmlns="http://www.w3.org/2000/svg">
<path d="M9.91707 14.1261H13.8476C14.2197 14.1261 14.5547 13.9773 14.8012 13.7309C15.0431 13.4891 15.1966 13.1497 15.1966 12.7777V0H8.57278V12.7777C8.57278 13.1497 8.72164 13.4845 8.96817 13.7309C9.21005 13.9727 9.5496 14.1261 9.92172 14.1261H9.91707ZM6.62378 43.4571V5.17524H3.95845C3.03745 5.17524 2.0141 6.17495 2.00945 6.1796L1.03264 7.15606C1.03264 7.15606 0 8.07207 0 9.13688V39.5001C0 40.565 1.02799 41.481 1.03264 41.481L2.00945 42.4528C2.00945 42.4528 3.03745 43.4571 3.95845 43.4571H6.62378ZM24.3136 24.8346V23.6954C24.3136 23.5885 24.2671 23.4862 24.1973 23.4164C24.1229 23.3421 24.0206 23.2956 23.9136 23.2956H23.4996V9.13223C23.4996 8.06742 22.4669 7.15141 22.4669 7.15141L21.4901 6.17495C21.4901 6.17495 20.4621 5.17059 19.5411 5.17059H16.8758V23.2956H16.4106C16.3036 23.2956 16.2013 23.3421 16.1315 23.4118C16.0571 23.4815 16.0153 23.5838 16.0153 23.6954V24.8346C16.0153 24.9462 16.0618 25.0485 16.1315 25.1229C16.2013 25.1927 16.3036 25.2392 16.4106 25.2392H16.8758V43.4571H19.5411C20.4621 43.4571 21.4855 42.4574 21.4901 42.4528L22.4669 41.481C22.4669 41.481 23.4996 40.565 23.4996 39.5001V25.2438H23.9182C24.0252 25.2438 24.1275 25.1927 24.202 25.1183C24.2717 25.0485 24.3183 24.9462 24.3183 24.8393L24.3136 24.8346ZM15.1966 35.2177C15.1966 34.8457 15.0477 34.5062 14.8058 34.2691C14.5593 34.0273 14.2244 33.8739 13.8523 33.8739H9.92172C9.5496 33.8739 9.2147 34.0227 8.96817 34.2691C8.72629 34.5109 8.57278 34.8503 8.57278 35.2223V48H15.1966V35.2223V35.2177Z" fill="#3E4041"/>
</svg>
