<svg width="246" height="48" viewBox="0 0 246 48" fill="none" xmlns="http://www.w3.org/2000/svg">
<path d="M39.2683 11.4711H47.8272V21.5984H38.845V11.4711H39.2683ZM111.088 21.5984H102.432V11.4711H111.511V21.5984H111.088ZM118.135 23.9326V9.13223C118.135 8.06742 117.107 7.15141 117.103 7.15141L116.126 6.17495C116.126 6.17495 115.098 5.17059 114.177 5.17059H97.1568C96.7846 5.17059 96.4451 5.31938 96.2032 5.56582C95.9613 5.80761 95.8078 6.14705 95.8078 6.51904V42.1133C95.8078 42.4853 95.9567 42.8201 96.2032 43.0666C96.4451 43.3083 96.7846 43.4618 97.1568 43.4618H101.087C101.459 43.4618 101.799 43.313 102.041 43.0712C102.283 42.8294 102.432 42.49 102.432 42.118V27.8989H114.177C115.098 27.8989 116.121 26.8992 116.126 26.8945L117.103 25.918C117.103 25.918 118.135 24.9974 118.135 23.9372V23.9326ZM23.3973 42.2435L16.6014 24.3139L23.3973 6.38419C23.4345 6.25865 23.4531 6.1331 23.4531 6.01221C23.4531 5.80761 23.3973 5.63092 23.2996 5.49608C23.2019 5.36588 23.0577 5.26359 22.8809 5.21244C22.7833 5.18454 22.6716 5.17059 22.5507 5.17059H18.3085C17.9131 5.17059 17.5038 5.33333 17.1642 5.59837C16.8153 5.86806 16.5409 6.2354 16.4246 6.63528C14.7221 11.4199 12.508 16.4417 10.6055 21.1985H6.62845V6.51904C6.62845 6.14705 6.4796 5.80761 6.23307 5.56582C5.99119 5.32403 5.65627 5.17524 5.28415 5.17524H1.3443C0.972172 5.17524 0.63261 5.32403 0.395381 5.56582C0.153501 5.80761 0 6.14705 0 6.51904V42.1133C0 42.4853 0.148849 42.8201 0.39073 43.0666C0.637261 43.3083 0.972172 43.4618 1.3443 43.4618H5.2795C5.65162 43.4618 5.98654 43.313 6.22842 43.0712C6.47029 42.8248 6.6238 42.49 6.6238 42.118V27.5036H10.6241C12.4847 32.1627 14.8198 37.324 16.4199 41.9971C16.5362 42.397 16.8153 42.7643 17.1595 43.034C17.5038 43.299 17.9131 43.4618 18.3085 43.4618H22.5507C22.6716 43.4618 22.7833 43.4478 22.8809 43.4199C23.0623 43.3688 23.2019 43.2665 23.2996 43.1363C23.3973 43.0014 23.4531 42.8248 23.4531 42.6248C23.4531 42.5086 23.4345 42.383 23.3973 42.2528V42.2435ZM172.144 14.1261H176.075C176.447 14.1261 176.782 13.9773 177.028 13.7309C177.27 13.4891 177.424 13.1497 177.424 12.7777V0H170.8V12.7777C170.8 13.1497 170.949 13.4845 171.195 13.7309C171.437 13.9727 171.777 14.1261 172.149 14.1261H172.144ZM168.851 43.4571V5.17524H166.186C165.265 5.17524 164.241 6.17495 164.237 6.1796L163.26 7.15606C163.26 7.15606 162.227 8.07207 162.227 9.13688V39.5001C162.227 40.565 163.255 41.481 163.26 41.481L164.237 42.4528C164.237 42.4528 165.265 43.4571 166.186 43.4571H168.851ZM186.541 24.8346V23.6954C186.541 23.5885 186.494 23.4862 186.424 23.4164C186.35 23.3421 186.248 23.2956 186.141 23.2956H185.727V9.13223C185.727 8.06742 184.694 7.15141 184.694 7.15141L183.717 6.17495C183.717 6.17495 182.689 5.17059 181.768 5.17059H179.103V23.2956H178.638C178.531 23.2956 178.429 23.3421 178.359 23.4118C178.284 23.4815 178.242 23.5838 178.242 23.6954V24.8346C178.242 24.9462 178.289 25.0485 178.359 25.1229C178.429 25.1927 178.531 25.2392 178.638 25.2392H179.103V43.4571H181.768C182.689 43.4571 183.713 42.4574 183.717 42.4528L184.694 41.481C184.694 41.481 185.727 40.565 185.727 39.5001V25.2438H186.145C186.252 25.2438 186.355 25.1927 186.429 25.1183C186.499 25.0485 186.545 24.9462 186.545 24.8393L186.541 24.8346ZM177.424 35.2177C177.424 34.8457 177.275 34.5062 177.033 34.2691C176.786 34.0273 176.452 33.8739 176.079 33.8739H172.149C171.777 33.8739 171.442 34.0227 171.195 34.2691C170.953 34.5109 170.8 34.8503 170.8 35.2223V48H177.424V35.2223V35.2177ZM84.5046 5.17524H66.1728C65.8007 5.17524 65.4658 5.32403 65.2193 5.57047C64.9774 5.81226 64.8239 6.1517 64.8239 6.52368V42.118C64.8239 42.49 64.9727 42.8248 65.2193 43.0712C65.4612 43.313 65.8007 43.4664 66.1728 43.4664H84.5046C84.8534 43.4664 85.1697 43.3223 85.4023 43.0944C85.6302 42.8666 85.7744 42.5504 85.7744 42.197V38.4353C85.7744 38.0866 85.6349 37.7658 85.4023 37.5379C85.1697 37.3101 84.8534 37.1659 84.5046 37.1659H71.4523V27.5036H81.8532C82.2021 27.5036 82.523 27.3595 82.7509 27.1316C82.9789 26.9038 83.1231 26.583 83.1231 26.2342V22.4772C83.1231 22.1285 82.9835 21.8076 82.7509 21.5798C82.523 21.3519 82.2021 21.2078 81.8532 21.2078H71.4523V11.4757H84.5046C84.8534 11.4757 85.1697 11.3316 85.4023 11.1037C85.6302 10.8759 85.7744 10.5597 85.7744 10.2063V6.44464C85.7744 6.0959 85.6302 5.77507 85.4023 5.54722C85.1744 5.31938 84.8534 5.17524 84.5046 5.17524ZM150.342 29.6658H146.5C146.114 29.6658 145.765 29.8192 145.519 30.0703C145.268 30.3214 145.114 30.6702 145.114 31.0561V37.1799H135.216V11.4525H145.114V17.5763C145.114 17.9622 145.268 18.311 145.519 18.562C145.77 18.8131 146.119 18.9666 146.505 18.9666H150.347C150.733 18.9666 151.082 18.8131 151.329 18.562C151.58 18.311 151.733 17.9622 151.733 17.5763V9.13688C151.733 8.07207 150.705 7.15606 150.701 7.15606L149.724 6.1796C149.724 6.1796 148.701 5.17524 147.775 5.17524H132.55C131.485 5.17524 130.569 6.20285 130.569 6.2075L129.592 7.18861C129.592 7.18861 128.587 8.21157 128.587 9.13688V39.5048C128.587 40.4301 129.587 41.4484 129.592 41.4531L130.569 42.4342C130.569 42.4342 131.485 43.4664 132.55 43.4664H147.775C148.696 43.4664 149.719 42.4667 149.724 42.4621L150.701 41.4903C150.701 41.4903 151.733 40.5743 151.733 39.5094V31.07C151.733 30.6841 151.58 30.3354 151.329 30.0843C151.077 29.8332 150.729 29.6797 150.342 29.6797V29.6658ZM49.3156 43.4571H53.5579C53.6834 43.4571 53.7904 43.4432 53.8881 43.4153C54.0649 43.3641 54.2091 43.2618 54.3068 43.1316C54.4044 42.9968 54.4603 42.8201 54.4603 42.6202C54.4603 42.5039 54.4417 42.3784 54.4091 42.2528L48.6226 27.8942H50.5064C51.4274 27.8942 52.4508 26.8945 52.4508 26.8899L53.4323 25.9134C53.4323 25.9134 54.4603 24.9927 54.4603 23.9326V9.13223C54.4603 8.06742 53.4323 7.15141 53.4323 7.15141L52.4508 6.17495C52.4508 6.17495 51.4274 5.17059 50.5018 5.17059H33.5748C33.2027 5.17059 32.8678 5.31938 32.6213 5.56582C32.3794 5.80761 32.2259 6.14705 32.2259 6.51904V42.1133C32.2259 42.4853 32.3747 42.8201 32.6213 43.0666C32.8631 43.3083 33.1981 43.4618 33.5748 43.4618H37.51C37.8822 43.4618 38.2171 43.313 38.459 43.0712C38.7008 42.8294 38.8497 42.49 38.8497 42.118V27.8989H41.7476C43.5617 32.4231 45.8782 37.4682 47.4271 42.0017C47.5481 42.4016 47.8225 42.769 48.1667 43.0387C48.5109 43.3037 48.9203 43.4664 49.3156 43.4664V43.4571Z" fill="#3E4041"/>
<path d="M213.244 22.5388H219.202L220.12 18.6618H214.163L213.244 22.5388ZM195.322 21.2294H199.631C199.945 21.2294 200.231 21.3599 200.434 21.5649C200.642 21.7746 200.771 22.0635 200.771 22.3757V26.7234C200.771 27.0403 200.642 27.3292 200.439 27.5342C200.231 27.7439 199.945 27.8744 199.631 27.8744H195.322C195.008 27.8744 194.722 27.7439 194.519 27.5389C194.311 27.3292 194.182 27.0403 194.182 26.7234V22.3757C194.182 22.0588 194.311 21.7699 194.514 21.5649C194.722 21.3552 195.008 21.2294 195.322 21.2294ZM242.356 14.1929H244.337L244.485 14.2022L244.628 14.2302C244.752 14.2582 244.863 14.3094 244.965 14.37C245.066 14.4352 245.159 14.5191 245.233 14.617C245.307 14.7102 245.362 14.822 245.399 14.9385C245.436 15.0503 245.454 15.1762 245.454 15.302L245.445 15.4557L245.417 15.6142L241.446 32.32C241.391 32.5576 241.261 32.7906 241.109 32.9956C240.846 33.3591 240.513 33.648 240.467 33.6853L239.867 34.1793C239.793 34.2445 239.059 34.8689 238.31 34.8689H227.694C226.844 34.8689 226.336 34.0907 226.332 34.0814C226.211 33.923 226.082 33.7645 225.971 33.6014C225.958 33.5828 225.436 32.8652 225.611 32.1242C226.35 29.0207 228.645 17.385 229.606 15.3393C229.68 15.1808 229.772 15.027 229.883 14.8919C229.994 14.7521 230.123 14.6309 230.257 14.5284C230.4 14.4259 230.552 14.3374 230.709 14.2815C230.866 14.2255 231.028 14.1929 231.19 14.1929H233.171L233.314 14.2022L233.457 14.2255C233.582 14.2582 233.697 14.3048 233.799 14.37C233.905 14.4352 233.993 14.5191 234.067 14.617C234.14 14.7102 234.196 14.8173 234.233 14.9385C234.27 15.0503 234.288 15.1762 234.288 15.302L234.279 15.4557L234.251 15.6142L230.737 30.4094H237.174C237.839 27.6228 239.899 17.1799 240.763 15.3439C240.836 15.1855 240.929 15.0317 241.04 14.8966C241.15 14.7568 241.28 14.6356 241.418 14.5331C241.557 14.4306 241.714 14.342 241.871 14.2861C242.028 14.2302 242.189 14.1976 242.351 14.1976L242.356 14.1929ZM220.047 27.0077C220.12 27.441 220.231 28.0095 220.347 28.6293C220.688 30.4234 221.109 32.6462 221.109 33.648C221.109 33.8111 221.076 33.9696 221.021 34.1187C220.961 34.2678 220.878 34.4076 220.767 34.5194C220.661 34.6359 220.527 34.7291 220.384 34.799C220.241 34.8643 220.084 34.9062 219.922 34.9109H217.715C217.539 34.9109 217.373 34.8782 217.216 34.8177C217.054 34.7524 216.911 34.6546 216.786 34.5381C216.662 34.4216 216.56 34.2818 216.486 34.1233C216.417 33.9742 216.371 33.8111 216.361 33.6387L215.29 27.003H212.182L210.594 33.69C210.557 33.8577 210.483 34.0208 210.391 34.1653C210.294 34.3144 210.173 34.4495 210.04 34.5567C209.906 34.6685 209.749 34.7571 209.587 34.8177C209.425 34.8782 209.259 34.9109 209.088 34.9109H207.093C206.909 34.9109 206.747 34.8689 206.604 34.799C206.451 34.7291 206.322 34.6266 206.216 34.5008C206.119 34.3843 206.04 34.2445 205.99 34.0907C205.939 33.9416 205.911 33.7785 205.911 33.6154C205.911 33.2426 206.752 29.5426 207.698 25.5584C208.774 21.029 209.984 16.1221 210.238 15.3532L210.247 15.3299C210.321 15.1715 210.414 15.0224 210.524 14.8826C210.635 14.7428 210.765 14.6216 210.903 14.5191C211.042 14.4166 211.199 14.3281 211.36 14.2721C211.517 14.2162 211.679 14.1836 211.841 14.1836H223.076C223.773 14.1836 224.281 14.7754 224.369 14.8826C224.498 15.0317 224.641 15.2414 224.766 15.4045C224.817 15.4697 224.96 15.6608 225.066 15.9217C225.177 16.192 225.251 16.5462 225.159 16.9283L223.371 24.4494C223.284 24.8268 223.044 25.167 222.817 25.4186C222.6 25.6609 222.388 25.824 222.351 25.852L221.751 26.3366C221.728 26.3553 220.919 26.9983 220.231 26.9983H220.056L220.047 27.0077Z" fill="#EB6E03"/>
</svg>
