<svg width="246" height="49" viewBox="0 0 246 49" fill="none" xmlns="http://www.w3.org/2000/svg">
<path d="M39.2683 11.7914H47.8272V21.9187H38.845V11.7914H39.2683ZM111.088 21.9187H102.432V11.7914H111.511V21.9187H111.088ZM118.135 24.2529V9.45254C118.135 8.38773 117.107 7.47172 117.103 7.47172L116.126 6.49526C116.126 6.49526 115.098 5.4909 114.177 5.4909H97.1568C96.7846 5.4909 96.4451 5.6397 96.2032 5.88614C95.9613 6.12793 95.8078 6.46736 95.8078 6.83935V42.4337C95.8078 42.8056 95.9567 43.1404 96.2032 43.3869C96.4451 43.6287 96.7846 43.7821 97.1568 43.7821H101.087C101.459 43.7821 101.799 43.6333 102.041 43.3915C102.283 43.1497 102.432 42.8103 102.432 42.4383V28.2192H114.177C115.098 28.2192 116.121 27.2195 116.126 27.2148L117.103 26.2384C117.103 26.2384 118.135 25.3177 118.135 24.2575V24.2529ZM23.3973 42.5638L16.6014 24.6342L23.3973 6.7045C23.4345 6.57896 23.4531 6.45341 23.4531 6.33252C23.4531 6.12793 23.3973 5.95123 23.2996 5.81639C23.2019 5.68619 23.0577 5.5839 22.8809 5.53275C22.7833 5.50485 22.6716 5.4909 22.5507 5.4909H18.3085C17.9131 5.4909 17.5038 5.65365 17.1642 5.91868C16.8153 6.18837 16.5409 6.55571 16.4246 6.95559C14.7221 11.7402 12.508 16.762 10.6055 21.5188H6.62845V6.83935C6.62845 6.46736 6.4796 6.12793 6.23307 5.88614C5.99119 5.64435 5.65627 5.49555 5.28415 5.49555H1.3443C0.972172 5.49555 0.63261 5.64435 0.395381 5.88614C0.153501 6.12793 0 6.46736 0 6.83935V42.4337C0 42.8056 0.148849 43.1404 0.39073 43.3869C0.637261 43.6287 0.972172 43.7821 1.3443 43.7821H5.2795C5.65162 43.7821 5.98654 43.6333 6.22842 43.3915C6.47029 43.1451 6.6238 42.8103 6.6238 42.4383V27.8239H10.6241C12.4847 32.4831 14.8198 37.6443 16.4199 42.3174C16.5362 42.7173 16.8153 43.0846 17.1595 43.3543C17.5038 43.6194 17.9131 43.7821 18.3085 43.7821H22.5507C22.6716 43.7821 22.7833 43.7681 22.8809 43.7402C23.0623 43.6891 23.2019 43.5868 23.2996 43.4566C23.3973 43.3218 23.4531 43.1451 23.4531 42.9451C23.4531 42.8289 23.4345 42.7033 23.3973 42.5731V42.5638ZM172.144 14.4464H176.075C176.447 14.4464 176.782 14.2976 177.028 14.0512C177.27 13.8094 177.424 13.47 177.424 13.098V0.320312H170.8V13.098C170.8 13.47 170.949 13.8048 171.195 14.0512C171.437 14.293 171.777 14.4464 172.149 14.4464H172.144ZM168.851 43.7774V5.49555H166.186C165.265 5.49555 164.241 6.49526 164.237 6.49991L163.26 7.47637C163.26 7.47637 162.227 8.39238 162.227 9.45719V39.8205C162.227 40.8853 163.255 41.8013 163.26 41.8013L164.237 42.7731C164.237 42.7731 165.265 43.7774 166.186 43.7774H168.851ZM186.541 25.155V24.0157C186.541 23.9088 186.494 23.8065 186.424 23.7368C186.35 23.6624 186.248 23.6159 186.141 23.6159H185.727V9.45254C185.727 8.38773 184.694 7.47172 184.694 7.47172L183.717 6.49526C183.717 6.49526 182.689 5.4909 181.768 5.4909H179.103V23.6159H178.638C178.531 23.6159 178.429 23.6624 178.359 23.7321C178.284 23.8019 178.242 23.9042 178.242 24.0157V25.155C178.242 25.2665 178.289 25.3688 178.359 25.4432C178.429 25.513 178.531 25.5595 178.638 25.5595H179.103V43.7774H181.768C182.689 43.7774 183.713 42.7777 183.717 42.7731L184.694 41.8013C184.694 41.8013 185.727 40.8853 185.727 39.8205V25.5641H186.145C186.252 25.5641 186.355 25.513 186.429 25.4386C186.499 25.3688 186.545 25.2665 186.545 25.1596L186.541 25.155ZM177.424 35.538C177.424 35.166 177.275 34.8266 177.033 34.5894C176.786 34.3476 176.452 34.1942 176.079 34.1942H172.149C171.777 34.1942 171.442 34.343 171.195 34.5894C170.953 34.8312 170.8 35.1706 170.8 35.5426V48.3203H177.424V35.5426V35.538ZM84.5046 5.49555H66.1728C65.8007 5.49555 65.4658 5.64435 65.2193 5.89079C64.9774 6.13258 64.8239 6.47201 64.8239 6.844V42.4383C64.8239 42.8103 64.9727 43.1451 65.2193 43.3915C65.4612 43.6333 65.8007 43.7867 66.1728 43.7867H84.5046C84.8534 43.7867 85.1697 43.6426 85.4023 43.4148C85.6302 43.1869 85.7744 42.8707 85.7744 42.5173V38.7557C85.7744 38.4069 85.6349 38.0861 85.4023 37.8582C85.1697 37.6304 84.8534 37.4863 84.5046 37.4863H71.4523V27.8239H81.8532C82.2021 27.8239 82.523 27.6798 82.7509 27.452C82.9789 27.2241 83.1231 26.9033 83.1231 26.5545V22.7975C83.1231 22.4488 82.9835 22.1279 82.7509 21.9001C82.523 21.6722 82.2021 21.5281 81.8532 21.5281H71.4523V11.796H84.5046C84.8534 11.796 85.1697 11.6519 85.4023 11.4241C85.6302 11.1962 85.7744 10.88 85.7744 10.5266V6.76495C85.7744 6.41621 85.6302 6.09538 85.4023 5.86754C85.1744 5.6397 84.8534 5.49555 84.5046 5.49555ZM150.342 29.9861H146.5C146.114 29.9861 145.765 30.1396 145.519 30.3906C145.268 30.6417 145.114 30.9905 145.114 31.3764V37.5002H135.216V11.7728H145.114V17.8966C145.114 18.2825 145.268 18.6313 145.519 18.8824C145.77 19.1334 146.119 19.2869 146.505 19.2869H150.347C150.733 19.2869 151.082 19.1334 151.329 18.8824C151.58 18.6313 151.733 18.2825 151.733 17.8966V9.45719C151.733 8.39238 150.705 7.47637 150.701 7.47637L149.724 6.49991C149.724 6.49991 148.701 5.49555 147.775 5.49555H132.55C131.485 5.49555 130.569 6.52316 130.569 6.52781L129.592 7.50892C129.592 7.50892 128.587 8.53188 128.587 9.45719V39.8251C128.587 40.7504 129.587 41.7687 129.592 41.7734L130.569 42.7545C130.569 42.7545 131.485 43.7867 132.55 43.7867H147.775C148.696 43.7867 149.719 42.787 149.724 42.7824L150.701 41.8106C150.701 41.8106 151.733 40.8946 151.733 39.8298V31.3904C151.733 31.0044 151.58 30.6557 151.329 30.4046C151.077 30.1535 150.729 30.0001 150.342 30.0001V29.9861ZM49.3156 43.7774H53.5579C53.6834 43.7774 53.7904 43.7635 53.8881 43.7356C54.0649 43.6845 54.2091 43.5822 54.3068 43.452C54.4044 43.3171 54.4603 43.1404 54.4603 42.9405C54.4603 42.8242 54.4417 42.6987 54.4091 42.5731L48.6226 28.2145H50.5064C51.4274 28.2145 52.4508 27.2148 52.4508 27.2102L53.4323 26.2337C53.4323 26.2337 54.4603 25.313 54.4603 24.2529V9.45254C54.4603 8.38773 53.4323 7.47172 53.4323 7.47172L52.4508 6.49526C52.4508 6.49526 51.4274 5.4909 50.5018 5.4909H33.5748C33.2027 5.4909 32.8678 5.6397 32.6213 5.88614C32.3794 6.12793 32.2259 6.46736 32.2259 6.83935V42.4337C32.2259 42.8056 32.3747 43.1404 32.6213 43.3869C32.8631 43.6287 33.1981 43.7821 33.5748 43.7821H37.51C37.8822 43.7821 38.2171 43.6333 38.459 43.3915C38.7008 43.1497 38.8497 42.8103 38.8497 42.4383V28.2192H41.7476C43.5617 32.7434 45.8782 37.7885 47.4271 42.3221C47.5481 42.7219 47.8225 43.0893 48.1667 43.359C48.5109 43.624 48.9203 43.7867 49.3156 43.7867V43.7774Z" fill="white"/>
<path d="M213.244 22.8572H219.202L220.12 18.9801H214.163L213.244 22.8572ZM195.322 21.5477H199.631C199.945 21.5477 200.231 21.6782 200.434 21.8832C200.642 22.0929 200.771 22.3819 200.771 22.6941V27.0418C200.771 27.3586 200.642 27.6476 200.439 27.8526C200.231 28.0623 199.945 28.1928 199.631 28.1928H195.322C195.008 28.1928 194.722 28.0623 194.519 27.8572C194.311 27.6476 194.182 27.3586 194.182 27.0418V22.6941C194.182 22.3772 194.311 22.0883 194.514 21.8832C194.722 21.6736 195.008 21.5477 195.322 21.5477ZM242.356 14.5113H244.337L244.485 14.5206L244.628 14.5486C244.752 14.5765 244.863 14.6278 244.965 14.6883C245.066 14.7536 245.159 14.8375 245.233 14.9353C245.307 15.0285 245.362 15.1404 245.399 15.2569C245.436 15.3687 245.454 15.4945 245.454 15.6203L245.445 15.7741L245.417 15.9325L241.446 32.6383C241.391 32.876 241.261 33.109 241.109 33.314C240.846 33.6775 240.513 33.9664 240.467 34.0037L239.867 34.4976C239.793 34.5629 239.059 35.1873 238.31 35.1873H227.694C226.844 35.1873 226.336 34.4091 226.332 34.3998C226.211 34.2413 226.082 34.0829 225.971 33.9198C225.958 33.9011 225.436 33.1835 225.611 32.4426C226.35 29.3391 228.645 17.7033 229.606 15.6576C229.68 15.4992 229.772 15.3454 229.883 15.2103C229.994 15.0705 230.123 14.9493 230.257 14.8468C230.4 14.7443 230.552 14.6557 230.709 14.5998C230.866 14.5439 231.028 14.5113 231.19 14.5113H233.171L233.314 14.5206L233.457 14.5439C233.582 14.5765 233.697 14.6231 233.799 14.6883C233.905 14.7536 233.993 14.8375 234.067 14.9353C234.14 15.0285 234.196 15.1357 234.233 15.2569C234.27 15.3687 234.288 15.4945 234.288 15.6203L234.279 15.7741L234.251 15.9325L230.737 30.7278H237.174C237.839 27.9411 239.899 17.4983 240.763 15.6623C240.836 15.5038 240.929 15.3501 241.04 15.2149C241.15 15.0751 241.28 14.954 241.418 14.8514C241.557 14.7489 241.714 14.6604 241.871 14.6045C242.028 14.5486 242.189 14.5159 242.351 14.5159L242.356 14.5113ZM220.047 27.326C220.12 27.7594 220.231 28.3279 220.347 28.9477C220.688 30.7417 221.109 32.9645 221.109 33.9664C221.109 34.1295 221.076 34.2879 221.021 34.437C220.961 34.5862 220.878 34.726 220.767 34.8378C220.661 34.9543 220.527 35.0475 220.384 35.1174C220.241 35.1826 220.084 35.2246 219.922 35.2292H217.715C217.539 35.2292 217.373 35.1966 217.216 35.136C217.054 35.0708 216.911 34.9729 216.786 34.8564C216.662 34.7399 216.56 34.6001 216.486 34.4417C216.417 34.2926 216.371 34.1295 216.361 33.9571L215.29 27.3214H212.182L210.594 34.0083C210.557 34.1761 210.483 34.3392 210.391 34.4836C210.294 34.6328 210.173 34.7679 210.04 34.8751C209.906 34.9869 209.749 35.0754 209.587 35.136C209.425 35.1966 209.259 35.2292 209.088 35.2292H207.093C206.909 35.2292 206.747 35.1873 206.604 35.1174C206.451 35.0475 206.322 34.945 206.216 34.8192C206.119 34.7027 206.04 34.5629 205.99 34.4091C205.939 34.26 205.911 34.0969 205.911 33.9338C205.911 33.561 206.752 29.861 207.698 25.8768C208.774 21.3474 209.984 16.4405 210.238 15.6716L210.247 15.6483C210.321 15.4899 210.414 15.3407 210.524 15.2009C210.635 15.0611 210.765 14.94 210.903 14.8375C211.042 14.7349 211.199 14.6464 211.36 14.5905C211.517 14.5346 211.679 14.502 211.841 14.502H223.076C223.773 14.502 224.281 15.0938 224.369 15.2009C224.498 15.3501 224.641 15.5598 224.766 15.7228C224.817 15.7881 224.96 15.9791 225.066 16.2401C225.177 16.5104 225.251 16.8645 225.159 17.2466L223.371 24.7677C223.284 25.1452 223.044 25.4854 222.817 25.737C222.6 25.9793 222.388 26.1424 222.351 26.1704L221.751 26.655C221.728 26.6736 220.919 27.3167 220.231 27.3167H220.056L220.047 27.326Z" fill="#EB6E03"/>
</svg>
