<svg width="92" height="76" viewBox="0 0 92 76" fill="none" xmlns="http://www.w3.org/2000/svg">
<path d="M78.4671 22.4613C74.4475 19.5264 69.897 17.4983 64.9297 16.8173C52.2734 15.0816 36.32 22.3922 35.5459 36.6191C34.4992 55.8654 60.0812 64.2821 74.5988 55.565L78.4671 53.0886V63.8848C76.819 65.1555 75.1844 66.4461 73.4142 67.5468C56.4625 78.0934 32.5952 77.6555 16.4152 65.7706C-4.3025 50.5527 -3.85878 23.6693 17.0262 8.86142C34.8336 -3.76415 61.7087 -2.824 78.4663 11.2066V22.4621L78.4671 22.4613ZM15.0904 33.1819C15.1475 34.1086 15.3662 38.8204 15.8566 39.2265C16.9168 40.1015 21.3936 39.9862 22.7565 39.7208C31.2577 38.0646 35.3241 27.0396 29.6761 20.3164C22.5901 11.8821 10.3371 15.5227 8.06381 25.9064L8.09709 54.7416C8.22387 54.9602 12.2776 57.028 12.5707 57.0709C12.8813 57.117 12.7712 57.0455 12.7997 56.8428C12.9542 55.7446 12.7561 54.1806 12.7934 53.0044C13.0636 44.3977 12.4313 35.1298 13.0992 26.6661C13.5976 20.3537 22.2605 18.1945 25.8435 23.6987C29.7039 29.6296 23.6606 37.4018 16.9715 34.2794C16.3004 33.9663 15.7845 33.4108 15.0912 33.1803L15.0904 33.1819Z" fill="#3E4041"/>
<path d="M90.8892 28.2305V35.9492L85.3333 36.1031L85.1796 47.9913H72.3729V36.1039L66.0469 35.9492V28.2305H90.8892Z" fill="#3E4041"/>
</svg>
