<svg width="72" height="14" viewBox="0 0 72 14" fill="none" xmlns="http://www.w3.org/2000/svg">
<path d="M12.09 3.34573H14.5863V6.29953H11.9665V3.34573H12.09ZM33.0374 6.29953H30.5126V3.34573H33.1609V6.29953H33.0374ZM35.0928 6.98034V2.66357C35.0928 2.353 34.793 2.08583 34.7916 2.08583L34.5067 1.80103C34.5067 1.80103 34.2069 1.50809 33.9383 1.50809H28.9741C28.8656 1.50809 28.7665 1.55149 28.696 1.62337C28.6254 1.69389 28.5807 1.79289 28.5807 1.90139V12.2831C28.5807 12.3916 28.6241 12.4892 28.696 12.5611C28.7665 12.6316 28.8656 12.6764 28.9741 12.6764H30.1205C30.2291 12.6764 30.3281 12.633 30.3986 12.5624C30.4692 12.4919 30.5126 12.3929 30.5126 12.2844V8.13717H33.9383C34.2069 8.13717 34.5054 7.84559 34.5067 7.84423L34.7916 7.55943C34.7916 7.55943 35.0928 7.2909 35.0928 6.98169V6.98034ZM7.46092 12.321L5.47878 7.09154L7.46092 1.86206C7.47177 1.82544 7.4772 1.78882 7.4772 1.75356C7.4772 1.69389 7.46092 1.64235 7.43243 1.60302C7.40394 1.56505 7.36188 1.53521 7.31032 1.52029C7.28183 1.51216 7.24927 1.50809 7.214 1.50809H5.97669C5.86137 1.50809 5.74198 1.55556 5.64294 1.63286C5.54119 1.71152 5.46114 1.81866 5.42723 1.93529C4.93067 3.33081 4.28488 4.79551 3.72999 6.18289H2.57002V1.90139C2.57002 1.79289 2.5266 1.69389 2.4547 1.62337C2.38415 1.55284 2.28647 1.50944 2.17793 1.50944H1.0288C0.920269 1.50944 0.82123 1.55284 0.752038 1.62337C0.68149 1.69389 0.636719 1.79289 0.636719 1.90139V12.2831C0.636719 12.3916 0.680133 12.4892 0.750682 12.5611C0.822587 12.6316 0.920269 12.6764 1.0288 12.6764H2.17657C2.28511 12.6764 2.38279 12.633 2.45334 12.5624C2.52389 12.4906 2.56866 12.3929 2.56866 12.2844V8.02189H3.73542C4.2781 9.3808 4.95916 10.8862 5.42587 12.2492C5.45979 12.3658 5.54119 12.4729 5.64158 12.5516C5.74198 12.6289 5.86137 12.6764 5.97669 12.6764H7.214C7.24927 12.6764 7.28183 12.6723 7.31032 12.6641C7.36324 12.6492 7.40394 12.6194 7.43243 12.5814C7.46092 12.5421 7.4772 12.4906 7.4772 12.4322C7.4772 12.3983 7.47177 12.3617 7.46092 12.3237V12.321ZM50.8455 4.12012H51.9919C52.1004 4.12012 52.1981 4.07672 52.27 4.00484C52.3405 3.93432 52.3853 3.83532 52.3853 3.72682V0H50.4534V3.72682C50.4534 3.83532 50.4968 3.93297 50.5687 4.00484C50.6392 4.07537 50.7383 4.12012 50.8468 4.12012H50.8455ZM49.8849 12.675V1.50944H49.1075C48.8389 1.50944 48.5404 1.80103 48.5391 1.80238L48.2542 2.08718C48.2542 2.08718 47.953 2.35435 47.953 2.66492V11.5209C47.953 11.8314 48.2528 12.0986 48.2542 12.0986L48.5391 12.3821C48.5391 12.3821 48.8389 12.675 49.1075 12.675H49.8849ZM55.0444 7.24344V6.91117C55.0444 6.87998 55.0309 6.85014 55.0105 6.8298C54.9888 6.8081 54.959 6.79454 54.9278 6.79454H54.807V2.66357C54.807 2.353 54.5058 2.08583 54.5058 2.08583L54.2209 1.80103C54.2209 1.80103 53.9211 1.50809 53.6525 1.50809H52.8751V6.79454H52.7394C52.7082 6.79454 52.6784 6.8081 52.658 6.82844C52.6363 6.84878 52.6241 6.87862 52.6241 6.91117V7.24344C52.6241 7.27599 52.6377 7.30582 52.658 7.32752C52.6784 7.34786 52.7082 7.36143 52.7394 7.36143H52.8751V12.675H53.6525C53.9211 12.675 54.2196 12.3834 54.2209 12.3821L54.5058 12.0986C54.5058 12.0986 54.807 11.8314 54.807 11.5209V7.36278H54.9291C54.9603 7.36278 54.9902 7.34786 55.0119 7.32617C55.0322 7.30582 55.0458 7.27599 55.0458 7.24479L55.0444 7.24344ZM52.3853 10.2718C52.3853 10.1633 52.3419 10.0643 52.2714 9.99516C52.1994 9.92463 52.1018 9.87988 51.9932 9.87988H50.8468C50.7383 9.87988 50.6406 9.92328 50.5687 9.99516C50.4981 10.0657 50.4534 10.1647 50.4534 10.2732V14H52.3853V10.2732V10.2718ZM25.2839 1.50944H19.9371C19.8286 1.50944 19.7309 1.55284 19.659 1.62472C19.5885 1.69524 19.5437 1.79425 19.5437 1.90274V12.2844C19.5437 12.3929 19.5871 12.4906 19.659 12.5624C19.7296 12.633 19.8286 12.6777 19.9371 12.6777H25.2839C25.3856 12.6777 25.4779 12.6357 25.5457 12.5692C25.6122 12.5028 25.6543 12.4105 25.6543 12.3075V11.2103C25.6543 11.1086 25.6136 11.015 25.5457 10.9486C25.4779 10.8821 25.3856 10.8401 25.2839 10.8401H21.477V8.02189H24.5106C24.6123 8.02189 24.7059 7.97985 24.7724 7.9134C24.8389 7.84694 24.8809 7.75337 24.8809 7.65165V6.55585C24.8809 6.45413 24.8402 6.36055 24.7724 6.2941C24.7059 6.22765 24.6123 6.18561 24.5106 6.18561H21.477V3.34709H25.2839C25.3856 3.34709 25.4779 3.30505 25.5457 3.23859C25.6122 3.17214 25.6543 3.07992 25.6543 2.97685V1.87969C25.6543 1.77797 25.6122 1.68439 25.5457 1.61794C25.4792 1.55149 25.3856 1.50944 25.2839 1.50944ZM44.4866 8.65252H43.366C43.2534 8.65252 43.1516 8.69728 43.0797 8.77051C43.0065 8.84375 42.9617 8.94546 42.9617 9.05803V10.8441H40.0746V3.34031H42.9617V5.12642C42.9617 5.23898 43.0065 5.3407 43.0797 5.41393C43.153 5.48716 43.2547 5.53192 43.3673 5.53192H44.488C44.6006 5.53192 44.7023 5.48716 44.7742 5.41393C44.8475 5.3407 44.8923 5.23898 44.8923 5.12642V2.66492C44.8923 2.35435 44.5924 2.08718 44.5911 2.08718L44.3062 1.80238C44.3062 1.80238 44.0077 1.50944 43.7377 1.50944H39.2972C38.9865 1.50944 38.7193 1.80916 38.7193 1.81052L38.4344 2.09668C38.4344 2.09668 38.1413 2.39504 38.1413 2.66492V11.5222C38.1413 11.7921 38.433 12.0891 38.4344 12.0905L38.7193 12.3766C38.7193 12.3766 38.9865 12.6777 39.2972 12.6777H43.7377C44.0063 12.6777 44.3048 12.3861 44.3062 12.3848L44.5911 12.1013C44.5911 12.1013 44.8923 11.8342 44.8923 11.5236V9.06209C44.8923 8.94953 44.8475 8.84782 44.7742 8.77458C44.701 8.70135 44.5992 8.65659 44.4866 8.65659V8.65252ZM15.0204 12.675H16.2578C16.2944 12.675 16.3256 12.6709 16.3541 12.6628C16.4056 12.6479 16.4477 12.618 16.4762 12.5801C16.5047 12.5407 16.521 12.4892 16.521 12.4309C16.521 12.397 16.5155 12.3604 16.506 12.3237L14.8183 8.13581H15.3678C15.6364 8.13581 15.9349 7.84423 15.9349 7.84288L16.2211 7.55807C16.2211 7.55807 16.521 7.28955 16.521 6.98034V2.66357C16.521 2.353 16.2211 2.08583 16.2211 2.08583L15.9349 1.80103C15.9349 1.80103 15.6364 1.50809 15.3664 1.50809H10.4294C10.3208 1.50809 10.2232 1.55149 10.1513 1.62337C10.0807 1.69389 10.0359 1.79289 10.0359 1.90139V12.2831C10.0359 12.3916 10.0793 12.4892 10.1513 12.5611C10.2218 12.6316 10.3195 12.6764 10.4294 12.6764H11.5771C11.6857 12.6764 11.7834 12.633 11.8539 12.5624C11.9245 12.4919 11.9679 12.3929 11.9679 12.2844V8.13717H12.8131C13.3422 9.45675 14.0178 10.9282 14.4696 12.2505C14.5049 12.3671 14.5849 12.4743 14.6853 12.5529C14.7857 12.6302 14.9051 12.6777 15.0204 12.6777V12.675Z" fill="#3E4041"/>
<path d="M62.6068 6.4135H64.3443L64.6124 5.2827H62.8749L62.6068 6.4135ZM57.3796 6.03158H58.6362C58.7278 6.03158 58.8113 6.06964 58.8706 6.12944C58.9312 6.1906 58.9689 6.27487 58.9689 6.36593V7.63401C58.9689 7.72643 58.9312 7.8107 58.8719 7.8705C58.8113 7.93166 58.7278 7.96972 58.6362 7.96972H57.3796C57.288 7.96972 57.2045 7.93166 57.1452 7.87186C57.0846 7.8107 57.0469 7.72643 57.0469 7.63401V6.36593C57.0469 6.27351 57.0846 6.18924 57.1439 6.12944C57.2045 6.06828 57.288 6.03158 57.3796 6.03158ZM71.0977 3.97928H71.6755L71.7186 3.982L71.7603 3.99015C71.7967 3.99831 71.829 4.01326 71.8587 4.03093C71.8883 4.04996 71.9152 4.07442 71.9368 4.10296C71.9583 4.13015 71.9745 4.16276 71.9853 4.19674C71.996 4.22936 72.0014 4.26606 72.0014 4.30276L71.9987 4.34761L71.9906 4.39382L70.8323 9.26633C70.8162 9.33565 70.7784 9.40361 70.734 9.46341C70.6572 9.56942 70.5602 9.65369 70.5468 9.66456L70.3717 9.80863C70.3501 9.82766 70.136 10.0098 69.9178 10.0098H66.8213C66.5734 10.0098 66.4253 9.78281 66.4239 9.78009C66.3889 9.73388 66.3512 9.68767 66.3189 9.6401C66.3148 9.63466 66.1626 9.42535 66.2138 9.20925C66.4293 8.30406 67.0987 4.91029 67.3789 4.31363C67.4004 4.26742 67.4274 4.22257 67.4597 4.18315C67.492 4.14238 67.5297 4.10704 67.5688 4.07714C67.6105 4.04724 67.655 4.02141 67.7008 4.0051C67.7466 3.98879 67.7937 3.97928 67.8409 3.97928H68.4187L68.4604 3.982L68.5022 3.98879C68.5386 3.99831 68.5722 4.0119 68.6019 4.03093C68.6328 4.04996 68.6584 4.07442 68.68 4.10296C68.7015 4.13015 68.7177 4.16141 68.7285 4.19674C68.7392 4.22936 68.7446 4.26606 68.7446 4.30276L68.7419 4.34761L68.7339 4.39382L67.7089 8.70909H69.5864C69.7804 7.89632 70.3811 4.85049 70.633 4.31499C70.6545 4.26878 70.6815 4.22393 70.7138 4.18451C70.7461 4.14374 70.7838 4.1084 70.8242 4.0785C70.8646 4.0486 70.9104 4.02277 70.9562 4.00646C71.002 3.99015 71.0492 3.98064 71.0963 3.98064L71.0977 3.97928ZM64.5908 7.71692C64.6124 7.84332 64.6447 8.00913 64.6784 8.1899C64.778 8.71316 64.9006 9.36148 64.9006 9.65369C64.9006 9.70126 64.8912 9.74747 64.875 9.79096C64.8575 9.83446 64.8333 9.87523 64.8009 9.90785C64.77 9.94183 64.7309 9.96901 64.6891 9.9894C64.6474 10.0084 64.6016 10.0207 64.5545 10.022H63.9106C63.8595 10.022 63.811 10.0125 63.7652 9.99483C63.718 9.97581 63.6763 9.94726 63.6399 9.91329C63.6035 9.87931 63.5739 9.83853 63.5524 9.79232C63.5322 9.74883 63.5187 9.70126 63.516 9.65097L63.2035 7.71556H62.2971L61.8337 9.66592C61.823 9.71485 61.8014 9.76242 61.7745 9.80455C61.7462 9.84805 61.7112 9.88746 61.6721 9.91872C61.633 9.95134 61.5873 9.97716 61.5401 9.99483C61.493 10.0125 61.4445 10.022 61.3946 10.022H60.8128C60.7589 10.022 60.7118 10.0098 60.67 9.9894C60.6256 9.96901 60.5879 9.93911 60.5569 9.90241C60.5286 9.86843 60.5057 9.82766 60.4909 9.78281C60.4761 9.73932 60.468 9.69175 60.468 9.64418C60.468 9.53545 60.7131 8.45629 60.9892 7.29422C61.3031 5.97314 61.6559 4.54196 61.73 4.31771L61.7327 4.31091C61.7543 4.2647 61.7812 4.22121 61.8135 4.18043C61.8459 4.13966 61.8836 4.10432 61.924 4.07442C61.9644 4.04452 62.0102 4.0187 62.0573 4.00239C62.1031 3.98608 62.1503 3.97656 62.1974 3.97656H65.4744C65.6778 3.97656 65.8259 4.14917 65.8515 4.18043C65.8892 4.22393 65.931 4.28509 65.9673 4.33266C65.9822 4.35169 66.0239 4.40741 66.0549 4.48352C66.0872 4.56235 66.1088 4.66565 66.0818 4.7771L65.5606 6.97075C65.535 7.08084 65.465 7.18005 65.399 7.25345C65.3357 7.32412 65.2737 7.37169 65.2629 7.37985L65.0878 7.5212C65.0811 7.52664 64.8454 7.7142 64.6447 7.7142H64.5935L64.5908 7.71692Z" fill="#EB6E03"/>
</svg>
