<svg width="20" height="20" viewBox="0 0 20 20" fill="none" xmlns="http://www.w3.org/2000/svg">
<path d="M0 20L1.41254 14.8641C0.540902 13.3608 0.0828939 11.6567 0.083731 9.90917C0.0862429 4.44583 4.55329 0 10.0419 0C12.7053 0.000833331 15.2056 1.03333 17.0862 2.90667C18.9659 4.78 20.0008 7.27 20 9.91835C19.9975 15.3825 15.5304 19.8283 10.0419 19.8283C8.37559 19.8275 6.73364 19.4117 5.27924 18.6217L0 20ZM5.52374 16.8275C6.92707 17.6567 8.26673 18.1533 10.0385 18.1541C14.6002 18.1541 18.3161 14.4592 18.3187 9.91669C18.3204 5.365 14.622 1.675 10.0452 1.67333C5.48019 1.67333 1.76673 5.36833 1.76505 9.91C1.76421 11.7641 2.31014 13.1525 3.227 14.605L2.39052 17.645L5.52374 16.8275ZM15.0582 12.2741C14.9962 12.1708 14.8305 12.1092 14.5809 11.985C14.3322 11.8608 13.1089 11.2617 12.8803 11.1792C12.6526 11.0967 12.4868 11.055 12.3202 11.3033C12.1544 11.5508 11.6771 12.1092 11.5322 12.2741C11.3874 12.4392 11.2417 12.46 10.9931 12.3359C10.7444 12.2117 9.94221 11.9508 8.9919 11.1067C8.25252 10.45 7.75263 9.63917 7.60781 9.39083C7.46298 9.14331 7.5927 9.00917 7.71667 8.88586C7.82886 8.77503 7.9653 8.59669 8.0901 8.45166C8.21649 8.30834 8.25758 8.20503 8.34129 8.03917C8.42417 7.87414 8.38314 7.72917 8.32036 7.60503C8.25758 7.48166 7.76018 6.2625 7.55341 5.76667C7.35072 5.28417 7.14561 5.34917 6.99323 5.34167L6.51595 5.33333C6.35016 5.33333 6.08055 5.395 5.8528 5.64333C5.62505 5.89167 4.982 6.49 4.982 7.70917C4.982 8.92834 5.87373 10.1059 5.99765 10.2708C6.12241 10.4359 7.7518 12.9375 10.2479 14.01C10.8415 14.265 11.3054 14.4175 11.6663 14.5317C12.2624 14.72 12.805 14.6933 13.2337 14.63C13.7118 14.5592 14.7057 14.0308 14.9133 13.4525C15.121 12.8733 15.121 12.3775 15.0582 12.2741Z" fill="#10C44D"/>
</svg>
