<svg aria-hidden="true" xmlns="http://www.w3.org/2000/svg" xmlns:xlink="http://www.w3.org/1999/xlink"><symbol viewBox="0 0 20 20" fill="none" id="icon-burger" xmlns="http://www.w3.org/2000/svg">
<path d="M20 2H-3.27826e-07" stroke="currentColor" stroke-width="3"/>
<path d="M20 10H0" stroke="currentColor" stroke-width="3"/>
<path d="M20 18H0" stroke="currentColor" stroke-width="3"/>
</symbol><symbol viewBox="0 0 29 25" fill="none" id="icon-cart" xmlns="http://www.w3.org/2000/svg">
<path d="M11.4453 19.3076C12.9918 19.3012 14.2512 20.5465 14.2607 22.0928C14.2703 23.6352 13.0286 24.8867 11.4717 24.8994C9.91062 24.9119 8.63818 23.656 8.63867 22.1055C8.63941 20.5664 9.89421 19.3142 11.4453 19.3076ZM21.5938 19.3076C23.0472 19.3146 24.2458 20.4178 24.3906 21.8203L24.4053 22.1055C24.405 23.6417 23.1471 24.8935 21.5938 24.8994C20.0408 24.9053 18.7841 23.6635 18.7773 22.1191C18.7707 20.5641 20.0369 19.3003 21.5938 19.3076ZM11.4473 20.9277C10.7928 20.9295 10.2612 21.4649 10.2686 22.1172C10.2761 22.7751 10.808 23.2884 11.4697 23.2793C12.1187 23.2702 12.6291 22.7576 12.6318 22.1104C12.6343 21.4545 12.1045 20.9252 11.4473 20.9277ZM21.5889 20.9287C20.9309 20.9263 20.4049 21.4518 20.4072 22.1104C20.4089 22.7722 20.9338 23.2851 21.5986 23.2793C22.2427 23.2735 22.7659 22.7571 22.7744 22.1172C22.7828 21.4714 22.2411 20.9312 21.5889 20.9287ZM0.203125 0.688477C0.453795 0.156807 1.05256 -0.0524131 1.64844 0.217773C2.45322 0.582337 3.25661 0.950177 4.05469 1.32812C4.8807 1.7191 5.39754 2.36596 5.60156 3.25098C6.58074 7.49564 7.55391 11.7418 8.5293 15.9873C8.59458 16.272 8.68321 16.4805 8.85059 16.6123C9.01774 16.7438 9.24417 16.7832 9.54297 16.7832H23.5244C23.8219 16.7832 24.0471 16.7472 24.2139 16.6172C24.3811 16.4866 24.4693 16.2771 24.5371 15.9873C25.2864 12.788 26.035 9.58781 26.7812 6.3877C26.86 6.0504 26.8288 5.76485 26.6611 5.56348C26.4945 5.36358 26.2153 5.27344 25.8613 5.27344C20.362 5.27344 13.8628 5.27398 8.36426 5.27246C8.2255 5.27246 8.09365 5.27439 7.96973 5.25879L7.84863 5.23633L7.75586 5.20898C7.30684 5.05553 7.03715 4.62179 7.08398 4.11914C7.12609 3.661 7.48128 3.293 7.95996 3.21289L8.05762 3.20117C8.14691 3.19402 8.23427 3.19726 8.33496 3.19727H25.9473C27.5501 3.19812 28.7783 4.26406 28.8936 5.84082C28.9342 6.39941 28.7764 6.9856 28.6426 7.57031C27.9545 10.5694 27.2472 13.5648 26.543 16.5605C26.2077 17.986 25.1054 18.8567 23.6338 18.8574C18.8969 18.8597 14.1607 18.8597 9.42383 18.8574C7.9793 18.8574 6.86546 17.9987 6.54102 16.6045C5.56189 12.3988 4.59426 8.19078 3.63574 3.98047C3.58758 3.76866 3.51564 3.58605 3.39844 3.43359C3.28056 3.28032 3.1219 3.16349 2.91016 3.0752C2.19327 2.77694 1.49729 2.43255 0.788086 2.10156C0.178289 1.81685 -0.0516713 1.22765 0.203125 0.688477ZM18.9814 9.98828C19.5246 9.99249 19.9275 10.3385 20.0166 10.8057C20.1095 11.29 19.8877 11.7562 19.4561 11.9443C19.2873 12.0179 19.0828 12.0501 18.8867 12.0537C18.1276 12.0664 17.3691 12.0588 16.6084 12.0586L16.6025 12.0547H16.5732C15.7527 12.0547 14.935 12.0652 14.1182 12.0508C13.6374 12.0424 13.2566 11.7332 13.1377 11.3008C13.0166 10.8589 13.1922 10.3811 13.585 10.1582C13.7563 10.0612 13.9675 9.99356 14.1553 9.99219C15.764 9.97776 17.3728 9.97613 18.9814 9.98828Z" fill="currentColor" stroke="currentColor" stroke-width="0.2"/>
</symbol><symbol viewBox="0 0 20 20" fill="none" id="icon-close" xmlns="http://www.w3.org/2000/svg">
<path d="M19 1L1 19M19 19L1 1" stroke="currentColor" stroke-width="2" stroke-linecap="round" stroke-linejoin="round"/>
</symbol><symbol viewBox="0 0 10 11" fill="none" id="icon-down" xmlns="http://www.w3.org/2000/svg">
<path d="M8.125 4.25L5 7.375L1.875 4.25" stroke="currentColor" stroke-width="1.5" stroke-linecap="round" stroke-linejoin="round"/>
</symbol><symbol viewBox="0 0 17 23" fill="none" id="icon-location" xmlns="http://www.w3.org/2000/svg">
<g clip-path="url(#eclip0_718_20626)">
<g clip-path="url(#eclip1_718_20626)">
<path d="M8.118 0C3.64 0 0 3.781 0 8.43C0 10.565 1.296 13.581 3.851 17.396C5.719 20.184 7.556 22.342 7.633 22.433L8.118 23L8.602 22.433C9.9502 20.8215 11.2126 19.1402 12.384 17.396C14.94 13.581 16.235 10.564 16.235 8.429C16.235 3.781 12.594 0 8.118 0ZM11.328 16.617C10.3229 18.1096 9.25187 19.5567 8.118 20.954C6.9863 19.5603 5.91724 18.1169 4.914 16.628C2.546 13.094 1.294 10.258 1.294 8.429C1.294 4.523 4.356 1.345 8.118 1.345C11.88 1.345 14.94 4.523 14.94 8.429C14.94 10.257 13.691 13.088 11.328 16.617ZM8.118 3.115C5.476 3.115 3.327 5.347 3.327 8.09C3.327 10.834 5.476 13.065 8.117 13.065C10.759 13.065 12.909 10.834 12.909 8.09C12.909 5.347 10.759 3.115 8.118 3.115ZM8.118 11.721C6.19 11.721 4.622 10.092 4.622 8.091C4.622 6.089 6.19 4.461 8.118 4.461C10.045 4.461 11.614 6.089 11.614 8.091C11.614 10.092 10.045 11.721 8.118 11.721Z" fill="currentColor"/>
</g>
</g>
<defs>
<clipPath id="eclip0_718_20626">
<rect width="17" height="23" fill="currentColor"/>
</clipPath>
<clipPath id="eclip1_718_20626">
<rect width="17" height="23" fill="currentColor"/>
</clipPath>
</defs>
</symbol><symbol viewBox="0 0 20 21" fill="none" id="icon-mail" xmlns="http://www.w3.org/2000/svg">
<g clip-path="url(#fclip0_718_20647)">
<path d="M18.0593 3.83203H1.94067C0.875664 3.83203 0 4.69545 0 5.7727V15.2284C0 16.2942 0.866943 17.169 1.94067 17.169H18.0593C19.1337 17.169 20 16.2934 20 15.2284V5.7727C20 4.69445 19.1235 3.83203 18.0593 3.83203ZM17.6813 4.89051L10 9.86974L2.31888 4.89051H17.6813ZM1.05855 5.7727C1.05855 5.63882 1.08884 5.50893 1.14529 5.39136L5.95023 8.50608L1.05855 15.0481V5.7727ZM18.0593 16.1105H1.94067C1.83095 16.1105 1.72623 16.0894 1.62916 16.0526L6.84047 9.08315L9.71213 10.9447C9.88735 11.0582 10.1128 11.0581 10.288 10.9447L13.1596 9.08315L18.3709 16.0526C18.2738 16.0895 18.1691 16.1105 18.0593 16.1105ZM18.9415 15.0481L14.0498 8.50608L18.8547 5.39136C18.9112 5.50893 18.9415 5.63882 18.9415 5.7727V15.0481Z" fill="currentColor"/>
</g>
<defs>
<clipPath id="fclip0_718_20647">
<rect width="20" height="20" fill="currentColor" transform="translate(0 0.5)"/>
</clipPath>
</defs>
</symbol><symbol viewBox="0 0 19 20" fill="none" id="icon-search" xmlns="http://www.w3.org/2000/svg">
<g clip-path="url(#gclip0_4001_2661)">
<g clip-path="url(#gclip1_4001_2661)">
<path d="M7.49942 0C6.40724 0.000553102 5.33016 0.255066 4.35325 0.743433C3.37635 1.2318 2.52639 1.94064 1.87052 2.81396C1.21465 3.68727 0.77084 4.70114 0.574152 5.77545C0.377463 6.84977 0.433285 7.95511 0.737206 9.00414C1.04113 10.0532 1.58482 11.0172 2.32534 11.82C3.06585 12.6228 3.9829 13.2424 5.00404 13.6298C6.02517 14.0173 7.12242 14.162 8.20909 14.0525C9.29576 13.943 10.3421 13.5824 11.2654 12.999C11.2854 13.025 11.3084 13.051 11.3324 13.075L17.1394 18.882C17.211 18.9536 17.296 19.0103 17.3895 19.0491C17.483 19.0878 17.5832 19.1077 17.6844 19.1077C17.7856 19.1077 17.8859 19.0878 17.9794 19.0491C18.0729 19.0103 18.1578 18.9536 18.2294 18.882C18.301 18.8104 18.3578 18.7255 18.3965 18.632C18.4352 18.5384 18.4552 18.4382 18.4552 18.337C18.4552 18.2358 18.4352 18.1356 18.3965 18.042C18.3578 17.9485 18.301 17.8636 18.2294 17.792L12.4724 12.034C13.4597 11.0496 14.1328 9.79449 14.4063 8.42742C14.6799 7.06036 14.5417 5.64286 14.0093 4.35437C13.4768 3.06589 12.574 1.96436 11.4152 1.18923C10.2563 0.414096 8.89359 0.000222305 7.49942 0ZM1.99742 7.044C1.99755 6.32134 2.14002 5.60577 2.41669 4.93817C2.69336 4.27056 3.09882 3.66399 3.60992 3.15308C4.12101 2.64218 4.72773 2.23694 5.39543 1.96051C6.06314 1.68408 6.77875 1.54187 7.50142 1.542C8.22408 1.54213 8.93964 1.6846 9.60725 1.96127C10.2749 2.23795 10.8814 2.6434 11.3923 3.1545C11.9032 3.66559 12.3085 4.27231 12.5849 4.94002C12.8613 5.60772 13.0035 6.32334 13.0034 7.046C13.0032 8.50549 12.4231 9.90509 11.3909 10.9369C10.3587 11.9687 8.9589 12.5483 7.49942 12.548C6.03993 12.5477 4.64033 11.9677 3.6085 10.9355C2.57668 9.9033 1.99715 8.50349 1.99742 7.044Z" fill="currentColor"/>
</g>
</g>
<defs>
<clipPath id="gclip0_4001_2661">
<rect width="18" height="20" fill="currentColor" transform="translate(0.455078)"/>
</clipPath>
<clipPath id="gclip1_4001_2661">
<rect width="18" height="20" fill="currentColor" transform="translate(0.455078)"/>
</clipPath>
</defs>
</symbol><symbol viewBox="0 0 26 26" fill="none" id="icon-tel" xmlns="http://www.w3.org/2000/svg">
<path d="M3.5 2.43359C4.40557 1.63056 5.72957 1.64013 6.64844 2.4209L7.01172 2.74316C7.36839 3.07161 7.70834 3.41829 8.04688 3.75879C8.74468 4.46053 9.4612 5.15592 10.1211 5.90039H10.1221C10.9423 6.82517 10.9179 8.16152 10.0918 9.08301C9.50889 9.73282 8.88265 10.3465 8.24609 11.0049C8.43483 11.3432 8.61227 11.7005 8.83691 12.0342C10.1803 14.0322 11.8567 15.6993 13.8721 17.0176C13.9992 17.1006 14.1347 17.1728 14.2754 17.2451C14.415 17.3169 14.5608 17.3896 14.7002 17.4727L14.7578 17.498C14.7707 17.5011 14.7784 17.5001 14.7832 17.499C14.7983 17.4956 14.8221 17.4826 14.8672 17.4375L15.7021 16.5977C15.9826 16.3181 16.267 16.0417 16.5615 15.7773C17.101 15.2933 17.6949 15.0432 18.291 15.0449C18.8873 15.0468 19.4732 15.3005 19.9971 15.8008C21.1153 16.8689 22.2022 17.9734 23.2588 19.1025C24.0952 19.9962 24.0805 21.3573 23.2969 22.293C23.0177 22.6261 22.7053 22.9327 22.4062 23.2383C21.9429 23.7121 21.4841 24.2072 20.9883 24.6572C20.4874 25.1116 19.8921 25.3813 19.2412 25.5068L18.959 25.5527C18.948 25.5541 18.9344 25.5576 18.9141 25.5654C18.8977 25.5717 18.8671 25.5853 18.8418 25.5938L18.8262 25.5986H17.7275L17.7188 25.5967C17.4648 25.5524 17.2129 25.5072 16.96 25.4658C15.6277 25.2468 14.3923 24.75 13.1973 24.167C10.4309 22.8175 7.9954 21.0117 5.90625 18.7539C3.8141 16.4926 2.07636 13.9896 0.977539 11.0781C0.584248 10.0353 0.285999 8.96571 0.226562 7.83691C0.158872 6.55548 0.481851 5.40111 1.4209 4.4668C2.10392 3.78706 2.77435 3.07722 3.5 2.43359ZM4.91992 3.5C4.73568 3.54381 4.542 3.66041 4.33789 3.86133C3.80304 4.38768 3.27585 4.94221 2.72852 5.46387C2.11909 6.04449 1.82576 6.73242 1.86523 7.44434L1.81543 7.44727H1.86523C1.86134 8.50717 2.11748 9.39843 2.43359 10.2832C3.28569 12.664 4.63749 14.7526 6.25586 16.6816C8.36426 19.1956 10.8781 21.2016 13.8242 22.6553C15.1655 23.3167 16.5375 23.8542 18.0352 23.9648C18.7506 24.0178 19.4193 23.8987 19.9355 23.4121C20.6481 22.7396 21.3287 22.0302 21.9961 21.3096C22.1763 21.1148 22.2542 20.9068 22.248 20.7031C22.2418 20.4982 22.1496 20.2855 21.9688 20.083C21.7822 19.8737 21.5811 19.6778 21.3779 19.4746H21.377C20.5544 18.6514 19.736 17.8257 18.9082 17.0098C18.6922 16.797 18.4791 16.7006 18.2734 16.6982C18.0671 16.696 17.8488 16.7885 17.6211 16.9922L17.6201 16.9912C17.5502 17.0541 17.4847 17.1218 17.415 17.1914C16.857 17.7482 16.3006 18.3096 15.7383 18.8633C15.5287 19.0694 15.2968 19.198 15.0479 19.2393C14.7988 19.2805 14.5418 19.2329 14.2852 19.1035C13.9445 18.9322 13.6011 18.7568 13.2705 18.5605C11.7651 17.6675 10.4631 16.5273 9.28809 15.2451C8.266 14.1298 7.33273 12.9407 6.70508 11.5352C6.55227 11.1928 6.48807 10.9045 6.54199 10.6299C6.59597 10.3554 6.76426 10.1118 7.03418 9.85059C7.62979 9.27342 8.22384 8.69629 8.79688 8.09961C9.0001 7.88797 9.08968 7.6865 9.0918 7.49219C9.09379 7.29691 9.00783 7.08883 8.81934 6.8623L8.66309 6.6875C7.7155 5.73728 6.76829 4.7858 5.81641 3.83984C5.71403 3.73814 5.59624 3.6469 5.47266 3.58203C5.28389 3.48271 5.10157 3.45688 4.91992 3.5Z" fill="currentColor" stroke="currentColor" stroke-width="0.2"/>
<path d="M13.5977 0.608398C13.7861 0.438453 14.0554 0.362579 14.3477 0.417969C17.0004 0.918188 19.3259 2.06683 21.2939 3.92871C23.2351 5.76435 24.5248 7.98029 25.1797 10.5674L25.3457 11.2754C25.3831 11.4401 25.4032 11.609 25.4033 11.7783V11.7891C25.4032 11.7952 25.403 11.804 25.4023 11.8145C25.4011 11.8353 25.3976 11.8642 25.3916 11.8984C25.3796 11.9663 25.355 12.0582 25.3008 12.1484C25.246 12.2396 25.1618 12.3284 25.0352 12.3887C24.9089 12.4487 24.7469 12.4769 24.541 12.457V12.4561C24.3326 12.4371 24.1528 12.3647 24.0146 12.2314C23.8771 12.0986 23.7887 11.9134 23.7471 11.6855C23.4856 10.2539 22.9922 8.90912 22.2393 7.66504C21.2705 6.06412 20.004 4.75737 18.4414 3.75L18.125 3.55273C16.8942 2.80995 15.5709 2.30954 14.1553 2.05273H14.1543C13.9182 2.00971 13.7264 1.92668 13.5869 1.80371C13.4456 1.67911 13.3633 1.5172 13.3418 1.3291C13.3085 1.03624 13.409 0.778544 13.5977 0.608398Z" fill="currentColor" stroke="currentColor" stroke-width="0.2"/>
<path d="M13.9541 4.94727C14.5454 4.94738 15.324 5.23109 15.9258 5.49707H15.9268C18.4166 6.59918 20.0217 8.48482 20.7266 11.1201C20.7857 11.3408 20.8383 11.5725 20.8555 11.8066C20.8828 12.1729 20.6642 12.497 20.3486 12.6172L20.208 12.6562C19.7912 12.7282 19.4038 12.5098 19.2754 12.0967C19.2001 11.8545 19.14 11.6044 19.0771 11.3643C19.0137 11.1218 18.9465 10.8859 18.8525 10.6631C17.9365 8.48917 16.33 7.12605 14.0215 6.60156C13.9799 6.5921 13.938 6.58398 13.8936 6.5752C13.8498 6.56653 13.8036 6.55743 13.7578 6.5459H13.7568C13.3304 6.43684 13.0835 6.06585 13.1406 5.62793C13.1427 5.61238 13.1453 5.59712 13.1475 5.58203C13.2062 5.17976 13.5738 4.94727 13.9541 4.94727Z" fill="currentColor" stroke="currentColor" stroke-width="0.2"/>
</symbol></svg>