<svg aria-hidden="true" xmlns="http://www.w3.org/2000/svg" xmlns:xlink="http://www.w3.org/1999/xlink"><symbol viewBox="0 0 12 12" fill="none" id="icon-arrow-next" xmlns="http://www.w3.org/2000/svg">
<path d="M1.10742 5.25C0.693208 5.25 0.357422 5.58579 0.357422 6C0.357422 6.41421 0.693208 6.75 1.10742 6.75L1.10742 5.25ZM11.6378 6.53033C11.9306 6.23744 11.9306 5.76256 11.6378 5.46967L6.86478 0.696699C6.57189 0.403806 6.09701 0.403806 5.80412 0.696699C5.51123 0.989593 5.51123 1.46447 5.80412 1.75736L10.0468 6L5.80412 10.2426C5.51123 10.5355 5.51123 11.0104 5.80412 11.3033C6.09701 11.5962 6.57189 11.5962 6.86478 11.3033L11.6378 6.53033ZM1.10742 6L1.10742 6.75L11.1074 6.75L11.1074 6L11.1074 5.25L1.10742 5.25L1.10742 6Z" fill="currentColor"/>
</symbol><symbol viewBox="0 0 23 9" fill="none" id="icon-arrow-next-b" xmlns="http://www.w3.org/2000/svg">
<g clip-path="url(#aaclip0_4279_21655)">
<path d="M0.999218 3.9251C0.681618 3.9251 0.424217 4.18254 0.424217 4.5001C0.424217 4.81766 0.681618 5.0751 0.999218 5.0751V4.5001V3.9251ZM22.4058 4.90669C22.6304 4.68214 22.6304 4.31807 22.4058 4.09352L18.7465 0.434237C18.522 0.209687 18.1579 0.209687 17.9334 0.434237C17.7088 0.658787 17.7088 1.02286 17.9334 1.24741L21.186 4.5001L17.9334 7.75279C17.7088 7.97734 17.7088 8.34141 17.9334 8.56596C18.1579 8.79051 18.522 8.79051 18.7465 8.56596L22.4058 4.90669ZM0.999218 4.5001V5.0751L21.9992 5.0751V4.5001V3.9251L0.999218 3.9251V4.5001Z" fill="currentColor"/>
</g>
<defs>
<clipPath id="aaclip0_4279_21655">
<rect width="23" height="9" fill="currentColor" transform="matrix(-1 0 0 -1 23 9)"/>
</clipPath>
</defs>
</symbol><symbol viewBox="0 0 23 9" fill="none" id="icon-arrow-prev" xmlns="http://www.w3.org/2000/svg">
<path d="M22 5.075C22.3176 5.075 22.575 4.81756 22.575 4.5C22.575 4.18244 22.3176 3.925 22 3.925L22 4.5L22 5.075ZM0.593414 4.09341C0.368862 4.31796 0.368862 4.68203 0.593414 4.90658L4.25269 8.56586C4.47724 8.79041 4.84131 8.79041 5.06586 8.56586C5.29042 8.34131 5.29042 7.97724 5.06586 7.75269L1.81317 4.5L5.06586 1.24731C5.29042 1.02276 5.29042 0.658686 5.06586 0.434135C4.84131 0.209583 4.47724 0.209583 4.25269 0.434135L0.593414 4.09341ZM22 4.5L22 3.925L1 3.925L1 4.5L1 5.075L22 5.075L22 4.5Z" fill="currentColor"/>
</symbol><symbol viewBox="0 0 12 12" fill="none" id="icon-arrow-top" xmlns="http://www.w3.org/2000/svg">
<path d="M5.25 11C5.25 11.4142 5.58579 11.75 6 11.75C6.41421 11.75 6.75 11.4142 6.75 11L6 11L5.25 11ZM6.53033 0.46967C6.23744 0.176777 5.76256 0.176777 5.46967 0.46967L0.696699 5.24264C0.403806 5.53553 0.403806 6.01041 0.696699 6.3033C0.989592 6.59619 1.46447 6.59619 1.75736 6.3033L6 2.06066L10.2426 6.3033C10.5355 6.59619 11.0104 6.59619 11.3033 6.3033C11.5962 6.01041 11.5962 5.53553 11.3033 5.24264L6.53033 0.46967ZM6 11L6.75 11L6.75 1L6 1L5.25 1L5.25 11L6 11Z" fill="currentColor"/>
</symbol><symbol viewBox="0 0 10 11" fill="none" id="icon-back" xmlns="http://www.w3.org/2000/svg">
<path d="M6.25 8.625L3.125 5.5L6.25 2.375" stroke="currentColor" stroke-width="1.5" stroke-linecap="round" stroke-linejoin="round"/>
</symbol><symbol viewBox="0 0 10 10" fill="none" id="icon-bottom" xmlns="http://www.w3.org/2000/svg">
<path d="M8.125 3.75L5 6.875L1.875 3.75" stroke="currentColor" stroke-width="1.5" stroke-linecap="round" stroke-linejoin="round"/>
</symbol><symbol viewBox="0 0 20 20" fill="none" id="icon-burger" xmlns="http://www.w3.org/2000/svg">
<path d="M20 2H-3.27826e-07" stroke="currentColor" stroke-width="3"/>
<path d="M20 10H0" stroke="currentColor" stroke-width="3"/>
<path d="M20 18H0" stroke="currentColor" stroke-width="3"/>
</symbol><symbol viewBox="0 0 29 25" fill="none" id="icon-cart" xmlns="http://www.w3.org/2000/svg">
<svg width="29" height="25" viewBox="0 0 29 25" fill="none" xmlns="http://www.w3.org/2000/svg">
  <path d="M11.4453 19.3076C12.9918 19.3012 14.2512 20.5465 14.2607 22.0928C14.2703 23.6352 13.0286 24.8867 11.4717 24.8994C9.91062 24.9119 8.63818 23.656 8.63867 22.1055C8.63941 20.5664 9.89421 19.3142 11.4453 19.3076ZM21.5938 19.3076C23.0472 19.3146 24.2458 20.4178 24.3906 21.8203L24.4053 22.1055C24.405 23.6417 23.1471 24.8935 21.5938 24.8994C20.0408 24.9053 18.7841 23.6635 18.7773 22.1191C18.7707 20.5641 20.0369 19.3003 21.5938 19.3076ZM11.4473 20.9277C10.7928 20.9295 10.2612 21.4649 10.2686 22.1172C10.2761 22.7751 10.808 23.2884 11.4697 23.2793C12.1187 23.2702 12.6291 22.7576 12.6318 22.1104C12.6343 21.4545 12.1045 20.9252 11.4473 20.9277ZM21.5889 20.9287C20.9309 20.9263 20.4049 21.4518 20.4072 22.1104C20.4089 22.7722 20.9338 23.2851 21.5986 23.2793C22.2427 23.2735 22.7659 22.7571 22.7744 22.1172C22.7828 21.4714 22.2411 20.9312 21.5889 20.9287ZM0.203125 0.688477C0.453795 0.156807 1.05256 -0.0524131 1.64844 0.217773C2.45322 0.582337 3.25661 0.950177 4.05469 1.32812C4.8807 1.7191 5.39754 2.36596 5.60156 3.25098C6.58074 7.49564 7.55391 11.7418 8.5293 15.9873C8.59458 16.272 8.68321 16.4805 8.85059 16.6123C9.01774 16.7438 9.24417 16.7832 9.54297 16.7832H23.5244C23.8219 16.7832 24.0471 16.7472 24.2139 16.6172C24.3811 16.4866 24.4693 16.2771 24.5371 15.9873C25.2864 12.788 26.035 9.58781 26.7812 6.3877C26.86 6.0504 26.8288 5.76485 26.6611 5.56348C26.4945 5.36358 26.2153 5.27344 25.8613 5.27344C20.362 5.27344 13.8628 5.27398 8.36426 5.27246C8.2255 5.27246 8.09365 5.27439 7.96973 5.25879L7.84863 5.23633L7.75586 5.20898C7.30684 5.05553 7.03715 4.62179 7.08398 4.11914C7.12609 3.661 7.48128 3.293 7.95996 3.21289L8.05762 3.20117C8.14691 3.19402 8.23427 3.19726 8.33496 3.19727H25.9473C27.5501 3.19812 28.7783 4.26406 28.8936 5.84082C28.9342 6.39942 28.7764 6.9856 28.6426 7.57031C27.9545 10.5694 27.2472 13.5648 26.543 16.5605C26.2077 17.986 25.1054 18.8567 23.6338 18.8574C18.8969 18.8597 14.1607 18.8597 9.42383 18.8574C7.9793 18.8574 6.86546 17.9987 6.54102 16.6045C5.56189 12.3988 4.59426 8.19078 3.63574 3.98047C3.58758 3.76866 3.51564 3.58605 3.39844 3.43359C3.28056 3.28032 3.1219 3.16349 2.91016 3.0752C2.19327 2.77694 1.49729 2.43255 0.788086 2.10156C0.178289 1.81685 -0.0516713 1.22765 0.203125 0.688477ZM18.9814 9.98828C19.5246 9.99249 19.9275 10.3385 20.0166 10.8057C20.1096 11.29 19.8877 11.7562 19.4561 11.9443C19.2873 12.0179 19.0828 12.0501 18.8867 12.0537C18.1276 12.0664 17.3691 12.0588 16.6084 12.0586L16.6025 12.0547H16.5732C15.7527 12.0547 14.935 12.0652 14.1182 12.0508C13.6374 12.0424 13.2566 11.7332 13.1377 11.3008C13.0166 10.8589 13.1922 10.3811 13.585 10.1582C13.7563 10.0612 13.9675 9.99356 14.1553 9.99219C15.764 9.97776 17.3728 9.97613 18.9814 9.98828Z" fill="currentColor" stroke="currentColor" stroke-width="0.2"/>
</svg></symbol><symbol viewBox="0 0 21 18" fill="none" id="icon-cart-add" xmlns="http://www.w3.org/2000/svg">
<path d="M19.5 4.5C19.5 2.567 17.933 1 16 1C14.067 1 12.5 2.567 12.5 4.5C12.5 6.433 14.067 8 16 8C17.933 8 19.5 6.433 19.5 4.5ZM16.7754 3.25586C16.9102 3.01515 17.2142 2.92901 17.4551 3.06348C17.6961 3.19821 17.7822 3.5031 17.6475 3.74414L15.873 6.91895L14.5498 4.16992C14.43 3.92115 14.5344 3.62275 14.7832 3.50293C15.032 3.38314 15.3304 3.48756 15.4502 3.73633L15.9385 4.75098L16.7754 3.25586ZM20.5 4.5C20.5 6.98528 18.4853 9 16 9C13.5147 9 11.5 6.98528 11.5 4.5C11.5 2.01472 13.5147 0 16 0C18.4853 0 20.5 2.01472 20.5 4.5Z" fill="currentColor"/>
<path fill-rule="evenodd" clip-rule="evenodd" d="M7.10383 13.6069C8.09795 13.6028 8.90724 14.3924 8.9134 15.3725C8.91931 16.3506 8.1206 17.1439 7.12043 17.1518C6.11756 17.1595 5.29985 16.3635 5.30012 15.3803C5.30059 14.4044 6.1073 13.6111 7.10383 13.6069ZM7.10578 14.7202C6.73362 14.7211 6.43159 15.0222 6.43586 15.3872C6.44025 15.7553 6.74166 16.0427 7.11848 16.0376C7.48777 16.0324 7.77721 15.745 7.77863 15.3823C7.7798 15.0152 7.47914 14.7189 7.10578 14.7202Z" fill="currentColor"/>
<path fill-rule="evenodd" clip-rule="evenodd" d="M13.4036 13.6069C14.3996 13.6117 15.2098 14.4068 15.2103 15.3803C15.2101 16.3547 14.4014 17.148 13.4036 17.1518C12.4058 17.1556 11.5975 16.3682 11.5931 15.3891C11.5888 14.4034 12.4028 13.6023 13.4036 13.6069ZM13.3997 14.7212C13.0258 14.72 12.7274 15.0142 12.7288 15.3833C12.7298 15.7538 13.0269 16.0407 13.4056 16.0376C13.7721 16.0343 14.0688 15.7442 14.0736 15.3862C14.0781 15.026 13.7708 14.7226 13.3997 14.7212Z" fill="currentColor"/>
<path d="M0.0696485 2.24656C0.241294 1.88767 0.651891 1.75157 1.04914 1.92918C1.54863 2.15228 2.04758 2.3774 2.54328 2.60886C3.0733 2.85623 3.40657 3.2678 3.53742 3.82761C4.14517 6.42527 4.74943 9.02344 5.3548 11.6216C5.43444 11.9642 5.55827 12.062 5.92316 12.062H14.6019C14.9666 12.0619 15.0873 11.9711 15.1702 11.6216C15.3782 10.7461 15.5846 9.87021 15.7923 8.99461C15.8612 8.99774 15.9303 9 16 9C16.45 8.99999 16.8843 8.93201 17.2943 8.80906C17.0421 9.87307 16.789 10.9369 16.5355 12.0005C16.3207 12.9005 15.612 13.4529 14.6702 13.4536C11.73 13.455 8.78923 13.455 5.84895 13.4536C4.9248 13.4534 4.20752 12.9095 3.99934 12.0278C3.39158 9.4538 2.79156 6.87805 2.1966 4.30125C2.13924 4.05249 2.02906 3.89089 1.78254 3.78953C1.33607 3.60637 0.901616 3.39557 0.463203 3.19383C0.0578594 3.00737 -0.105289 2.61156 0.0696485 2.24656Z" fill="currentColor"/>
<path d="M11.7825 7.90379C12.1474 7.90659 12.4244 8.13664 12.4857 8.45261C12.5482 8.77391 12.3986 9.09037 12.1009 9.21824C11.9862 9.26744 11.8504 9.2872 11.7239 9.28953C11.2453 9.29743 10.7666 9.29246 10.2884 9.29246L10.2864 9.2905C9.77833 9.29051 9.26967 9.29738 8.76203 9.28855C8.43589 9.28295 8.1761 9.07426 8.09504 8.78367C8.01325 8.48903 8.13071 8.16666 8.40168 8.01511C8.51489 7.95193 8.65613 7.90674 8.78547 7.90574C9.78437 7.8969 10.7836 7.89635 11.7825 7.90379Z" fill="currentColor"/>
<path d="M11.5638 3.74754C11.5226 3.99228 11.5 4.24354 11.5 4.5C11.5 4.71686 11.5165 4.93047 11.5462 5.13914C9.38096 5.13904 7.18083 5.13968 5.19172 5.13914C5.07984 5.13914 4.9639 5.14174 4.85676 5.1157C4.51177 5.03285 4.30162 4.72276 4.33527 4.36668C4.36624 4.03577 4.64143 3.77831 4.99641 3.74949C5.05519 3.74484 5.11488 3.74754 5.17414 3.74754H11.5638Z" fill="currentColor"/>
</symbol><symbol viewBox="0 0 22 22" fill="none" id="icon-circle-check" xmlns="http://www.w3.org/2000/svg">
<path d="M15.7083 8.5L9.59719 14.3333L6.54167 11.4167M21.125 11C21.125 16.5228 16.6478 21 11.125 21C5.60215 21 1.125 16.5228 1.125 11C1.125 5.47715 5.60215 1 11.125 1C16.6478 1 21.125 5.47715 21.125 11Z" stroke="currentColor" stroke-width="1.5" stroke-linecap="round" stroke-linejoin="round"/>
</symbol><symbol viewBox="0 0 20 20" fill="none" id="icon-classmates" xmlns="http://www.w3.org/2000/svg">
<g clip-path="url(#akclip0_3154_26614)">
<path d="M14.8398 10.9785C14.6079 10.8534 14.4126 10.8783 14.2256 10.9629C14.1307 11.0058 14.0379 11.0638 13.9434 11.127C13.8497 11.1895 13.7529 11.2581 13.6543 11.3164C11.4368 12.6283 8.59542 12.633 6.37402 11.3252C6.29211 11.277 6.21298 11.2223 6.13672 11.1699C6.05999 11.1172 5.98504 11.066 5.9082 11.0225C5.7553 10.9358 5.59694 10.8804 5.4082 10.9004C5.07553 10.9357 4.85406 11.2129 4.86523 11.5176C4.87728 11.8402 5.02267 12.0727 5.23535 12.2607C5.45005 12.4504 5.73077 12.5935 6.01172 12.7373C6.71908 13.0994 7.44675 13.3453 8.23535 13.5088C8.30455 13.5231 8.37818 13.5333 8.45703 13.5469C8.534 13.5602 8.61341 13.5765 8.68555 13.6035C8.7578 13.6306 8.8256 13.6692 8.87695 13.7285C8.92894 13.7887 8.9615 13.8669 8.96777 13.9668C8.97382 14.0639 8.9521 14.1365 8.91113 14.1992C8.87211 14.2588 8.81511 14.309 8.75977 14.3613C7.91852 15.1576 7.03899 15.9278 6.19336 16.7158C6.08012 16.8213 5.95775 16.9207 5.85645 17.0352C5.75652 17.1481 5.6844 17.2682 5.6709 17.4082C5.6215 17.9263 6.1281 18.3107 6.66602 18.1396C6.8529 18.0802 6.91346 17.9938 7.05664 17.8594C7.50547 17.438 7.94515 17.0071 8.38477 16.5762C8.82429 16.1453 9.26449 15.7135 9.71289 15.29L9.71582 15.2871H9.7168C9.87007 15.1691 10.0819 15.158 10.2461 15.251L10.3135 15.2969L10.3164 15.2998C11.1429 16.1003 11.9631 16.9055 12.7939 17.7012C12.9088 17.8112 13.0019 17.9204 13.1152 18.0107C13.2252 18.0985 13.3476 18.1619 13.5078 18.1748C13.8869 18.2052 14.1627 18.0252 14.2803 17.7812C14.3976 17.5376 14.3611 17.2218 14.0967 16.9697C13.857 16.7412 13.6136 16.5158 13.3682 16.292L11.8857 14.9541C11.6398 14.7298 11.3958 14.5036 11.1553 14.2744L11.1504 14.2705L11.1514 14.2695C11.0472 14.1438 11.0244 13.991 11.0713 13.8584C11.1183 13.726 11.2331 13.6174 11.3955 13.5771C11.4847 13.5551 11.5805 13.539 11.6748 13.5234C11.7698 13.5077 11.8635 13.4929 11.9521 13.4736C12.7935 13.291 13.6183 12.9684 14.3535 12.5469C14.5221 12.4502 14.7089 12.3459 14.8359 12.2178C15.0013 12.0508 15.1244 11.8024 15.1436 11.5645C15.1624 11.3292 15.0801 11.1082 14.8398 10.9785ZM16.0498 11.6729L16 11.665L16.0488 11.6729L16.0088 11.9121V11.915L15.96 11.9033L16.0078 11.915C15.8754 12.476 15.5156 12.8666 15.0234 13.1689C14.3752 13.567 13.6029 13.9072 12.8652 14.1299C12.7864 14.1537 12.6976 14.1743 12.6133 14.1943C12.5492 14.2096 12.4877 14.2262 12.4316 14.2432L14.8018 16.4141L14.8037 16.415C15.6891 17.2882 15.2207 18.7478 13.9697 19.0088C13.9305 19.017 13.8911 19.0229 13.8535 19.0283C13.8154 19.0339 13.7787 19.0393 13.7432 19.0469L13.7334 19.0488V19.0479H13.4609V19.0469C13.4132 19.0373 13.3651 19.0299 13.3154 19.0215C13.2664 19.0131 13.2161 19.0038 13.166 18.9912C12.9184 18.9292 12.6949 18.8095 12.5029 18.6543L12.499 18.6523L10.1475 16.377C10.1402 16.37 10.1258 16.3553 10.1104 16.3389C10.0938 16.3213 10.0743 16.3002 10.0547 16.2803C10.0369 16.2622 10.0197 16.2458 10.0059 16.2334L8.93457 17.2812L8.93359 17.2832C8.71222 17.4871 8.49867 17.6984 8.28418 17.9102C8.06989 18.1217 7.85435 18.3335 7.63086 18.5381C7.38983 18.7587 7.1859 18.9054 6.84375 18.9912L6.83984 18.9922V18.9912L6.53809 19.0469L6.5293 19.0488V19.0479H6.27637V19.0469L5.96777 18.9902L5.96387 18.9893C4.79301 18.6814 4.35443 17.3182 5.17676 16.4512L5.17871 16.4492L7.57617 14.2432C7.55634 14.2378 7.53374 14.2323 7.51074 14.2266C7.43679 14.2081 7.35231 14.188 7.33301 14.1826C6.6328 13.9861 5.93861 13.699 5.30957 13.3525C4.72991 13.0332 4.26631 12.7154 4.05078 12.0664C4.00075 11.9156 3.97838 11.7606 3.95117 11.6123L3.94922 11.6035H3.9502V11.3584L3.95215 11.3516C3.96325 11.3147 3.97043 11.2765 3.97754 11.2354C3.98453 11.1949 3.99146 11.1507 4.00293 11.1074C4.22546 10.2681 5.19808 9.84003 6.04395 10.124C6.19151 10.1736 6.32051 10.2463 6.44238 10.3242C6.56662 10.4037 6.67763 10.4849 6.80273 10.5596C8.71787 11.7023 11.2717 11.7096 13.1914 10.5713C13.3103 10.5008 13.4234 10.4201 13.5459 10.3408C13.6667 10.2627 13.7938 10.1879 13.9316 10.1377C14.8567 9.80108 15.9254 10.3303 16.0381 11.2803L16.043 11.2871L16.0498 11.2998V11.6729Z" fill="currentColor" stroke="currentColor" stroke-width="0.1"/>
<path d="M10.2871 0.956055C12.3986 1.04475 14.2778 2.39995 14.9697 4.25977C16.0093 7.05535 14.1772 10.0765 11.1211 10.6943C7.52146 11.4218 4.26825 8.54895 4.81348 5.13086C5.17602 2.85862 7.26827 1.06207 9.7207 0.956055C9.8968 0.948441 10.111 0.948677 10.2871 0.956055ZM9.8916 1.81348C6.38973 1.9119 4.42381 5.66682 6.52637 8.30664C8.37369 10.6258 12.1267 10.4463 13.7227 7.97656C15.492 5.23809 13.2998 1.71782 9.8916 1.81348Z" fill="currentColor" stroke="currentColor" stroke-width="0.1"/>
<path d="M9.80273 3.20508C11.0691 3.13424 12.0758 3.78593 12.5576 4.68359C13.0398 5.58215 12.9951 6.72703 12.1621 7.63379C10.8233 9.09081 8.31623 8.7638 7.43164 7.03711C6.563 5.34156 7.81233 3.31668 9.80273 3.20508ZM9.93848 4.06055C8.39404 4.11874 7.52875 5.75275 8.4248 6.93066C9.22011 7.97579 10.8855 7.94151 11.6338 6.86816C12.4853 5.6462 11.5033 4.00185 9.93848 4.06055Z" fill="currentColor" stroke="currentColor" stroke-width="0.1"/>
</g>
<defs>
<clipPath id="akclip0_3154_26614">
<rect width="20" height="19.9978" fill="currentColor"/>
</clipPath>
</defs>
</symbol><symbol viewBox="0 0 17 17" fill="none" id="icon-clock" xmlns="http://www.w3.org/2000/svg">
<path d="M9.25 3.97917C9.25 3.56495 8.91421 3.22917 8.5 3.22917C8.08579 3.22917 7.75 3.56495 7.75 3.97917H8.5H9.25ZM8.5 8.5H7.75C7.75 8.91421 8.08579 9.25 8.5 9.25V8.5ZM13.0208 9.25C13.435 9.25 13.7708 8.91421 13.7708 8.5C13.7708 8.08579 13.435 7.75 13.0208 7.75V8.5V9.25ZM16.25 8.5H15.5C15.5 12.366 12.366 15.5 8.5 15.5V16.25V17C13.1944 17 17 13.1944 17 8.5H16.25ZM8.5 16.25V15.5C4.63401 15.5 1.5 12.366 1.5 8.5H0.75H0C0 13.1944 3.80558 17 8.5 17V16.25ZM0.75 8.5H1.5C1.5 4.63401 4.63401 1.5 8.5 1.5V0.75V0C3.80558 0 0 3.80558 0 8.5H0.75ZM8.5 0.75V1.5C12.366 1.5 15.5 4.63401 15.5 8.5H16.25H17C17 3.80558 13.1944 0 8.5 0V0.75ZM8.5 3.97917H7.75V8.5H8.5H9.25V3.97917H8.5ZM8.5 8.5V9.25H13.0208V8.5V7.75H8.5V8.5Z" fill="currentColor"/>
</symbol><symbol viewBox="0 0 20 20" fill="none" id="icon-close" xmlns="http://www.w3.org/2000/svg">
<path d="M19 1L1 19M19 19L1 1" stroke="currentColor" stroke-width="2" stroke-linecap="round" stroke-linejoin="round"/>
</symbol><symbol viewBox="0 0 10 11" fill="none" id="icon-down" xmlns="http://www.w3.org/2000/svg">
<path d="M8.125 4.25L5 7.375L1.875 4.25" stroke="currentColor" stroke-width="1.5" stroke-linecap="round" stroke-linejoin="round"/>
</symbol><symbol viewBox="0 0 16 17" fill="none" id="icon-eye" xmlns="http://www.w3.org/2000/svg">
<g clip-path="url(#aoclip0_4077_3152)">
<path d="M8 3.26562C13 3.26562 16 8.76562 16 8.76562C16 8.76562 13 14.2656 8 14.2656C3 14.2656 0 8.76562 0 8.76562C0 8.76562 3 3.26562 8 3.26562ZM8 4.26562C4.48 4.26562 1.998 7.51662 1.175 8.76562C1.997 10.0136 4.479 13.2656 8 13.2656C11.52 13.2656 14.002 10.0146 14.825 8.76562C14.003 7.51762 11.521 4.26562 8 4.26562ZM8 5.26562C8.92826 5.26562 9.8185 5.63437 10.4749 6.29075C11.1313 6.94713 11.5 7.83737 11.5 8.76562C11.5 9.69388 11.1313 10.5841 10.4749 11.2405C9.8185 11.8969 8.92826 12.2656 8 12.2656C7.07174 12.2656 6.1815 11.8969 5.52513 11.2405C4.86875 10.5841 4.5 9.69388 4.5 8.76562C4.5 7.83737 4.86875 6.94713 5.52513 6.29075C6.1815 5.63437 7.07174 5.26562 8 5.26562ZM8 6.26562C7.3372 6.26642 6.70178 6.53007 6.23311 6.99873C5.76444 7.4674 5.50079 8.10283 5.5 8.76562C5.5 10.1436 6.621 11.2656 8 11.2656C9.379 11.2656 10.5 10.1436 10.5 8.76562C10.5 7.38762 9.379 6.26562 8 6.26562Z" fill="currentColor" stroke="currentColor" stroke-width="0.015625"/>
</g>
<defs>
<clipPath id="aoclip0_4077_3152">
<rect width="16" height="16" fill="currentColor" transform="translate(0 0.765625)"/>
</clipPath>
</defs>
</symbol><symbol viewBox="0 0 19 26" fill="none" id="icon-file" xmlns="http://www.w3.org/2000/svg">
<path d="M0 2.45312C0 1.37444 0.877118 0.5 1.9591 0.5H11.4607L18.8073 7.87305V23.5469C18.8073 24.6256 17.9302 25.5 16.8482 25.5H1.9591C0.877118 25.5 0 24.6256 0 23.5469V2.45312Z" fill="currentColor"/>
<path d="M11.4607 0.5L18.8073 7.87305H11.4607V0.5Z" fill="currentColor"/>
<path d="M4.85758 16.6621C5.25234 16.6621 5.59404 16.7277 5.88268 16.8589C6.17557 16.9901 6.40054 17.1763 6.55759 17.4175C6.71465 17.6587 6.79317 17.9443 6.79317 18.2744C6.79317 18.6003 6.71465 18.8859 6.55759 19.1313C6.40054 19.3726 6.17557 19.5588 5.88268 19.6899C5.59404 19.8169 5.25234 19.8804 4.85758 19.8804H3.95983V21.1055H2.92836V16.6621H4.85758ZM4.80028 19.0425C5.11014 19.0425 5.34573 18.9769 5.50702 18.8457C5.66832 18.7103 5.74897 18.5199 5.74897 18.2744C5.74897 18.0247 5.66832 17.8343 5.50702 17.7031C5.34573 17.5677 5.11014 17.5 4.80028 17.5H3.95983V19.0425H4.80028Z" fill="currentColor"/>
<path d="M7.52956 16.6621H9.55429C10.0382 16.6621 10.4648 16.7552 10.8341 16.9414C11.2076 17.1234 11.4962 17.3815 11.7 17.7158C11.908 18.0501 12.012 18.4395 12.012 18.8838C12.012 19.3281 11.908 19.7174 11.7 20.0518C11.4962 20.3861 11.2076 20.6463 10.8341 20.8325C10.4648 21.0145 10.0382 21.1055 9.55429 21.1055H7.52956V16.6621ZM9.50335 20.2612C9.94905 20.2612 10.3035 20.1385 10.5667 19.8931C10.8341 19.6434 10.9678 19.307 10.9678 18.8838C10.9678 18.4606 10.8341 18.1263 10.5667 17.8809C10.3035 17.6312 9.94905 17.5063 9.50335 17.5063H8.56103V20.2612H9.50335Z" fill="currentColor"/>
<path d="M13.8213 17.4873V18.6616H15.8843V19.4868H13.8213V21.1055H12.7899V16.6621H16.158V17.4873H13.8213Z" fill="currentColor"/>
</symbol><symbol viewBox="0 0 24 24" fill="none" id="icon-filters" xmlns="http://www.w3.org/2000/svg">
<path d="M3.94531 4.5H20.0545C20.1998 4.5 20.342 4.54221 20.4637 4.62149C20.5855 4.70077 20.6816 4.81371 20.7404 4.94658C20.7992 5.07946 20.8181 5.22655 20.7948 5.36998C20.7716 5.51341 20.7072 5.64699 20.6094 5.7545L14.4449 12.5354C14.3194 12.6735 14.2499 12.8534 14.2499 13.04V18.3486C14.2499 18.4721 14.2194 18.5936 14.1612 18.7025C14.1029 18.8114 14.0187 18.9042 13.9159 18.9726L10.9159 20.9727C10.803 21.048 10.6717 21.0912 10.5361 21.0977C10.4005 21.1043 10.2657 21.0739 10.146 21.0099C10.0263 20.9458 9.92626 20.8505 9.8565 20.734C9.78674 20.6176 9.7499 20.4844 9.7499 20.3486V13.04C9.7499 12.8534 9.68036 12.6735 9.55485 12.5355L3.39036 5.7545C3.29262 5.64699 3.22822 5.51341 3.20497 5.36998C3.18173 5.22655 3.20065 5.07946 3.25943 4.94658C3.31821 4.81371 3.41432 4.70077 3.53608 4.62149C3.65785 4.54221 3.80001 4.5 3.94531 4.5Z" fill="currentColor"/>
</symbol><symbol viewBox="0 0 24 24" fill="none" id="icon-filters-stroke" xmlns="http://www.w3.org/2000/svg">
<path d="M3.94531 4.5H20.0545C20.1998 4.5 20.342 4.54221 20.4637 4.62149C20.5855 4.70077 20.6816 4.81371 20.7404 4.94658C20.7992 5.07946 20.8181 5.22655 20.7948 5.36998C20.7716 5.51341 20.7072 5.64699 20.6094 5.7545L14.4449 12.5354C14.3194 12.6735 14.2499 12.8534 14.2499 13.04V18.3486C14.2499 18.4721 14.2194 18.5936 14.1612 18.7025C14.1029 18.8114 14.0187 18.9042 13.9159 18.9726L10.9159 20.9727C10.803 21.048 10.6717 21.0912 10.5361 21.0977C10.4005 21.1043 10.2657 21.0739 10.146 21.0099C10.0263 20.9458 9.92626 20.8505 9.8565 20.734C9.78674 20.6176 9.7499 20.4844 9.7499 20.3486V13.04C9.7499 12.8534 9.68036 12.6735 9.55485 12.5355L3.39036 5.7545C3.29262 5.64699 3.22822 5.51341 3.20497 5.36998C3.18173 5.22655 3.20065 5.07946 3.25943 4.94658C3.31821 4.81371 3.41432 4.70077 3.53608 4.62149C3.65785 4.54221 3.80001 4.5 3.94531 4.5Z" stroke="currentColor" stroke-linecap="round" stroke-linejoin="round"/>
</symbol><symbol viewBox="0 0 21 22" fill="none" id="icon-grid" xmlns="http://www.w3.org/2000/svg">
<rect y="0.5" width="8" height="8" rx="1" fill="currentColor"/>
<rect y="13.5" width="8" height="8" rx="1" fill="currentColor"/>
<rect x="13" y="0.5" width="8" height="8" rx="1" fill="currentColor"/>
<rect x="13" y="13.5" width="8" height="8" rx="1" fill="currentColor"/>
</symbol><symbol viewBox="0 0 16 17" fill="none" id="icon-heart" xmlns="http://www.w3.org/2000/svg">
<path d="M1.22268 9.95702C1.05415 9.86207 0.913826 9.72411 0.81603 9.55721C0.718234 9.39031 0.666468 9.20046 0.666016 9.00702V5.00035C0.666016 4.61035 0.875349 4.25035 1.21668 4.05369L3.77202 2.58035C4.11868 2.38035 4.54668 2.38035 4.89335 2.58035L7.99935 4.37035L11.106 2.57969C11.452 2.37969 11.88 2.37969 12.226 2.57969L14.782 4.05302C15.1233 4.24969 15.3327 4.60969 15.3327 4.99969V9.00635C15.3322 9.19979 15.2805 9.38965 15.1827 9.55654C15.0849 9.72344 14.9445 9.8614 14.776 9.95635L8.69868 14.8497C8.49982 15.0094 8.25241 15.0965 7.99735 15.0965C7.74229 15.0965 7.49488 15.0094 7.29602 14.8497L1.22268 9.95635V9.95702Z" stroke="currentColor" stroke-width="0.666667"/>
</symbol><symbol viewBox="0 0 20 20" fill="none" id="icon-link" xmlns="http://www.w3.org/2000/svg">
<path d="M7.00031 9.99976H13.0001M11.5002 13H14.0001C14.7957 13 15.5588 12.6839 16.1213 12.1213C16.6839 11.5587 17 10.7956 17 10C17 9.20435 16.6839 8.44129 16.1213 7.87868C15.5588 7.31607 14.7957 7 14.0001 7H11.5002M8.49983 13H5.99991C5.20428 13 4.44124 12.6839 3.87865 12.1213C3.31606 11.5587 3 10.7956 3 10C3 9.20435 3.31606 8.44129 3.87865 7.87868C4.44124 7.31607 5.20428 7 5.99991 7H8.49983" stroke="currentColor" stroke-linecap="round" stroke-linejoin="round"/>
</symbol><symbol viewBox="0 0 21 18" fill="none" id="icon-list" xmlns="http://www.w3.org/2000/svg">
<rect x="5" y="0.5" width="16" height="3" rx="1" fill="currentColor"/>
<rect y="0.5" width="3" height="3" rx="1" fill="currentColor"/>
<rect x="5" y="7.5" width="16" height="3" rx="1" fill="currentColor"/>
<path d="M0 8.5C0 7.94772 0.447715 7.5 1 7.5H2C2.55228 7.5 3 7.94772 3 8.5V9.5C3 10.0523 2.55228 10.5 2 10.5H1C0.447715 10.5 0 10.0523 0 9.5V8.5Z" fill="currentColor"/>
<rect x="5" y="14.5" width="16" height="3" rx="1" fill="currentColor"/>
<path d="M0 15.5C0 14.9477 0.447715 14.5 1 14.5H2C2.55228 14.5 3 14.9477 3 15.5V16.5C3 17.0523 2.55228 17.5 2 17.5H1C0.447715 17.5 0 17.0523 0 16.5V15.5Z" fill="currentColor"/>
</symbol><symbol viewBox="0 0 21 18" fill="none" id="icon-list-full" xmlns="http://www.w3.org/2000/svg">
<rect y="0.5" width="21" height="3" rx="1" fill="currentColor"/>
<rect y="7.5" width="21" height="3" rx="1" fill="currentColor"/>
<rect y="14.5" width="21" height="3" rx="1" fill="currentColor"/>
</symbol><symbol viewBox="0 0 17 23" fill="none" id="icon-location" xmlns="http://www.w3.org/2000/svg">
<g clip-path="url(#axclip0_718_20626)">
<g clip-path="url(#axclip1_718_20626)">
<path d="M8.118 0C3.64 0 0 3.781 0 8.43C0 10.565 1.296 13.581 3.851 17.396C5.719 20.184 7.556 22.342 7.633 22.433L8.118 23L8.602 22.433C9.9502 20.8215 11.2126 19.1402 12.384 17.396C14.94 13.581 16.235 10.564 16.235 8.429C16.235 3.781 12.594 0 8.118 0ZM11.328 16.617C10.3229 18.1096 9.25187 19.5567 8.118 20.954C6.9863 19.5603 5.91724 18.1169 4.914 16.628C2.546 13.094 1.294 10.258 1.294 8.429C1.294 4.523 4.356 1.345 8.118 1.345C11.88 1.345 14.94 4.523 14.94 8.429C14.94 10.257 13.691 13.088 11.328 16.617ZM8.118 3.115C5.476 3.115 3.327 5.347 3.327 8.09C3.327 10.834 5.476 13.065 8.117 13.065C10.759 13.065 12.909 10.834 12.909 8.09C12.909 5.347 10.759 3.115 8.118 3.115ZM8.118 11.721C6.19 11.721 4.622 10.092 4.622 8.091C4.622 6.089 6.19 4.461 8.118 4.461C10.045 4.461 11.614 6.089 11.614 8.091C11.614 10.092 10.045 11.721 8.118 11.721Z" fill="currentColor"/>
</g>
</g>
<defs>
<clipPath id="axclip0_718_20626">
<rect width="17" height="23" fill="currentColor"/>
</clipPath>
<clipPath id="axclip1_718_20626">
<rect width="17" height="23" fill="currentColor"/>
</clipPath>
</defs>
</symbol><symbol viewBox="0 0 20 21" fill="none" id="icon-mail" xmlns="http://www.w3.org/2000/svg">
<g clip-path="url(#ayclip0_718_20647)">
<path d="M18.0593 3.83203H1.94067C0.875664 3.83203 0 4.69545 0 5.7727V15.2284C0 16.2942 0.866943 17.169 1.94067 17.169H18.0593C19.1337 17.169 20 16.2934 20 15.2284V5.7727C20 4.69445 19.1235 3.83203 18.0593 3.83203ZM17.6813 4.89051L10 9.86974L2.31888 4.89051H17.6813ZM1.05855 5.7727C1.05855 5.63882 1.08884 5.50893 1.14529 5.39136L5.95023 8.50608L1.05855 15.0481V5.7727ZM18.0593 16.1105H1.94067C1.83095 16.1105 1.72623 16.0894 1.62916 16.0526L6.84047 9.08315L9.71213 10.9447C9.88735 11.0582 10.1128 11.0581 10.288 10.9447L13.1596 9.08315L18.3709 16.0526C18.2738 16.0895 18.1691 16.1105 18.0593 16.1105ZM18.9415 15.0481L14.0498 8.50608L18.8547 5.39136C18.9112 5.50893 18.9415 5.63882 18.9415 5.7727V15.0481Z" fill="currentColor"/>
</g>
<defs>
<clipPath id="ayclip0_718_20647">
<rect width="20" height="20" fill="currentColor" transform="translate(0 0.5)"/>
</clipPath>
</defs>
</symbol><symbol viewBox="0 0 20 20" fill="none" id="icon-max" xmlns="http://www.w3.org/2000/svg">
<path d="M10.3555 3.14453C14.1416 3.14453 17.2109 6.21383 17.2109 10C17.2109 13.7806 14.1506 16.8455 10.3721 16.8545C9.63612 16.7936 9.13711 16.691 8.73047 16.5381C8.32319 16.3849 7.98143 16.1719 7.56738 15.8564L7.21875 15.5908L6.91016 15.9023C6.34155 16.4745 5.71164 16.7592 5.23145 16.8291C4.98988 16.8643 4.81206 16.8417 4.70312 16.8008C4.64514 16.779 4.61502 16.7548 4.59766 16.7354C4.5786 15.5217 4.29377 14.5711 4.03027 13.6025C3.75806 12.6019 3.49568 11.5341 3.5 10.001V10C3.5 6.21384 6.56933 3.14455 10.3555 3.14453Z" stroke="currentColor"/>
<path d="M10.3516 6.16016C12.1757 6.16016 13.613 7.51539 13.6133 9.29102C13.6133 11.0826 12.1634 12.5369 10.3701 12.5469C9.65023 12.4852 9.03131 12.2589 8.68848 11.998L8.33984 11.7334L8.03125 12.0439C7.88075 12.1952 7.7493 12.3106 7.63867 12.3926C7.60577 12.417 7.57419 12.4343 7.54785 12.4512C7.40307 12.1253 7.31717 11.8933 7.25977 11.5469C7.19111 11.1324 7.16113 10.5447 7.16113 9.46973C7.1612 8.80138 7.50074 7.96239 8.10156 7.28418C8.69785 6.61111 9.49374 6.16018 10.3516 6.16016Z" stroke="currentColor"/>
</symbol><symbol viewBox="0 0 11 10" fill="none" id="icon-next" xmlns="http://www.w3.org/2000/svg">
<path d="M4.375 1.875L7.5 5L4.375 8.125" stroke="currentColor" stroke-width="1.5" stroke-linecap="round" stroke-linejoin="round"/>
</symbol><symbol viewBox="0 0 19 33" fill="none" id="icon-next-line" xmlns="http://www.w3.org/2000/svg">
<path d="M17.9395 16.4141L1.52382 0.807373" stroke="currentColor" stroke-width="1.5" stroke-linecap="round"/>
<path d="M17.9395 16.582L1.52382 32.1887" stroke="currentColor" stroke-width="1.5" stroke-linecap="round"/>
</symbol><symbol viewBox="0 0 19 19" fill="none" id="icon-paper" xmlns="http://www.w3.org/2000/svg">
<path d="M8.37288 13.389L8.37504 4.57199C8.37252 4.25705 8.49522 3.95402 8.71613 3.72955C8.93704 3.50508 9.23808 3.37755 9.55301 3.37504C9.86795 3.37252 10.171 3.49522 10.3955 3.71613C10.6199 3.93704 10.7474 4.23808 10.75 4.55301L10.7612 15.0493C10.7637 15.3612 10.7047 15.6705 10.5877 15.9596C10.4706 16.2487 10.2978 16.5119 10.079 16.7342C9.86026 16.9565 9.59985 17.1335 9.31267 17.2552C9.02548 17.3768 8.71714 17.4407 8.40526 17.4432C8.09339 17.4457 7.78407 17.3868 7.49498 17.2697C7.20588 17.1527 6.94268 16.9798 6.72038 16.761C6.49809 16.5423 6.32106 16.2819 6.19941 15.9947C6.07776 15.7075 6.01386 15.3992 6.01137 15.0873L6.00011 4.59096C5.99257 3.64616 6.36065 2.73705 7.02339 2.06364C7.68613 1.39022 8.58924 1.00766 9.53404 1.00011C10.4788 0.992566 11.3879 1.36065 12.0614 2.02339C12.7348 2.68613 13.1173 3.58924 13.1249 4.53404L13.1993 13.1405" stroke="currentColor" stroke-linecap="round" stroke-linejoin="round"/>
</symbol><symbol viewBox="0 0 22 23" fill="none" id="icon-play" xmlns="http://www.w3.org/2000/svg">
<path d="M22 11.5118L4 22.2971L4 0.726562L22 11.5118Z" fill="currentColor"/>
</symbol><symbol viewBox="0 0 10 11" fill="none" id="icon-prev" xmlns="http://www.w3.org/2000/svg">
<path d="M6.25 8.625L3.125 5.5L6.25 2.375" stroke="currentColor" stroke-width="1.5" stroke-linecap="round" stroke-linejoin="round"/>
</symbol><symbol viewBox="0 0 19 33" fill="none" id="icon-prev-line" xmlns="http://www.w3.org/2000/svg">
<path d="M1.10742 16.4141L17.5231 0.807373" stroke="currentColor" stroke-width="1.5" stroke-linecap="round"/>
<path d="M1.10742 16.582L17.5231 32.1887" stroke="currentColor" stroke-width="1.5" stroke-linecap="round"/>
</symbol><symbol viewBox="0 0 24 24" fill="none" id="icon-print" xmlns="http://www.w3.org/2000/svg">
<path d="M5.99902 14.25V13.5C5.58481 13.5 5.24902 13.8358 5.24902 14.25H5.99902ZM17.999 14.25H18.749C18.749 13.8358 18.4132 13.5 17.999 13.5V14.25ZM17.999 20.625V21.375C18.4132 21.375 18.749 21.0392 18.749 20.625H17.999ZM5.99902 20.625H5.24902C5.24902 21.0392 5.58481 21.375 5.99902 21.375V20.625ZM5.99902 17.25C6.41324 17.25 6.74902 16.9142 6.74902 16.5C6.74902 16.0858 6.41324 15.75 5.99902 15.75V16.5V17.25ZM2.62402 16.5H1.87402C1.87402 16.9142 2.20981 17.25 2.62402 17.25V16.5ZM21.374 16.5V17.25C21.7882 17.25 22.124 16.9142 22.124 16.5H21.374ZM17.999 15.75C17.5848 15.75 17.249 16.0858 17.249 16.5C17.249 16.9142 17.5848 17.25 17.999 17.25V16.5V15.75ZM5.24901 7.5C5.24901 7.91421 5.5848 8.25 5.99901 8.25C6.41322 8.25 6.74901 7.91421 6.74901 7.5H5.99901H5.24901ZM5.99901 3.75V3C5.5848 3 5.24901 3.33579 5.24901 3.75H5.99901ZM17.999 3.75H18.749C18.749 3.33579 18.4132 3 17.999 3V3.75ZM17.249 7.5C17.249 7.91421 17.5848 8.25 17.999 8.25C18.4132 8.25 18.749 7.91421 18.749 7.5H17.999H17.249ZM5.99902 14.25V15H17.999V14.25V13.5H5.99902V14.25ZM17.999 14.25H17.249V20.625H17.999H18.749V14.25H17.999ZM17.999 20.625V19.875H5.99902V20.625V21.375H17.999V20.625ZM5.99902 20.625H6.74902V14.25H5.99902H5.24902V20.625H5.99902ZM5.99902 16.5V15.75H2.62402V16.5V17.25H5.99902V16.5ZM2.62402 16.5H3.37402V9H2.62402H1.87402V16.5H2.62402ZM2.62402 9H3.37402C3.37402 8.64118 3.70812 8.25 4.24902 8.25V7.5V6.75C2.995 6.75 1.87402 7.70197 1.87402 9H2.62402ZM4.24902 7.5V8.25H19.749V7.5V6.75H4.24902V7.5ZM19.749 7.5V8.25C20.2899 8.25 20.624 8.64118 20.624 9H21.374H22.124C22.124 7.70197 21.003 6.75 19.749 6.75V7.5ZM21.374 9H20.624V16.5H21.374H22.124V9H21.374ZM21.374 16.5V15.75H17.999V16.5V17.25H21.374V16.5ZM17.6246 12V12.75C18.6601 12.75 19.4996 11.9105 19.4996 10.875H18.7496H17.9996C17.9996 11.0821 17.8317 11.25 17.6246 11.25V12ZM18.7496 10.875H19.4996C19.4996 9.83947 18.6601 9 17.6246 9V9.75V10.5C17.8317 10.5 17.9996 10.6679 17.9996 10.875H18.7496ZM17.6246 9.75V9C16.589 9 15.7496 9.83947 15.7496 10.875H16.4996H17.2496C17.2496 10.6679 17.4175 10.5 17.6246 10.5V9.75ZM16.4996 10.875H15.7496C15.7496 11.9105 16.589 12.75 17.6246 12.75V12V11.25C17.4175 11.25 17.2496 11.0821 17.2496 10.875H16.4996ZM5.99901 7.5H6.74901V3.75H5.99901H5.24901V7.5H5.99901ZM5.99901 3.75V4.5H17.999V3.75V3H5.99901V3.75ZM17.999 3.75H17.249V7.5H17.999H18.749V3.75H17.999Z" fill="currentColor"/>
</symbol><symbol viewBox="0 0 19 20" fill="none" id="icon-search" xmlns="http://www.w3.org/2000/svg">
<g clip-path="url(#bhclip0_4001_2661)">
<g clip-path="url(#bhclip1_4001_2661)">
<path d="M7.49942 0C6.40724 0.000553102 5.33016 0.255066 4.35325 0.743433C3.37635 1.2318 2.52639 1.94064 1.87052 2.81396C1.21465 3.68727 0.77084 4.70114 0.574152 5.77545C0.377463 6.84977 0.433285 7.95511 0.737206 9.00414C1.04113 10.0532 1.58482 11.0172 2.32534 11.82C3.06585 12.6228 3.9829 13.2424 5.00404 13.6298C6.02517 14.0173 7.12242 14.162 8.20909 14.0525C9.29576 13.943 10.3421 13.5824 11.2654 12.999C11.2854 13.025 11.3084 13.051 11.3324 13.075L17.1394 18.882C17.211 18.9536 17.296 19.0103 17.3895 19.0491C17.483 19.0878 17.5832 19.1077 17.6844 19.1077C17.7856 19.1077 17.8859 19.0878 17.9794 19.0491C18.0729 19.0103 18.1578 18.9536 18.2294 18.882C18.301 18.8104 18.3578 18.7255 18.3965 18.632C18.4352 18.5384 18.4552 18.4382 18.4552 18.337C18.4552 18.2358 18.4352 18.1356 18.3965 18.042C18.3578 17.9485 18.301 17.8636 18.2294 17.792L12.4724 12.034C13.4597 11.0496 14.1328 9.79449 14.4063 8.42742C14.6799 7.06036 14.5417 5.64286 14.0093 4.35437C13.4768 3.06589 12.574 1.96436 11.4152 1.18923C10.2563 0.414096 8.89359 0.000222305 7.49942 0ZM1.99742 7.044C1.99755 6.32134 2.14002 5.60577 2.41669 4.93817C2.69336 4.27056 3.09882 3.66399 3.60992 3.15308C4.12101 2.64218 4.72773 2.23694 5.39543 1.96051C6.06314 1.68408 6.77875 1.54187 7.50142 1.542C8.22408 1.54213 8.93964 1.6846 9.60725 1.96127C10.2749 2.23795 10.8814 2.6434 11.3923 3.1545C11.9032 3.66559 12.3085 4.27231 12.5849 4.94002C12.8613 5.60772 13.0035 6.32334 13.0034 7.046C13.0032 8.50549 12.4231 9.90509 11.3909 10.9369C10.3587 11.9687 8.9589 12.5483 7.49942 12.548C6.03993 12.5477 4.64033 11.9677 3.6085 10.9355C2.57668 9.9033 1.99715 8.50349 1.99742 7.044Z" fill="currentColor"/>
</g>
</g>
<defs>
<clipPath id="bhclip0_4001_2661">
<rect width="18" height="20" fill="currentColor" transform="translate(0.455078)"/>
</clipPath>
<clipPath id="bhclip1_4001_2661">
<rect width="18" height="20" fill="currentColor" transform="translate(0.455078)"/>
</clipPath>
</defs>
</symbol><symbol viewBox="0 0 19 18" fill="none" id="icon-sections" xmlns="http://www.w3.org/2000/svg">
<path d="M14.125 11.25V16.5M16.75 13.875H11.5M7.75 13.875C7.75 15.739 6.23896 17.25 4.375 17.25C2.51104 17.25 1 15.739 1 13.875C1 12.011 2.51104 10.5 4.375 10.5C6.23896 10.5 7.75 12.011 7.75 13.875ZM17.5 4.125C17.5 5.98896 15.989 7.5 14.125 7.5C12.261 7.5 10.75 5.98896 10.75 4.125C10.75 2.26104 12.261 0.75 14.125 0.75C15.989 0.75 17.5 2.26104 17.5 4.125ZM7.75 4.125C7.75 5.98896 6.23896 7.5 4.375 7.5C2.51104 7.5 1 5.98896 1 4.125C1 2.26104 2.51104 0.75 4.375 0.75C6.23896 0.75 7.75 2.26104 7.75 4.125Z" stroke="currentColor" stroke-width="1.5" stroke-linecap="round" stroke-linejoin="round"/>
</symbol><symbol viewBox="0 0 24 24" fill="none" id="icon-share" xmlns="http://www.w3.org/2000/svg">
<path d="M20.25 9.375L20.2493 3.75075L14.625 3.75M13.4973 10.5027L20.2473 3.75268M17.25 13.5V19.5C17.25 19.6989 17.171 19.8897 17.0303 20.0303C16.8897 20.171 16.6989 20.25 16.5 20.25H4.5C4.30109 20.25 4.11032 20.171 3.96967 20.0303C3.82902 19.8897 3.75 19.6989 3.75 19.5V7.5C3.75 7.30109 3.82902 7.11032 3.96967 6.96967C4.11032 6.82902 4.30109 6.75 4.5 6.75H10.5" stroke="currentColor" stroke-width="1.5" stroke-linecap="round" stroke-linejoin="round"/>
</symbol><symbol viewBox="0 0 20 17" fill="none" id="icon-share-min" xmlns="http://www.w3.org/2000/svg">
<path d="M14.5 10L19 5.5M19 5.5L14.5 1M19 5.5H13.75C11.7545 5.50015 9.81563 6.1632 8.23792 7.38497C6.6602 8.60675 5.53305 10.318 5.03355 12.25M16 16H1.75C1.55109 16 1.36032 15.921 1.21967 15.7803C1.07902 15.6397 1 15.4489 1 15.25V4" stroke="currentColor" stroke-width="2" stroke-linecap="round" stroke-linejoin="round"/>
</symbol><symbol viewBox="0 0 40 40" fill="none" id="icon-shield" xmlns="http://www.w3.org/2000/svg">
<path d="M26.8448 14.9827L17.688 23.7232L13.1097 19.3529M6.24219 16.6476V7.49083C6.24219 7.15967 6.37374 6.84207 6.60791 6.60791C6.84207 6.37374 7.15967 6.24219 7.49083 6.24219H32.4637C32.7949 6.24219 33.1125 6.37374 33.3466 6.60791C33.5808 6.84207 33.7123 7.15967 33.7123 7.49083V16.6476C33.7123 29.7607 22.5829 34.1052 20.3606 34.8419C20.1122 34.9274 19.8423 34.9274 19.5939 34.8419C17.3717 34.1052 6.24219 29.7607 6.24219 16.6476Z" stroke="currentColor" stroke-width="1.5" stroke-linecap="round" stroke-linejoin="round"/>
</symbol><symbol viewBox="0 0 24 24" fill="none" id="icon-sort" xmlns="http://www.w3.org/2000/svg">
<path d="M10.5 18L7.5 21M7.5 21L4.5 18M7.5 21V3M13.5 6L16.5 3M16.5 3L19.5 6M16.5 3V21" stroke="currentColor" stroke-width="1.5" stroke-linecap="round" stroke-linejoin="round"/>
</symbol><symbol viewBox="0 0 20 18" fill="none" id="icon-star" xmlns="http://www.w3.org/2000/svg">
<path d="M10 14.4663L16.18 18L14.54 11.34L20 6.85895L12.81 6.28105L10 0L7.19 6.28105L0 6.85895L5.46 11.34L3.82 18L10 14.4663Z" fill="currentColor"/>
</symbol><symbol viewBox="0 0 26 26" fill="none" id="icon-tel" xmlns="http://www.w3.org/2000/svg">
<path d="M3.5 2.43359C4.40557 1.63056 5.72957 1.64013 6.64844 2.4209L7.01172 2.74316C7.36839 3.07161 7.70834 3.41829 8.04688 3.75879C8.74468 4.46053 9.4612 5.15592 10.1211 5.90039H10.1221C10.9423 6.82517 10.9179 8.16152 10.0918 9.08301C9.50889 9.73282 8.88265 10.3465 8.24609 11.0049C8.43483 11.3432 8.61227 11.7005 8.83691 12.0342C10.1803 14.0322 11.8567 15.6993 13.8721 17.0176C13.9992 17.1006 14.1347 17.1728 14.2754 17.2451C14.415 17.3169 14.5608 17.3896 14.7002 17.4727L14.7578 17.498C14.7707 17.5011 14.7784 17.5001 14.7832 17.499C14.7983 17.4956 14.8221 17.4826 14.8672 17.4375L15.7021 16.5977C15.9826 16.3181 16.267 16.0417 16.5615 15.7773C17.101 15.2933 17.6949 15.0432 18.291 15.0449C18.8873 15.0468 19.4732 15.3005 19.9971 15.8008C21.1153 16.8689 22.2022 17.9734 23.2588 19.1025C24.0952 19.9962 24.0805 21.3573 23.2969 22.293C23.0177 22.6261 22.7053 22.9327 22.4062 23.2383C21.9429 23.7121 21.4841 24.2072 20.9883 24.6572C20.4874 25.1116 19.8921 25.3813 19.2412 25.5068L18.959 25.5527C18.948 25.5541 18.9344 25.5576 18.9141 25.5654C18.8977 25.5717 18.8671 25.5853 18.8418 25.5938L18.8262 25.5986H17.7275L17.7188 25.5967C17.4648 25.5524 17.2129 25.5072 16.96 25.4658C15.6277 25.2468 14.3923 24.75 13.1973 24.167C10.4309 22.8175 7.9954 21.0117 5.90625 18.7539C3.8141 16.4926 2.07636 13.9896 0.977539 11.0781C0.584248 10.0353 0.285999 8.96571 0.226562 7.83691C0.158872 6.55548 0.481851 5.40111 1.4209 4.4668C2.10392 3.78706 2.77435 3.07722 3.5 2.43359ZM4.91992 3.5C4.73568 3.54381 4.542 3.66041 4.33789 3.86133C3.80304 4.38768 3.27585 4.94221 2.72852 5.46387C2.11909 6.04449 1.82576 6.73242 1.86523 7.44434L1.81543 7.44727H1.86523C1.86134 8.50717 2.11748 9.39843 2.43359 10.2832C3.28569 12.664 4.63749 14.7526 6.25586 16.6816C8.36426 19.1956 10.8781 21.2016 13.8242 22.6553C15.1655 23.3167 16.5375 23.8542 18.0352 23.9648C18.7506 24.0178 19.4193 23.8987 19.9355 23.4121C20.6481 22.7396 21.3287 22.0302 21.9961 21.3096C22.1763 21.1148 22.2542 20.9068 22.248 20.7031C22.2418 20.4982 22.1496 20.2855 21.9688 20.083C21.7822 19.8737 21.5811 19.6778 21.3779 19.4746H21.377C20.5544 18.6514 19.736 17.8257 18.9082 17.0098C18.6922 16.797 18.4791 16.7006 18.2734 16.6982C18.0671 16.696 17.8488 16.7885 17.6211 16.9922L17.6201 16.9912C17.5502 17.0541 17.4847 17.1218 17.415 17.1914C16.857 17.7482 16.3006 18.3096 15.7383 18.8633C15.5287 19.0694 15.2968 19.198 15.0479 19.2393C14.7988 19.2805 14.5418 19.2329 14.2852 19.1035C13.9445 18.9322 13.6011 18.7568 13.2705 18.5605C11.7651 17.6675 10.4631 16.5273 9.28809 15.2451C8.266 14.1298 7.33273 12.9407 6.70508 11.5352C6.55227 11.1928 6.48807 10.9045 6.54199 10.6299C6.59597 10.3554 6.76426 10.1118 7.03418 9.85059C7.62979 9.27342 8.22384 8.69629 8.79688 8.09961C9.0001 7.88797 9.08968 7.6865 9.0918 7.49219C9.09379 7.29691 9.00783 7.08883 8.81934 6.8623L8.66309 6.6875C7.7155 5.73728 6.76829 4.7858 5.81641 3.83984C5.71403 3.73814 5.59624 3.6469 5.47266 3.58203C5.28389 3.48271 5.10157 3.45688 4.91992 3.5Z" fill="currentColor" stroke="currentColor" stroke-width="0.15"/>
<path d="M13.5977 0.608398C13.7861 0.438453 14.0554 0.362579 14.3477 0.417969C17.0004 0.918188 19.3259 2.06683 21.2939 3.92871C23.2351 5.76435 24.5248 7.98029 25.1797 10.5674L25.3457 11.2754C25.3831 11.4401 25.4032 11.609 25.4033 11.7783V11.7891C25.4032 11.7952 25.403 11.804 25.4023 11.8145C25.4011 11.8353 25.3976 11.8642 25.3916 11.8984C25.3796 11.9663 25.355 12.0582 25.3008 12.1484C25.246 12.2396 25.1618 12.3284 25.0352 12.3887C24.9089 12.4487 24.7469 12.4769 24.541 12.457V12.4561C24.3326 12.4371 24.1528 12.3647 24.0146 12.2314C23.8771 12.0986 23.7887 11.9134 23.7471 11.6855C23.4856 10.2539 22.9922 8.90912 22.2393 7.66504C21.2705 6.06412 20.004 4.75737 18.4414 3.75L18.125 3.55273C16.8942 2.80995 15.5709 2.30954 14.1553 2.05273H14.1543C13.9182 2.00971 13.7264 1.92668 13.5869 1.80371C13.4456 1.67911 13.3633 1.5172 13.3418 1.3291C13.3085 1.03624 13.409 0.778544 13.5977 0.608398Z" fill="currentColor" stroke="currentColor" stroke-width="0.15"/>
<path d="M13.9541 4.94727C14.5454 4.94738 15.324 5.23109 15.9258 5.49707H15.9268C18.4166 6.59918 20.0217 8.48482 20.7266 11.1201C20.7857 11.3408 20.8383 11.5725 20.8555 11.8066C20.8828 12.1729 20.6642 12.497 20.3486 12.6172L20.208 12.6562C19.7912 12.7282 19.4038 12.5098 19.2754 12.0967C19.2001 11.8545 19.14 11.6044 19.0771 11.3643C19.0137 11.1218 18.9465 10.8859 18.8525 10.6631C17.9365 8.48917 16.33 7.12605 14.0215 6.60156C13.9799 6.5921 13.938 6.58398 13.8936 6.5752C13.8498 6.56653 13.8036 6.55743 13.7578 6.5459H13.7568C13.3304 6.43684 13.0835 6.06585 13.1406 5.62793C13.1427 5.61238 13.1453 5.59712 13.1475 5.58203C13.2062 5.17976 13.5738 4.94727 13.9541 4.94727Z" fill="currentColor" stroke="currentColor" stroke-width="0.15"/>
</symbol><symbol viewBox="0 0 30 30" fill="none" id="icon-tg" xmlns="http://www.w3.org/2000/svg">
  <path d="M0.300781 14.8195C0.300781 22.8252 6.81329 29.3382 14.8195 29.3382C22.8257 29.3382 29.3382 22.8252 29.3382 14.8195C29.3382 6.81385 22.8257 0.300781 14.8195 0.300781C6.81329 0.300781 0.300781 6.81385 0.300781 14.8195ZM1.99453 14.8195C1.99453 7.74842 7.74842 1.99453 14.8195 1.99453C21.8906 1.99453 27.6445 7.74842 27.6445 14.8195C27.6445 21.8906 21.8906 27.6445 14.8195 27.6445C7.74842 27.6445 1.99453 21.8906 1.99453 14.8195Z" fill="currentColor" stroke="currentColor" stroke-width="0.6"/>
  <path d="M7.9531 14.024L20.0052 9.3772C20.5646 9.17509 21.0531 9.5136 20.8718 10.3595L20.8729 10.3584L18.8208 20.0261C18.6687 20.7116 18.2614 20.8782 17.6916 20.5553L14.5666 18.2522L13.0593 19.7043C12.8927 19.8709 12.752 20.0115 12.4291 20.0115L12.651 16.8313L18.4427 11.599C18.6948 11.3772 18.3864 11.2522 18.0541 11.473L10.8968 15.9793L7.81143 15.0168C7.14164 14.8043 7.12705 14.347 7.9531 14.024Z" fill="currentColor"/>
</symbol><symbol viewBox="0 0 20 20" fill="none" id="icon-tg-2" xmlns="http://www.w3.org/2000/svg">
<path d="M6.46812 10.1455L13.1932 15.8561C13.271 15.9221 13.3653 15.9676 13.4668 15.9879C13.5682 16.0083 13.6735 16.0028 13.7721 15.9721C13.8707 15.9414 13.9594 15.8865 14.0295 15.8128C14.0995 15.7391 14.1485 15.6491 14.1717 15.5516L16.9849 3.70632C17.0092 3.6039 17.0041 3.49703 16.9701 3.3972C16.9361 3.29738 16.8746 3.20839 16.7921 3.13984C16.7096 3.07128 16.6092 3.02575 16.5019 3.00815C16.3945 2.99056 16.2842 3.00156 16.1829 3.03998L2.37955 8.27256C2.25925 8.31816 2.15749 8.40013 2.08949 8.50619C2.0215 8.61226 1.99092 8.73671 2.00234 8.86094C2.01376 8.98517 2.06656 9.1025 2.15284 9.19535C2.23913 9.28821 2.35425 9.35161 2.48099 9.37607L6.46812 10.1455ZM6.46812 10.1455V14.8446C6.46812 14.9588 6.50322 15.0704 6.56896 15.1653C6.63471 15.2603 6.72816 15.3343 6.83749 15.378C6.94682 15.4217 7.06712 15.4331 7.18319 15.4108C7.29925 15.3886 7.40587 15.3336 7.48954 15.2528L9.8268 12.9975M6.46812 10.1455L16.6482 3.05108" stroke="currentColor" stroke-linecap="round" stroke-linejoin="round"/>
</symbol><symbol viewBox="0 0 16 22" fill="none" id="icon-timer" xmlns="http://www.w3.org/2000/svg">
<path d="M7.92344 11L1.84344 15.75C1.74408 15.8276 1.66344 15.9283 1.6079 16.044C1.55235 16.1597 1.52344 16.2873 1.52344 16.4167V20.1667C1.52344 20.3877 1.60772 20.5996 1.75775 20.7559C1.90778 20.9122 2.11126 21 2.32344 21H13.5234C13.7356 21 13.9391 20.9122 14.0891 20.7559C14.2392 20.5996 14.3234 20.3877 14.3234 20.1667V16.454C14.3234 16.3252 14.2948 16.1981 14.2397 16.0828C14.1845 15.9674 14.1045 15.867 14.0058 15.7893L7.92344 11ZM7.92344 11V15.1662M7.92344 11L1.84344 6.25C1.74408 6.17238 1.66344 6.07172 1.6079 5.95601C1.55235 5.8403 1.52344 5.7127 1.52344 5.58333V1.83333C1.52344 1.61232 1.60772 1.40036 1.75775 1.24408C1.90778 1.0878 2.11126 1 2.32344 1H13.5234C13.7356 1 13.9391 1.0878 14.0891 1.24408C14.2392 1.40036 14.3234 1.61232 14.3234 1.83333V5.54596C14.3234 5.6748 14.2948 5.80189 14.2397 5.91723C14.1845 6.03258 14.1045 6.13305 14.0058 6.21074L7.92344 11ZM2.5895 6.83286H13.2157" stroke="currentColor" stroke-width="2" stroke-linecap="round" stroke-linejoin="round"/>
</symbol><symbol viewBox="0 0 24 24" fill="none" id="icon-truck" xmlns="http://www.w3.org/2000/svg">
<path d="M1.5 12.75C1.08579 12.75 0.75 13.0858 0.75 13.5C0.75 13.9142 1.08579 14.25 1.5 14.25V13.5V12.75ZM16.5 14.25C16.9142 14.25 17.25 13.9142 17.25 13.5C17.25 13.0858 16.9142 12.75 16.5 12.75V13.5V14.25ZM15.75 16.0514C15.75 16.4656 16.0858 16.8014 16.5 16.8014C16.9142 16.8014 17.25 16.4656 17.25 16.0514H16.5H15.75ZM22.5 11.25H23.25C23.25 11.1546 23.2318 11.06 23.1964 10.9715L22.5 11.25ZM16.5 7.5V6.75C16.0858 6.75 15.75 7.08579 15.75 7.5H16.5ZM20.4922 7.5L20.4922 6.75H20.4922V7.5ZM21.1886 7.97146L21.8849 7.69291L21.8849 7.69291L21.1886 7.97146ZM1.5 17.25H0.75H1.5ZM2.25 6V6.75V6ZM16.5 6H17.25C17.25 5.58579 16.9142 5.25 16.5 5.25V6ZM15.375 18V17.25H8.625V18V18.75H15.375V18ZM19.875 18H19.125C19.125 18.8284 18.4534 19.5 17.625 19.5V20.25V21C19.2819 21 20.625 19.6569 20.625 18H19.875ZM17.625 20.25V19.5C16.7966 19.5 16.125 18.8284 16.125 18H15.375H14.625C14.625 19.6569 15.9681 21 17.625 21V20.25ZM15.375 18H16.125C16.125 17.1716 16.7966 16.5 17.625 16.5V15.75V15C15.9681 15 14.625 16.3431 14.625 18H15.375ZM17.625 15.75V16.5C18.4534 16.5 19.125 17.1716 19.125 18H19.875H20.625C20.625 16.3431 19.2819 15 17.625 15V15.75ZM8.625 18H7.875C7.875 18.8284 7.20343 19.5 6.375 19.5V20.25V21C8.03185 21 9.375 19.6569 9.375 18H8.625ZM6.375 20.25V19.5C5.54657 19.5 4.875 18.8284 4.875 18H4.125H3.375C3.375 19.6569 4.71815 21 6.375 21V20.25ZM4.125 18H4.875C4.875 17.1716 5.54657 16.5 6.375 16.5V15.75V15C4.71815 15 3.375 16.3431 3.375 18H4.125ZM6.375 15.75V16.5C7.20343 16.5 7.875 17.1716 7.875 18H8.625H9.375C9.375 16.3431 8.03185 15 6.375 15V15.75ZM1.5 13.5V14.25H16.5V13.5V12.75H1.5V13.5ZM16.5 16.0514H17.25V11.25H16.5H15.75V16.0514H16.5ZM16.5 11.25V12H22.5V11.25V10.5H16.5V11.25ZM22.5 11.25H21.75V17.25H22.5H23.25V11.25H22.5ZM22.5 17.25H21.75L21.75 17.25L22.2803 17.7803L22.8107 18.3107C23.092 18.0294 23.25 17.6478 23.25 17.25H22.5ZM22.2803 17.7803L21.75 17.25L21.75 17.25V18V18.75C22.1478 18.75 22.5294 18.592 22.8107 18.3107L22.2803 17.7803ZM21.75 18V17.25H19.875V18V18.75H21.75V18ZM16.5 11.25H17.25V7.5H16.5H15.75V11.25H16.5ZM16.5 7.5V8.25H20.4922V7.5V6.75H16.5V7.5ZM20.4922 7.5L20.4922 8.25L20.4922 8.25L20.9127 7.62895L21.3332 7.0079C21.0849 6.83983 20.792 6.75 20.4922 6.75L20.4922 7.5ZM20.9127 7.62895L20.4922 8.25L20.4922 8.25L21.1886 7.97146L21.8849 7.69291C21.7736 7.41457 21.5814 7.17597 21.3332 7.0079L20.9127 7.62895ZM21.1886 7.97146L20.4922 8.25L21.8036 11.5285L22.5 11.25L23.1964 10.9715L21.8849 7.69291L21.1886 7.97146ZM4.125 18V17.25H2.25V18V18.75H4.125V18ZM2.25 18V17.25L2.25 17.25L1.71967 17.7803L1.18934 18.3107C1.47065 18.592 1.85218 18.75 2.25 18.75V18ZM1.71967 17.7803L2.25 17.25L2.25 17.25H1.5H0.75C0.75 17.6478 0.908035 18.0294 1.18934 18.3107L1.71967 17.7803ZM1.5 17.25H2.25V6.75H1.5H0.75V17.25H1.5ZM1.5 6.75H2.25L2.25 6.75L1.71967 6.21967L1.18934 5.68934C0.908035 5.97064 0.75 6.35218 0.75 6.75H1.5ZM1.71967 6.21967L2.25 6.75L2.25 6.75L2.25 6L2.25 5.25C1.85217 5.25 1.47064 5.40804 1.18934 5.68934L1.71967 6.21967ZM2.25 6V6.75H16.5V6V5.25H2.25V6ZM16.5 6H15.75V16.0514H16.5H17.25V6H16.5Z" fill="currentColor"/>
</symbol><symbol viewBox="0 0 20 20" fill="none" id="icon-vk" xmlns="http://www.w3.org/2000/svg">
<path d="M8.14453 4.89648C8.8389 4.83447 10.1576 4.83486 10.8525 4.89648C11.0441 4.91352 11.224 4.9699 11.3633 5.08887C11.4698 5.17994 11.544 5.30008 11.584 5.44629L11.6123 5.60059L11.6445 6.04785C11.6633 6.50267 11.646 6.9789 11.627 7.4502C11.6014 8.08304 11.5718 8.70707 11.6113 9.28223C11.6164 9.35539 11.6204 9.41718 11.6279 9.4707C11.6337 9.51222 11.6416 9.53762 11.6475 9.55273C11.6633 9.5491 11.6921 9.54028 11.7373 9.51562C11.9196 9.416 12.1322 9.20984 12.3594 8.92578C12.584 8.64486 12.8136 8.29985 13.0322 7.93848C13.4691 7.21608 13.8573 6.43692 14.0732 5.9873C14.1342 5.86031 14.1803 5.74426 14.2334 5.62402C14.2844 5.50843 14.3401 5.39273 14.4141 5.29004C14.4896 5.1852 14.5848 5.09356 14.7129 5.02441C14.8401 4.9558 14.9934 4.91313 15.1807 4.89648C15.376 4.87924 15.8299 4.86698 16.2705 4.87109C16.4915 4.87316 16.712 4.87963 16.8975 4.8916C17.0767 4.90319 17.2411 4.92033 17.3379 4.95117C17.5791 5.02809 17.723 5.18446 17.7832 5.38574C17.8399 5.57556 17.8177 5.79094 17.7676 5.99219C17.7174 6.19347 17.6343 6.40123 17.5488 6.58691L17.3174 7.05078C16.7468 8.16659 15.9946 9.19502 15.3398 10.2305C15.3155 10.2859 15.317 10.345 15.3457 10.4229L15.3486 10.4287C15.3508 10.4328 15.3542 10.4384 15.3584 10.4453C15.367 10.4592 15.379 10.4771 15.3945 10.498C15.4258 10.5401 15.4683 10.5914 15.5195 10.6504C15.6223 10.7686 15.7559 10.9106 15.8955 11.0557C16.1699 11.3407 16.476 11.6453 16.5947 11.7822C16.8032 12.0227 17.1563 12.4369 17.4707 12.8672C17.6278 13.0823 17.7765 13.3041 17.8936 13.5117C18.0089 13.7163 18.1006 13.919 18.1309 14.0947C18.1813 14.3885 18.1331 14.6381 17.9756 14.8213C17.8213 15.0006 17.5853 15.0889 17.3174 15.1162C16.9625 15.1525 16.3666 15.1577 15.8906 15.1416L15.4678 15.1182C15.2316 15.0991 15.0048 14.9917 14.7949 14.8457C14.5841 14.6991 14.3794 14.5066 14.1865 14.3037C13.9934 14.1006 13.8074 13.8812 13.6357 13.6816C13.4623 13.48 13.3048 13.3001 13.1641 13.165C13.0034 13.0108 12.7449 12.7691 12.4736 12.5674C12.3379 12.4665 12.2016 12.3779 12.0762 12.3154C11.9483 12.2518 11.8441 12.2221 11.7676 12.2227C11.7134 12.2231 11.6856 12.2314 11.6729 12.2373C11.6639 12.2415 11.6597 12.2454 11.6553 12.2529C11.6487 12.2643 11.6407 12.2852 11.6338 12.3242C11.6268 12.3639 11.6232 12.4102 11.6172 12.4707C11.5903 12.7448 11.6111 13.0799 11.627 13.4297C11.6424 13.7698 11.6535 14.1267 11.5947 14.4121C11.5043 14.8508 11.0654 15.0259 10.75 15.0752C9.2101 15.3169 7.5851 14.633 6.40918 13.7041C5.51028 12.9945 4.59446 11.825 3.8252 10.5674C3.05507 9.30829 2.4229 7.947 2.09473 6.8457C2.00811 6.55516 1.85506 6.12018 1.85059 5.74805C1.84832 5.55801 1.88379 5.36334 2.00293 5.20508C2.12483 5.04319 2.31624 4.94275 2.57812 4.90918C3.04375 4.84955 4.06135 4.85343 4.5293 4.89844C4.71981 4.91681 4.88796 4.97109 5.03223 5.07031C5.17625 5.16936 5.28808 5.30724 5.37695 5.47852C5.51198 5.73882 5.62563 6.05896 5.73438 6.37402C5.84458 6.69334 5.94964 7.0084 6.06836 7.27734H6.06934C6.32533 7.85757 6.65854 8.52728 6.98926 9.05762C7.08746 9.21508 7.25717 9.4699 7.4375 9.70898C7.62268 9.9545 7.80384 10.1614 7.92676 10.2432L8.02246 10.2949C8.03183 10.2982 8.03919 10.299 8.04395 10.2998C8.04511 10.2977 8.04725 10.2954 8.04883 10.292C8.06287 10.2615 8.07415 10.2098 8.08203 10.1357C8.08978 10.0628 8.0924 9.9871 8.09766 9.90527C8.1201 9.55742 8.14046 8.90293 8.12793 8.26074C8.12166 7.93963 8.10695 7.62348 8.08105 7.35156C8.05481 7.07608 8.01795 6.85781 7.9707 6.72559C7.93604 6.62874 7.87344 6.52828 7.79492 6.41602C7.72052 6.30965 7.62716 6.18601 7.55469 6.06641C7.48109 5.94491 7.41591 5.80675 7.40234 5.65527C7.38829 5.4972 7.43141 5.33903 7.54883 5.18555C7.70961 4.97525 7.9351 4.91503 8.14453 4.89648ZM10.6855 5.48926C10.0215 5.4435 8.89143 5.43086 8.24219 5.48926C8.13809 5.49858 8.0659 5.52163 8.0293 5.55078C8.01454 5.56258 8.00686 5.57438 8.00293 5.58789C7.99863 5.60297 7.99627 5.63149 8.00879 5.68066V5.68164C8.00991 5.68431 8.01294 5.69117 8.01953 5.70312C8.02906 5.72038 8.0429 5.74234 8.06055 5.76855C8.0959 5.82106 8.14182 5.8832 8.19238 5.95117C8.28763 6.07921 8.4081 6.23892 8.46191 6.35547C8.59185 6.63674 8.66508 6.9949 8.68457 7.2959C8.73543 8.08149 8.73762 9.28914 8.68457 10.0742C8.66838 10.3145 8.61994 10.5079 8.53613 10.6494C8.44925 10.7961 8.32354 10.8869 8.16895 10.9092C8.02174 10.9302 7.86956 10.8865 7.72852 10.8115C7.58602 10.7358 7.44131 10.622 7.30176 10.4834C6.71207 9.89742 6.27213 9.10844 5.90234 8.2959C5.71706 7.88875 5.54824 7.47237 5.38672 7.06934C5.22474 6.66516 5.07009 6.27582 4.91309 5.91699C4.82864 5.72416 4.78442 5.63776 4.72559 5.58594C4.67462 5.54107 4.59508 5.50905 4.39551 5.49219C3.95717 5.45519 3.1494 5.45185 2.72168 5.50098C2.58358 5.51686 2.51459 5.54967 2.48047 5.57812C2.45204 5.60193 2.43514 5.63311 2.43066 5.6875C2.42572 5.74796 2.43705 5.82719 2.46094 5.93066C2.47257 5.98104 2.48698 6.0338 2.50195 6.09082C2.51679 6.14731 2.53222 6.20786 2.54688 6.26953C2.78713 7.28257 3.38972 8.63767 4.13281 9.91309C4.87634 11.1892 5.75039 12.3678 6.52441 13.0361C7.04928 13.4891 7.72584 13.9081 8.44434 14.1855C9.16389 14.4634 9.91537 14.5954 10.5947 14.4854C10.6999 14.4683 10.81 14.4462 10.8965 14.4053C10.9796 14.3658 11.0175 14.3206 11.0264 14.2627C11.065 14.0108 11.0548 13.7006 11.0391 13.3691C11.0237 13.0447 11.0027 12.6993 11.0254 12.4014C11.0422 12.1807 11.0908 11.9761 11.2207 11.8291C11.3569 11.6751 11.5563 11.6128 11.8047 11.6182C12.0943 11.6246 12.3927 11.7653 12.6768 11.96C12.9637 12.1566 13.2536 12.421 13.5293 12.7002C13.8055 12.98 14.0723 13.2797 14.3105 13.5479C14.5506 13.8179 14.7591 14.0526 14.9258 14.2119C15.1172 14.3947 15.2882 14.4995 15.5312 14.5244C15.6858 14.5402 16.1094 14.5506 16.5312 14.5449C16.7409 14.5421 16.9467 14.5352 17.1152 14.5234C17.1995 14.5176 17.273 14.5101 17.332 14.502C17.3936 14.4935 17.4308 14.4855 17.4473 14.4795C17.5194 14.4531 17.5427 14.4148 17.5518 14.3662C17.5633 14.3037 17.5507 14.213 17.5107 14.0986C17.4315 13.8721 17.274 13.6299 17.1865 13.4941C16.8795 13.0182 16.5151 12.616 16.1377 12.2207C15.7628 11.828 15.3699 11.4375 15.0234 10.999C14.8463 10.7749 14.7324 10.5869 14.7227 10.377C14.7131 10.169 14.8078 9.97158 14.9463 9.73633L15.208 9.31738C15.2989 9.1789 15.393 9.04171 15.4863 8.90527C15.674 8.6309 15.8602 8.361 16.0273 8.08887C16.2099 7.79157 16.4914 7.34641 16.7383 6.89258C16.9887 6.43227 17.1893 5.98802 17.2275 5.69043C17.2365 5.62024 17.2287 5.58414 17.2217 5.56738C17.2163 5.55454 17.2082 5.54563 17.1904 5.53613C17.1686 5.52451 17.1341 5.51359 17.0811 5.50586C17.028 5.49815 16.9689 5.49436 16.8984 5.48926C16.7051 5.47526 16.3256 5.46339 15.9521 5.46777C15.7655 5.46996 15.5823 5.47619 15.4258 5.48828C15.2658 5.50065 15.145 5.51808 15.0771 5.53906C14.9381 5.58215 14.8253 5.72384 14.7188 5.94727C14.6675 6.05482 14.6226 6.17098 14.5771 6.28809C14.5327 6.40262 14.4863 6.52133 14.4365 6.62207L14.4355 6.62109C14.2386 7.01989 13.8163 7.8202 13.3389 8.55273C13.1004 8.9186 12.8457 9.27112 12.5977 9.5498C12.3551 9.82227 12.0986 10.0468 11.8535 10.1221C11.6322 10.19 11.4295 10.1687 11.2754 10.043C11.1284 9.92299 11.0554 9.73218 11.0312 9.52539C10.9622 8.9337 10.9865 8.28085 11.0146 7.63867C11.043 6.99141 11.0757 6.35481 11.0283 5.77539C11.0131 5.58868 10.9797 5.55172 10.9629 5.53906C10.9517 5.53065 10.9304 5.51987 10.8828 5.51074C10.8343 5.50145 10.7722 5.49524 10.6855 5.48926Z" fill="currentColor" stroke="currentColor" stroke-width="0.3"/>
</symbol><symbol viewBox="0 0 15 15" fill="none" id="icon-warn" xmlns="http://www.w3.org/2000/svg">
<path d="M7.03125 7.03125H7.5V10.3125H7.96875M13.125 7.5C13.125 10.6066 10.6066 13.125 7.5 13.125C4.3934 13.125 1.875 10.6066 1.875 7.5C1.875 4.3934 4.3934 1.875 7.5 1.875C10.6066 1.875 13.125 4.3934 13.125 7.5Z" stroke="currentColor" stroke-linecap="round" stroke-linejoin="round"/>
<path d="M7.38281 5.625C7.77114 5.625 8.08594 5.3102 8.08594 4.92188C8.08594 4.53355 7.77114 4.21875 7.38281 4.21875C6.99449 4.21875 6.67969 4.53355 6.67969 4.92188C6.67969 5.3102 6.99449 5.625 7.38281 5.625Z" fill="currentColor"/>
</symbol><symbol viewBox="0 0 29 29" fill="none" id="icon-wh" xmlns="http://www.w3.org/2000/svg">
<path d="M0 29L2.03845 21.553C0.780581 19.3732 0.119625 16.9022 0.120833 14.3683C0.124458 6.44646 6.5709 0 14.4915 0C18.3352 0.00120833 21.9433 1.49833 24.6572 4.21467C27.3699 6.931 28.8634 10.5415 28.8622 14.3816C28.8586 22.3046 22.4121 28.7511 14.4915 28.7511C12.0869 28.7499 9.71739 28.1469 7.61852 27.0014L0 29ZM7.97136 24.3999C9.99652 25.6022 11.9298 26.3223 14.4867 26.3235C21.0697 26.3235 26.4322 20.9658 26.4359 14.3792C26.4383 7.77925 21.1011 2.42875 14.4963 2.42633C7.90852 2.42633 2.54958 7.78408 2.54716 14.3695C2.54595 17.058 3.33378 19.0711 4.65691 21.1772L3.44978 25.5853L7.97136 24.3999ZM21.7306 17.7975C21.6412 17.6477 21.402 17.5583 21.0419 17.3783C20.683 17.1982 18.9176 16.3294 18.5877 16.2098C18.2591 16.0902 18.0198 16.0298 17.7794 16.3898C17.5401 16.7487 16.8514 17.5583 16.6423 17.7975C16.4333 18.0368 16.223 18.067 15.8642 17.887C15.5053 17.7069 14.3477 17.3287 12.9763 16.1047C11.9093 15.1525 11.1879 13.9768 10.9789 13.6167C10.7699 13.2578 10.9571 13.0633 11.136 12.8845C11.2979 12.7238 11.4948 12.4652 11.6749 12.2549C11.8573 12.0471 11.9166 11.8973 12.0374 11.6568C12.157 11.4175 12.0978 11.2073 12.0072 11.0273C11.9166 10.8484 11.1988 9.08063 10.9004 8.36167C10.6079 7.66204 10.3119 7.75629 10.092 7.74542L9.40323 7.73333C9.16398 7.73333 8.7749 7.82275 8.44623 8.18283C8.11757 8.54292 7.18957 9.4105 7.18957 11.1783C7.18957 12.9461 8.47644 14.6535 8.65527 14.8927C8.83531 15.132 11.1867 18.7594 14.7888 20.3145C15.6455 20.6843 16.3149 20.9054 16.8357 21.0709C17.696 21.344 18.479 21.3053 19.0977 21.2135C19.7876 21.1108 21.2219 20.3447 21.5216 19.5061C21.8212 18.6663 21.8212 17.9474 21.7306 17.7975Z" fill="currentColor"/>
</symbol><symbol viewBox="0 0 21 21" fill="none" id="icon-wh-2" xmlns="http://www.w3.org/2000/svg">
<path d="M4.04956 14.3264C3.11735 12.7549 2.79088 10.8972 3.13146 9.10203C3.47204 7.30687 4.45623 5.69778 5.89924 4.57692C7.34225 3.45606 9.1448 2.90053 10.9684 3.01465C12.792 3.12877 14.5113 3.90468 15.8033 5.19669C17.0953 6.4887 17.8712 8.20793 17.9853 10.0315C18.0995 11.8552 17.544 13.6577 16.4231 15.1007C15.3023 16.5437 13.6932 17.5279 11.898 17.8685C10.1028 18.2091 8.2451 17.8827 6.67361 16.9505L4.08219 17.6908C3.97497 17.7214 3.86151 17.7228 3.75357 17.6949C3.64563 17.6669 3.54713 17.6106 3.46828 17.5317C3.38944 17.4529 3.33311 17.3544 3.30514 17.2464C3.27717 17.1385 3.27857 17.025 3.30921 16.9178L4.04956 14.3264Z" stroke="currentColor" stroke-linecap="round" stroke-linejoin="round"/>
<path d="M12.3878 14.8737C11.5652 14.8748 10.7504 14.7137 9.99023 14.3994C9.23003 14.0852 8.5393 13.624 7.95763 13.0423C7.37597 12.4607 6.9148 11.7699 6.60054 11.0097C6.28628 10.2495 6.12512 9.43478 6.12629 8.61218C6.12815 8.03317 6.3596 7.47854 6.76986 7.06994C7.18011 6.66135 7.73568 6.43216 8.3147 6.43266C8.40967 6.43266 8.50295 6.45776 8.5851 6.50543C8.66724 6.5531 8.73532 6.62164 8.78244 6.7041L9.69618 8.30315C9.75128 8.39958 9.77971 8.50895 9.77853 8.62001C9.77735 8.73107 9.7466 8.83982 9.68946 8.93506L8.95563 10.1581C9.33317 10.9959 10.004 11.6668 10.8419 12.0443L12.0649 11.3105C12.1601 11.2534 12.2689 11.2226 12.38 11.2214C12.491 11.2203 12.6004 11.2487 12.6968 11.3038L14.2959 12.2175C14.3783 12.2647 14.4469 12.3327 14.4945 12.4149C14.5422 12.497 14.5673 12.5903 14.5673 12.6853C14.5657 13.2636 14.3358 13.8179 13.9276 14.2277C13.5195 14.6375 12.9661 14.8697 12.3878 14.8737Z" stroke="currentColor" stroke-linecap="round" stroke-linejoin="round"/>
</symbol><symbol viewBox="0 0 32 33" fill="none" id="icon-zoom" xmlns="http://www.w3.org/2000/svg">
<path d="M9.125 14.4804H19.125M14.125 9.34522V19.6155M23.4052 24.0119L30.9991 31.811M27.25 14.4797C27.25 21.9244 21.3737 27.9595 14.125 27.9595C6.87626 27.9595 1 21.9244 1 14.4797C1 7.03508 6.87626 1 14.125 1C21.3737 1 27.25 7.03508 27.25 14.4797Z" stroke="currentColor" stroke-width="1.5" stroke-linecap="round" stroke-linejoin="round"/>
</symbol></svg>