<svg width="46" height="32" viewBox="0 0 46 32" fill="none" xmlns="http://www.w3.org/2000/svg">
<path d="M1 15.875C0.585786 15.875 0.25 16.2108 0.25 16.625C0.25 17.0392 0.585786 17.375 1 17.375V16.625V15.875ZM32.4028 17.375C32.817 17.375 33.1528 17.0392 33.1528 16.625C33.1528 16.2108 32.817 15.875 32.4028 15.875V16.625V17.375ZM31.6528 21.9404C31.6528 22.3547 31.9885 22.6904 32.4028 22.6904C32.817 22.6904 33.1528 22.3547 33.1528 21.9404H32.4028H31.6528ZM44.9639 11.9375H45.7139C45.7139 11.8417 45.6955 11.7467 45.6598 11.6578L44.9639 11.9375ZM32.4028 4.125V3.375C31.9885 3.375 31.6528 3.71079 31.6528 4.125H32.4028ZM40.7606 4.125L40.7606 3.375H40.7606V4.125ZM42.2184 5.1072L42.9143 4.82749L42.9143 4.82749L42.2184 5.1072ZM1 24.4375L0.25 24.4375L1 24.4375ZM2.57014 1V1.75V1ZM32.4028 1H33.1528C33.1528 0.585786 32.817 0.25 32.4028 0.25V1ZM30.0476 26V25.25H15.9163V26V26.75H30.0476V26ZM39.4684 26H38.7184C38.7184 28.1712 36.9487 29.9375 34.758 29.9375V30.6875V31.4375C37.7702 31.4375 40.2184 29.0065 40.2184 26H39.4684ZM34.758 30.6875V29.9375C32.5672 29.9375 30.7976 28.1712 30.7976 26H30.0476H29.2976C29.2976 29.0065 31.7457 31.4375 34.758 31.4375V30.6875ZM30.0476 26H30.7976C30.7976 23.8288 32.5672 22.0625 34.758 22.0625V21.3125V20.5625C31.7457 20.5625 29.2976 22.9935 29.2976 26H30.0476ZM34.758 21.3125V22.0625C36.9487 22.0625 38.7184 23.8288 38.7184 26H39.4684H40.2184C40.2184 22.9935 37.7702 20.5625 34.758 20.5625V21.3125ZM15.9163 26H15.1663C15.1663 28.1712 13.3966 29.9375 11.2059 29.9375V30.6875V31.4375C14.2181 31.4375 16.6663 29.0065 16.6663 26H15.9163ZM11.2059 30.6875V29.9375C9.01517 29.9375 7.24548 28.1712 7.24548 26H6.49548H5.74548C5.74548 29.0065 8.19365 31.4375 11.2059 31.4375V30.6875ZM6.49548 26H7.24548C7.24548 23.8288 9.01517 22.0625 11.2059 22.0625V21.3125V20.5625C8.19365 20.5625 5.74548 22.9935 5.74548 26H6.49548ZM11.2059 21.3125V22.0625C13.3966 22.0625 15.1663 23.8288 15.1663 26H15.9163H16.6663C16.6663 22.9935 14.2181 20.5625 11.2059 20.5625V21.3125ZM1 16.625V17.375H32.4028V16.625V15.875H1V16.625ZM32.4028 21.9404H33.1528V11.9375H32.4028H31.6528V21.9404H32.4028ZM32.4028 11.9375V12.6875H44.9639V11.9375V11.1875H32.4028V11.9375ZM44.9639 11.9375H44.2139V24.4375H44.9639H45.7139V11.9375H44.9639ZM44.9639 24.4375H44.2139C44.2139 24.6518 44.1284 24.8581 43.975 25.0107L44.504 25.5424L45.033 26.074C45.4685 25.6406 45.7139 25.052 45.7139 24.4375H44.9639ZM44.504 25.5424L43.975 25.0107C43.8214 25.1635 43.6124 25.25 43.3937 25.25V26V26.75C44.0079 26.75 44.5976 26.5073 45.033 26.074L44.504 25.5424ZM43.3937 26V25.25H39.4684V26V26.75H43.3937V26ZM32.4028 11.9375H33.1528V4.125H32.4028H31.6528V11.9375H32.4028ZM32.4028 4.125V4.875H40.7606V4.125V3.375H32.4028V4.125ZM40.7606 4.125L40.7606 4.875C40.9253 4.875 41.0859 4.92414 41.2218 5.01564L41.6408 4.39364L42.0599 3.77164C41.676 3.513 41.2234 3.375 40.7606 3.375L40.7606 4.125ZM41.6408 4.39364L41.2218 5.01564C41.3575 5.10712 41.4621 5.23659 41.5225 5.38692L42.2184 5.1072L42.9143 4.82749C42.7416 4.39792 42.4438 4.03031 42.0599 3.77164L41.6408 4.39364ZM42.2184 5.1072L41.5225 5.38692L44.268 12.2172L44.9639 11.9375L45.6598 11.6578L42.9143 4.82749L42.2184 5.1072ZM6.49548 26V25.25H2.57014V26V26.75H6.49548V26ZM2.57014 26V25.25C2.35145 25.25 2.14245 25.1635 1.98892 25.0107L1.45988 25.5424L0.930847 26.074C1.36624 26.5072 1.95598 26.75 2.57014 26.75V26ZM1.45988 25.5424L1.98892 25.0107C1.83551 24.8581 1.75 24.6518 1.75 24.4375L1 24.4375L0.25 24.4375C0.25 25.052 0.495335 25.6406 0.930847 26.074L1.45988 25.5424ZM1 24.4375H1.75V2.5625H1H0.25V24.4375H1ZM1 2.5625H1.75C1.75 2.3482 1.83551 2.14193 1.98892 1.98927L1.45988 1.45765L0.930847 0.926024C0.495335 1.35942 0.25 1.948 0.25 2.5625H1ZM1.45988 1.45765L1.98892 1.98927C2.14245 1.83649 2.35145 1.75 2.57014 1.75L2.57014 1L2.57014 0.25C1.95598 0.25 1.36624 0.492754 0.930847 0.926024L1.45988 1.45765ZM2.57014 1V1.75H32.4028V1V0.25H2.57014V1ZM32.4028 1H31.6528V21.9404H32.4028H33.1528V1H32.4028Z" fill="#EB6E03"/>
</svg>
