<svg width="29" height="28" viewBox="0 0 29 28" fill="none" xmlns="http://www.w3.org/2000/svg">
<path d="M18.4933 16.1374L10.6381 23.9926C10.0811 24.5501 9.38712 24.951 8.62595 25.1551C7.86478 25.3591 7.06329 25.3591 6.30212 25.1551L3.01946 26.5881C2.81274 26.6784 2.58362 26.7042 2.36199 26.6623C2.14035 26.6204 1.93649 26.5127 1.777 26.3532C1.66248 26.2387 1.58514 26.0923 1.55505 25.9332C1.52496 25.774 1.54352 25.6095 1.60831 25.4611L3.12773 21.9807C2.92364 21.2195 2.92363 20.418 3.1277 19.6568C3.33176 18.8957 3.7327 18.2017 4.29018 17.6447L12.1454 9.78948M21.4631 12.3742L22.1486 13.0597C22.357 13.2681 22.5223 13.5155 22.6351 13.7878C22.7479 14.0601 22.806 14.352 22.806 14.6467C22.806 14.9414 22.7479 15.2333 22.6351 15.5056C22.5223 15.7779 22.357 16.0253 22.1486 16.2337L21.1626 17.2197C20.9521 17.4302 20.6667 17.5484 20.3691 17.5484C20.0715 17.5484 19.786 17.4302 19.5756 17.2197L11.0631 8.70719C10.8526 8.49674 10.7344 8.21131 10.7344 7.9137C10.7344 7.61608 10.8526 7.33065 11.0631 7.1202L12.0491 6.13418C12.2575 5.92577 12.5049 5.76045 12.7772 5.64767C13.0495 5.53488 13.3413 5.47682 13.6361 5.47682C13.9308 5.47682 14.2226 5.53488 14.4949 5.64767C14.7672 5.76045 15.0147 5.92577 15.2231 6.13418L15.9086 6.81972L19.7784 2.94991C21.2917 1.43663 23.7573 1.34393 25.3115 2.81516C25.6931 3.17586 25.9985 3.60941 26.2096 4.09017C26.4207 4.57093 26.5333 5.08914 26.5406 5.61416C26.548 6.13918 26.45 6.66034 26.2525 7.14685C26.055 7.63335 25.7619 8.07531 25.3906 8.44659L21.4631 12.3742Z" stroke="#505052" stroke-width="2" stroke-linecap="round" stroke-linejoin="round"/>
</svg>
