<svg width="62" height="50" viewBox="0 0 62 50" fill="none" xmlns="http://www.w3.org/2000/svg">
<path d="M48.1034 13.6398C52.8053 13.2942 58.7871 15.051 60.6356 19.813C62.4892 24.5894 61.6507 32.3031 56.6666 34.9102C49.9983 38.398 38.7986 36.5341 37.6135 27.8434C36.536 19.9464 39.7952 14.2501 48.104 13.6398H48.1034ZM49.4915 19.1965C48.3404 19.214 46.9034 19.6085 46.3487 20.721C45.6317 22.1585 45.6096 28.0087 46.3538 29.4277C47.5287 31.667 52.3037 31.5877 52.879 28.7406C53.2045 27.1311 53.2421 22.8064 52.8635 21.2299C52.5112 19.7635 50.8548 19.1754 49.491 19.1965H49.4915Z" fill="#00AAFF"/>
<path d="M31.4644 14.3274C31.5746 14.2177 31.8285 14.213 31.9825 14.2007C32.5718 14.1518 35.3989 14.1142 35.814 14.2496C35.9072 14.28 35.9942 14.3258 36.0581 14.4026L36.1622 21.5605C36.1024 21.8423 35.8006 21.8335 35.5647 21.8536C34.2905 21.9612 32.8216 21.8006 31.5303 21.8067C29.8039 19.5509 26.4412 18.374 23.6465 18.6722C22.4851 18.7964 21.9577 19.8949 23.1722 20.4378C28.1125 22.1523 37.4086 22.7827 36.8992 30.0385C36.3697 37.5792 25.9174 37.7265 20.9611 34.6558L20.7334 34.8212C20.6273 35.1513 20.9132 35.8904 20.4496 36.0263C19.7033 35.9177 16.39 36.2571 15.9512 35.998C15.7823 35.8981 15.7653 35.586 15.7493 35.4057C15.5933 33.6598 15.603 30.3002 15.7498 28.5465C15.7962 27.9933 15.842 27.9475 16.3952 27.9011C17.5736 27.8023 18.9349 27.9465 20.1288 27.9485C20.4038 28.0397 20.8509 28.8653 21.113 29.1486C22.772 30.9419 25.938 31.6285 28.2861 31.254C29.5649 31.0501 30.8448 30.4042 28.9845 29.6167C24.4943 27.7163 16.0671 27.5216 15.5567 21.2026C14.8892 12.9342 25.7768 12.2116 31.0977 15.3971L31.3259 15.2323L31.4639 14.3279L31.4644 14.3274Z" fill="#00AAFF"/>
<path d="M11.1911 30.5841C11.3328 30.8066 13.6695 30.6026 14.1171 30.686C14.25 30.7108 14.3499 30.7602 14.4184 30.8812L14.472 35.6021L14.2696 35.995L0.218062 35.9477C0.0877548 35.7839 0.0836317 35.601 0.0671502 35.4038C-0.0229829 34.3397 -0.0219524 32.3893 0.0676657 31.3242C0.107324 30.854 0.117111 30.7355 0.616191 30.683C1.13536 30.6284 2.93699 30.8071 3.20893 30.5933C3.29083 30.529 3.33203 30.4347 3.34542 30.3327L3.28207 19.5845C3.07708 19.1106 0.696536 19.5762 0.194881 19.2409C0.115048 19.0442 0.0841477 18.8356 0.0681813 18.6234C-0.0152562 17.5459 -0.0276184 15.613 0.0671502 14.5448C0.0954777 14.2271 0.119687 13.8949 0.513182 13.8985L14.2036 13.9206C14.4014 13.9871 14.4488 14.2641 14.4699 14.4485C14.6358 15.885 14.3834 17.6948 14.4189 19.1668C14.3272 19.3321 14.1949 19.3475 14.0259 19.3692C13.139 19.4835 11.9431 19.0947 11.1916 19.6128V30.583L11.1911 30.5841Z" fill="#00AAFF"/>
<path d="M51.1931 11.4159C50.1759 11.8748 49.6253 10.4739 49.0691 9.83525C48.313 8.96742 46.4624 6.95311 45.5389 6.41593C44.6664 5.90862 43.7028 7.15707 42.8674 7.40789C42.7638 7.47536 42.6598 7.56961 42.6603 7.70146C42.6619 7.92704 45.32 10.6145 45.252 11.3639C44.9533 11.6533 44.4177 11.4226 44.1483 11.1816C43.5488 10.6449 42.8231 9.24451 42.12 8.54354C41.9537 8.3777 41.7703 8.16808 41.5169 8.15109L37.5459 9.53293C37.1215 9.89036 38.0378 10.887 38.0053 11.3634C36.8295 12.173 36.6611 10.0531 36.0595 9.93671L30.6428 10.5748C30.2776 10.6742 30.3852 11.1136 30.3394 11.4102C30.2106 11.4679 30.0463 11.5318 29.9062 11.5277C29.1805 11.505 29.4741 11.0744 29.3119 10.7294C29.1697 10.426 27.5427 10.4785 27.1276 10.4317C26.1345 10.3194 24.6579 9.9192 23.7499 9.92641C22.78 9.93414 23.1112 12.0782 21.7577 11.4303C21.5125 11.0991 22.5725 9.9192 22.2156 9.587L18.2899 8.23967C17.5405 8.28602 16.104 10.699 15.5653 11.281C15.2799 11.5009 14.7402 11.6786 14.4708 11.3762C15.1126 10.0068 16.2704 8.98132 17.0357 7.71537C17.0043 7.61648 16.9219 7.56755 16.8462 7.50832C16.737 7.42282 15.146 6.48186 15.0368 6.43962C14.2715 6.14348 13.5679 6.96393 13.0261 7.45115C11.7143 8.6311 10.6394 10.0325 9.49957 11.3706C9.19003 11.6162 8.85371 11.5271 8.51172 11.4236C13.4963 3.41328 23.0468 -0.734821 32.3882 0.107262C39.2878 0.729425 46.2389 4.44231 50.4066 9.98719C50.5817 10.2205 51.3347 11.2068 51.1936 11.4159H51.1931ZM35.0191 1.49837C32.1307 0.846338 29.2768 0.767538 26.3488 1.21562C26.0969 1.25425 24.5992 1.45047 24.5971 1.64567C26.973 3.49001 30.7988 3.59714 33.5285 2.5372C33.7196 2.46303 34.8445 1.92482 34.9202 1.84396C35.0315 1.72499 35.0407 1.65649 35.0191 1.49786V1.49837ZM36.2222 2.57737C37.5464 3.28503 38.9319 4.243 40.0841 5.21847C40.5115 5.58054 41.1657 6.48495 41.6694 6.61473C42.4296 6.81096 43.4164 5.88957 44.0535 5.51565C44.0885 5.37453 43.9268 5.30242 43.847 5.22774C42.7731 4.22034 38.1635 2.06852 36.7203 1.94954C36.6029 1.93976 36.3731 1.95315 36.3 2.05667L36.2212 2.57737H36.2222ZM23.4841 2.57274C23.6252 1.91916 22.881 1.93615 22.4087 2.04225C21.0768 2.34097 16.805 4.36558 15.8233 5.2844C15.7522 5.35084 15.6266 5.36989 15.6631 5.51101C15.7208 5.77883 17.6528 6.8877 18.0699 6.74298C19.7181 5.16285 21.5285 3.75268 23.4846 2.57325L23.4841 2.57274ZM22.9778 8.51573L26.0789 3.64401C26.012 3.41585 24.9669 3.1094 24.7238 3.11507C24.2294 3.12691 21.4193 5.13555 20.8749 5.57024C20.6369 5.76029 19.0666 7.09217 19.0398 7.21218C19.0058 7.36514 19.1644 7.41819 19.2633 7.47381C19.8129 7.78541 21.0268 8.16654 21.6645 8.34886C22.0183 8.45032 22.693 8.75728 22.9783 8.51573H22.9778ZM36.727 8.52449C37.035 8.7032 38.1722 8.27263 38.5456 8.15057C39.0468 7.98679 39.9682 7.67159 40.4044 7.42849C40.8865 7.16016 40.4704 6.8841 40.183 6.60855C39.1941 5.66037 37.1504 4.13432 35.9426 3.50186C35.0593 3.03936 34.075 2.79575 33.6403 3.90822L36.727 8.52397V8.52449ZM29.3603 9.29034V4.72353C29.3603 4.05037 27.5277 3.77225 27.0518 4.17501C26.2793 5.2571 25.4341 6.31601 24.7516 7.46145C24.4962 7.88996 24.1496 8.39367 24.0908 8.88038C24.1423 9.13377 28.6521 9.65808 29.1929 9.5422L29.3603 9.29034ZM30.4527 4.52524V9.29086C30.4527 9.31816 30.5547 9.52262 30.6201 9.54271C31.9453 9.5185 33.3375 9.36708 34.6405 9.1106C34.8393 9.07145 35.5058 9.02871 35.5238 8.79591C35.5285 8.67385 35.5022 8.56054 35.4682 8.44414C35.3302 7.97082 33.0753 4.66636 32.6854 4.37691C32.4382 4.19355 32.0014 4.00145 31.6945 3.99836C31.405 3.99526 30.5078 4.1884 30.4527 4.52472V4.52524Z" fill="#00AAFF"/>
<path d="M22.883 38.5552C23.0339 38.6984 23.2204 39.3865 23.3631 39.6131C23.6185 40.0195 24.0161 39.9468 24.4452 39.918C25.5432 39.8433 26.7866 39.5276 27.9222 39.4246C28.8092 39.3442 29.678 39.8181 29.6023 38.5238C29.7316 38.3337 30.2467 38.4424 30.4372 38.547C30.4547 38.926 30.48 39.3015 30.9214 39.4024C31.4431 39.5224 32.4598 39.4503 33.083 39.524C34.111 39.6461 35.1355 39.8552 36.1573 40.0148C37.0169 39.9602 36.8861 37.7018 38.1969 38.5825C38.1186 38.9394 37.4805 39.9973 37.6901 40.2713C38.92 40.8996 40.3065 41.2828 41.624 41.7165C41.9284 41.7562 42.0361 41.5929 42.2189 41.4106C43.0337 40.5994 43.6847 39.4318 44.395 38.5233C44.5814 38.3744 45.4894 38.3281 45.4364 38.6685L42.7638 42.2516L45.39 43.6983C45.7526 43.6638 47.9529 41.4765 48.3263 41.065C48.8743 40.4608 49.719 39.1084 50.2181 38.6876C50.4895 38.4584 50.9103 38.3791 51.2544 38.4311C51.3759 38.4496 51.4413 38.3816 51.4032 38.582C51.3579 38.8194 50.1563 40.362 49.9096 40.6632C39.8358 52.9839 20.5545 53.1436 10.301 40.9609C10.0733 40.6905 8.40662 38.6314 8.61109 38.4326C9.823 38.1669 9.9739 39.1233 10.5992 39.8691C11.4969 40.9393 13.0426 42.6827 14.1772 43.4393C14.3487 43.5536 14.598 43.7066 14.8086 43.6927C15.111 43.6731 17.0985 42.4963 17.1423 42.2403C16.5268 41.2792 15.6564 40.45 15.0615 39.4771C14.9281 39.2587 14.4718 38.6747 14.7618 38.4769C15.01 38.3914 15.2902 38.3863 15.5184 38.5243C15.8006 38.6948 17.0656 40.6535 17.4951 41.1139C17.6939 41.3271 18.1008 41.7948 18.3877 41.7979L22.3664 40.4238C22.4246 40.3784 22.4772 40.3207 22.4978 40.2481C22.5549 40.0473 21.9596 38.8668 21.8174 38.5804C22.0337 38.3126 22.6672 38.3523 22.883 38.5567V38.5552ZM29.4354 40.4408C29.3664 40.3707 29.2171 40.3336 29.1171 40.3341C27.9351 40.3408 26.0521 40.6112 24.8711 40.842C24.1706 40.979 24.184 41.0485 24.4781 41.6753C24.764 42.2846 26.6825 45.2481 27.1275 45.5782C27.8388 46.1067 28.7206 46.0546 29.4607 45.605C29.5621 44.9355 29.6945 40.7029 29.436 40.4408H29.4354ZM30.5516 40.4165V45.4304C30.5516 45.9218 32.4629 46.1571 32.8291 45.8218C33.5625 44.8325 34.3191 43.8441 34.9609 42.7909C35.1633 42.4587 35.8864 41.3858 35.821 41.0737C35.2503 40.7487 30.6989 40.1935 30.551 40.4165H30.5516ZM22.7862 41.3297C22.2449 41.3884 20.8656 41.9086 20.3011 42.1296C19.8942 42.2887 19.4363 42.4164 19.1361 42.7497C20.0796 43.7308 21.1205 44.628 22.2392 45.4031C22.865 45.8368 24.4179 46.8941 25.1333 46.8632C25.551 46.8452 26.3117 46.5037 26.1072 46.0062C25.8626 45.4108 24.8701 44.2211 24.4539 43.5856C23.9924 42.881 23.5732 42.1404 23.1555 41.4085C23.0514 41.2694 22.9253 41.3153 22.7857 41.3302L22.7862 41.3297ZM40.647 42.968L40.7608 42.6647C40.7237 42.5292 40.6099 42.4901 40.5043 42.4267C40.1077 42.1898 37.3177 41.221 37.0087 41.356L33.8648 46.2766C34.0132 46.8231 35.1581 46.8632 35.6093 46.7154C36.1027 46.5537 37.8786 45.3042 38.3864 44.9252C39.192 44.3241 39.8837 43.6134 40.647 42.968ZM41.9428 43.2132C41.6044 43.2837 41.2522 43.8132 40.9782 44.0414C40.2463 44.6501 39.4315 45.364 38.6846 45.9182C38.1129 46.3425 36.9438 46.907 36.5168 47.3242C36.438 47.4009 36.3031 47.5421 36.3561 47.6657C36.7898 48.2451 37.3723 47.95 37.9517 47.7671C40.0995 47.0899 42.5557 45.9027 44.2502 44.4374C44.1874 44.3689 44.1251 44.2989 44.0566 44.2366C43.8882 44.0821 42.5691 43.3033 42.3703 43.24C42.2138 43.19 42.1056 43.1797 41.9428 43.2137V43.2132ZM23.6999 47.7609C23.7329 47.5704 23.5716 47.4767 23.4506 47.3685C22.7378 46.7335 21.4667 46.0639 20.6338 45.4201C19.7809 44.7604 18.9877 44.0192 18.1709 43.3162C17.4663 43.1025 16.3388 44.0764 15.7589 44.439C15.7177 44.6064 16.6752 45.2043 16.859 45.3228C17.661 45.8388 18.6942 46.3935 19.5636 46.788C20.0863 47.025 22.8768 48.1457 23.2312 48.0468C23.3759 48.0061 23.4939 47.7512 23.6999 47.7615V47.7609ZM35.3168 48.4573C35.3513 48.2554 35.189 48.175 35.0525 48.0777C32.5628 46.2936 27.8949 46.4378 25.2878 47.9108C25.1261 48.002 24.6965 48.2039 24.6929 48.4078C28.1411 49.3339 31.8495 49.2437 35.3168 48.4573Z" fill="#00AAFF"/>
</svg>
