<svg width="19" height="25" viewBox="0 0 19 25" fill="none" xmlns="http://www.w3.org/2000/svg">
<path d="M0 1.95312C0 0.874444 0.877118 0 1.9591 0H11.4607L18.8073 7.37305V23.0469C18.8073 24.1256 17.9302 25 16.8482 25H1.9591C0.877118 25 0 24.1256 0 23.0469V1.95312Z" fill="url(#paint0_linear_2208_39639)"/>
<path d="M11.4607 0L18.8073 7.37305H11.4607V0Z" fill="#333333"/>
<path d="M4.85758 16.1621C5.25234 16.1621 5.59404 16.2277 5.88268 16.3589C6.17557 16.4901 6.40054 16.6763 6.55759 16.9175C6.71465 17.1587 6.79317 17.4443 6.79317 17.7744C6.79317 18.1003 6.71465 18.3859 6.55759 18.6313C6.40054 18.8726 6.17557 19.0588 5.88268 19.1899C5.59404 19.3169 5.25234 19.3804 4.85758 19.3804H3.95983V20.6055H2.92836V16.1621H4.85758ZM4.80028 18.5425C5.11014 18.5425 5.34573 18.4769 5.50702 18.3457C5.66832 18.2103 5.74897 18.0199 5.74897 17.7744C5.74897 17.5247 5.66832 17.3343 5.50702 17.2031C5.34573 17.0677 5.11014 17 4.80028 17H3.95983V18.5425H4.80028Z" fill="white"/>
<path d="M7.52956 16.1621H9.55429C10.0382 16.1621 10.4648 16.2552 10.8341 16.4414C11.2076 16.6234 11.4962 16.8815 11.7 17.2158C11.908 17.5501 12.012 17.9395 12.012 18.3838C12.012 18.8281 11.908 19.2174 11.7 19.5518C11.4962 19.8861 11.2076 20.1463 10.8341 20.3325C10.4648 20.5145 10.0382 20.6055 9.55429 20.6055H7.52956V16.1621ZM9.50335 19.7612C9.94905 19.7612 10.3035 19.6385 10.5667 19.3931C10.8341 19.1434 10.9678 18.807 10.9678 18.3838C10.9678 17.9606 10.8341 17.6263 10.5667 17.3809C10.3035 17.1312 9.94905 17.0063 9.50335 17.0063H8.56103V19.7612H9.50335Z" fill="white"/>
<path d="M13.8213 16.9873V18.1616H15.8843V18.9868H13.8213V20.6055H12.7899V16.1621H16.158V16.9873H13.8213Z" fill="white"/>
<defs>
<linearGradient id="paint0_linear_2208_39639" x1="3.3301e-07" y1="5.60345" x2="19.0273" y2="14.1369" gradientUnits="userSpaceOnUse">
<stop stop-color="#EB6E03"/>
<stop offset="1" stop-color="#FE602C"/>
</linearGradient>
</defs>
</svg>
