<svg width="52" height="52" viewBox="0 0 52 52" fill="none" xmlns="http://www.w3.org/2000/svg">
<rect width="52" height="52" rx="8" fill="#EB6E03"/>
<path d="M24.22 18.1796H27.3618C27.6592 18.1796 27.9269 18.0615 28.124 17.8659C28.3173 17.6741 28.44 17.4047 28.44 17.1095V6.96875H23.1454V17.1095C23.1454 17.4047 23.2644 17.6704 23.4615 17.8659C23.6548 18.0578 23.9262 18.1796 24.2237 18.1796H24.22ZM21.5875 41.4575V11.076H19.4571C18.7209 11.076 17.9029 11.8694 17.8992 11.873L17.1184 12.648C17.1184 12.648 16.293 13.375 16.293 14.22V38.3171C16.293 39.1622 17.1147 39.8891 17.1184 39.8891L17.8992 40.6604C17.8992 40.6604 18.7209 41.4575 19.4571 41.4575H21.5875ZM35.7275 26.6782V25.7741C35.7275 25.6892 35.6903 25.608 35.6346 25.5527C35.5751 25.4936 35.4933 25.4567 35.4078 25.4567H35.0769V14.2163C35.0769 13.3713 34.2514 12.6443 34.2514 12.6443L33.4706 11.8694C33.4706 11.8694 32.6489 11.0723 31.9127 11.0723H29.7823V25.4567H29.4105C29.3249 25.4567 29.2431 25.4936 29.1874 25.549C29.1279 25.6043 29.0944 25.6855 29.0944 25.7741V26.6782C29.0944 26.7667 29.1316 26.8479 29.1874 26.907C29.2431 26.9623 29.3249 26.9992 29.4105 26.9992H29.7823V41.4575H31.9127C32.6489 41.4575 33.4669 40.6641 33.4706 40.6604L34.2514 39.8891C34.2514 39.8891 35.0769 39.1622 35.0769 38.3171V27.0029H35.4115C35.497 27.0029 35.5788 26.9623 35.6383 26.9033C35.6941 26.8479 35.7312 26.7667 35.7312 26.6819L35.7275 26.6782ZM28.44 34.9184C28.44 34.6232 28.321 34.3538 28.1277 34.1656C27.9306 33.9737 27.6629 33.8519 27.3655 33.8519H24.2237C23.9262 33.8519 23.6585 33.97 23.4615 34.1656C23.2681 34.3575 23.1454 34.6269 23.1454 34.9221V45.0628H28.44V34.9221V34.9184Z" fill="white"/>
</svg>
