<svg width="25" height="24" viewBox="0 0 25 24" fill="none" xmlns="http://www.w3.org/2000/svg">
<path d="M2.91602 20.2491C3.8418 18.6531 5.17297 17.3278 6.77582 16.4064C8.37866 15.485 10.1967 15 12.0474 15C13.898 15 15.716 15.4851 17.3189 16.4065C18.9217 17.3279 20.2528 18.6533 21.1786 20.2493M16.5653 5.25H21.0833M18.8243 3V7.5M17.6996 11.0796C17.2969 12.1625 16.5889 13.1066 15.6606 13.7984C14.7323 14.4902 13.6232 14.9004 12.4666 14.9796C11.3099 15.0588 10.1549 14.8037 9.14022 14.245C8.12559 13.6862 7.2945 12.8476 6.7468 11.8298C6.19911 10.812 5.95809 9.65831 6.05272 8.5074C6.14735 7.35648 6.5736 6.25726 7.28025 5.34177C7.9869 4.42629 8.94391 3.73348 10.0363 3.34659C11.1287 2.9597 12.31 2.89518 13.4383 3.16077" stroke="#EB6E03" stroke-width="1.5" stroke-linecap="round" stroke-linejoin="round"/>
</svg>
