<svg aria-hidden="true" xmlns="http://www.w3.org/2000/svg" xmlns:xlink="http://www.w3.org/1999/xlink"><symbol viewBox="0 0 12 12" fill="none" id="icon-arrow-next" xmlns="http://www.w3.org/2000/svg">
<path d="M1.10742 5.25C0.693208 5.25 0.357422 5.58579 0.357422 6C0.357422 6.41421 0.693208 6.75 1.10742 6.75L1.10742 5.25ZM11.6378 6.53033C11.9306 6.23744 11.9306 5.76256 11.6378 5.46967L6.86478 0.696699C6.57189 0.403806 6.09701 0.403806 5.80412 0.696699C5.51123 0.989593 5.51123 1.46447 5.80412 1.75736L10.0468 6L5.80412 10.2426C5.51123 10.5355 5.51123 11.0104 5.80412 11.3033C6.09701 11.5962 6.57189 11.5962 6.86478 11.3033L11.6378 6.53033ZM1.10742 6L1.10742 6.75L11.1074 6.75L11.1074 6L11.1074 5.25L1.10742 5.25L1.10742 6Z" fill="currentColor"/>
</symbol><symbol viewBox="0 0 12 12" fill="none" id="icon-arrow-top" xmlns="http://www.w3.org/2000/svg">
<path d="M5.25 11C5.25 11.4142 5.58579 11.75 6 11.75C6.41421 11.75 6.75 11.4142 6.75 11L6 11L5.25 11ZM6.53033 0.46967C6.23744 0.176777 5.76256 0.176777 5.46967 0.46967L0.696699 5.24264C0.403806 5.53553 0.403806 6.01041 0.696699 6.3033C0.989592 6.59619 1.46447 6.59619 1.75736 6.3033L6 2.06066L10.2426 6.3033C10.5355 6.59619 11.0104 6.59619 11.3033 6.3033C11.5962 6.01041 11.5962 5.53553 11.3033 5.24264L6.53033 0.46967ZM6 11L6.75 11L6.75 1L6 1L5.25 1L5.25 11L6 11Z" fill="currentColor"/>
</symbol><symbol viewBox="0 0 10 11" fill="none" id="icon-back" xmlns="http://www.w3.org/2000/svg">
<path d="M6.25 8.625L3.125 5.5L6.25 2.375" stroke="currentColor" stroke-width="1.5" stroke-linecap="round" stroke-linejoin="round"/>
</symbol><symbol viewBox="0 0 10 10" fill="none" id="icon-bottom" xmlns="http://www.w3.org/2000/svg">
<path d="M8.125 3.75L5 6.875L1.875 3.75" stroke="currentColor" stroke-width="1.5" stroke-linecap="round" stroke-linejoin="round"/>
</symbol><symbol viewBox="0 0 20 20" fill="none" id="icon-burger" xmlns="http://www.w3.org/2000/svg">
<path d="M20 2H-3.27826e-07" stroke="currentColor" stroke-width="3"/>
<path d="M20 10H0" stroke="currentColor" stroke-width="3"/>
<path d="M20 18H0" stroke="currentColor" stroke-width="3"/>
</symbol><symbol viewBox="0 0 29 25" fill="none" id="icon-cart" xmlns="http://www.w3.org/2000/svg">
<path d="M11.4453 19.3076C12.9918 19.3012 14.2512 20.5465 14.2607 22.0928C14.2703 23.6352 13.0286 24.8867 11.4717 24.8994C9.91062 24.9119 8.63818 23.656 8.63867 22.1055C8.63941 20.5664 9.89421 19.3142 11.4453 19.3076ZM21.5938 19.3076C23.0472 19.3146 24.2458 20.4178 24.3906 21.8203L24.4053 22.1055C24.405 23.6417 23.1471 24.8935 21.5938 24.8994C20.0408 24.9053 18.7841 23.6635 18.7773 22.1191C18.7707 20.5641 20.0369 19.3003 21.5938 19.3076ZM11.4473 20.9277C10.7928 20.9295 10.2612 21.4649 10.2686 22.1172C10.2761 22.7751 10.808 23.2884 11.4697 23.2793C12.1187 23.2702 12.6291 22.7576 12.6318 22.1104C12.6343 21.4545 12.1045 20.9252 11.4473 20.9277ZM21.5889 20.9287C20.9309 20.9263 20.4049 21.4518 20.4072 22.1104C20.4089 22.7722 20.9338 23.2851 21.5986 23.2793C22.2427 23.2735 22.7659 22.7571 22.7744 22.1172C22.7828 21.4714 22.2411 20.9312 21.5889 20.9287ZM0.203125 0.688477C0.453795 0.156807 1.05256 -0.0524131 1.64844 0.217773C2.45322 0.582337 3.25661 0.950177 4.05469 1.32812C4.8807 1.7191 5.39754 2.36596 5.60156 3.25098C6.58074 7.49564 7.55391 11.7418 8.5293 15.9873C8.59458 16.272 8.68321 16.4805 8.85059 16.6123C9.01774 16.7438 9.24417 16.7832 9.54297 16.7832H23.5244C23.8219 16.7832 24.0471 16.7472 24.2139 16.6172C24.3811 16.4866 24.4693 16.2771 24.5371 15.9873C25.2864 12.788 26.035 9.58781 26.7812 6.3877C26.86 6.0504 26.8288 5.76485 26.6611 5.56348C26.4945 5.36358 26.2153 5.27344 25.8613 5.27344C20.362 5.27344 13.8628 5.27398 8.36426 5.27246C8.2255 5.27246 8.09365 5.27439 7.96973 5.25879L7.84863 5.23633L7.75586 5.20898C7.30684 5.05553 7.03715 4.62179 7.08398 4.11914C7.12609 3.661 7.48128 3.293 7.95996 3.21289L8.05762 3.20117C8.14691 3.19402 8.23427 3.19726 8.33496 3.19727H25.9473C27.5501 3.19812 28.7783 4.26406 28.8936 5.84082C28.9342 6.39941 28.7764 6.9856 28.6426 7.57031C27.9545 10.5694 27.2472 13.5648 26.543 16.5605C26.2077 17.986 25.1054 18.8567 23.6338 18.8574C18.8969 18.8597 14.1607 18.8597 9.42383 18.8574C7.9793 18.8574 6.86546 17.9987 6.54102 16.6045C5.56189 12.3988 4.59426 8.19078 3.63574 3.98047C3.58758 3.76866 3.51564 3.58605 3.39844 3.43359C3.28056 3.28032 3.1219 3.16349 2.91016 3.0752C2.19327 2.77694 1.49729 2.43255 0.788086 2.10156C0.178289 1.81685 -0.0516713 1.22765 0.203125 0.688477ZM18.9814 9.98828C19.5246 9.99249 19.9275 10.3385 20.0166 10.8057C20.1095 11.29 19.8877 11.7562 19.4561 11.9443C19.2873 12.0179 19.0828 12.0501 18.8867 12.0537C18.1276 12.0664 17.3691 12.0588 16.6084 12.0586L16.6025 12.0547H16.5732C15.7527 12.0547 14.935 12.0652 14.1182 12.0508C13.6374 12.0424 13.2566 11.7332 13.1377 11.3008C13.0166 10.8589 13.1922 10.3811 13.585 10.1582C13.7563 10.0612 13.9675 9.99356 14.1553 9.99219C15.764 9.97776 17.3728 9.97613 18.9814 9.98828Z" fill="currentColor" stroke="currentColor" stroke-width="0.2"/>
</symbol><symbol viewBox="0 0 22 22" fill="none" id="icon-circle-check" xmlns="http://www.w3.org/2000/svg">
<path d="M15.7083 8.5L9.59719 14.3333L6.54167 11.4167M21.125 11C21.125 16.5228 16.6478 21 11.125 21C5.60215 21 1.125 16.5228 1.125 11C1.125 5.47715 5.60215 1 11.125 1C16.6478 1 21.125 5.47715 21.125 11Z" stroke="currentColor" stroke-width="1.5" stroke-linecap="round" stroke-linejoin="round"/>
</symbol><symbol viewBox="0 0 20 20" fill="none" id="icon-close" xmlns="http://www.w3.org/2000/svg">
<path d="M19 1L1 19M19 19L1 1" stroke="currentColor" stroke-width="2" stroke-linecap="round" stroke-linejoin="round"/>
</symbol><symbol viewBox="0 0 10 11" fill="none" id="icon-down" xmlns="http://www.w3.org/2000/svg">
<path d="M8.125 4.25L5 7.375L1.875 4.25" stroke="currentColor" stroke-width="1.5" stroke-linecap="round" stroke-linejoin="round"/>
</symbol><symbol viewBox="0 0 16 17" fill="none" id="icon-eye" xmlns="http://www.w3.org/2000/svg">
<g clip-path="url(#ajclip0_4077_3152)">
<path d="M8 3.26562C13 3.26562 16 8.76562 16 8.76562C16 8.76562 13 14.2656 8 14.2656C3 14.2656 0 8.76562 0 8.76562C0 8.76562 3 3.26562 8 3.26562ZM8 4.26562C4.48 4.26562 1.998 7.51662 1.175 8.76562C1.997 10.0136 4.479 13.2656 8 13.2656C11.52 13.2656 14.002 10.0146 14.825 8.76562C14.003 7.51762 11.521 4.26562 8 4.26562ZM8 5.26562C8.92826 5.26562 9.8185 5.63437 10.4749 6.29075C11.1313 6.94713 11.5 7.83737 11.5 8.76562C11.5 9.69388 11.1313 10.5841 10.4749 11.2405C9.8185 11.8969 8.92826 12.2656 8 12.2656C7.07174 12.2656 6.1815 11.8969 5.52513 11.2405C4.86875 10.5841 4.5 9.69388 4.5 8.76562C4.5 7.83737 4.86875 6.94713 5.52513 6.29075C6.1815 5.63437 7.07174 5.26562 8 5.26562ZM8 6.26562C7.3372 6.26642 6.70178 6.53007 6.23311 6.99873C5.76444 7.4674 5.50079 8.10283 5.5 8.76562C5.5 10.1436 6.621 11.2656 8 11.2656C9.379 11.2656 10.5 10.1436 10.5 8.76562C10.5 7.38762 9.379 6.26562 8 6.26562Z" fill="currentColor" stroke="currentColor" stroke-width="0.015625"/>
</g>
<defs>
<clipPath id="ajclip0_4077_3152">
<rect width="16" height="16" fill="currentColor" transform="translate(0 0.765625)"/>
</clipPath>
</defs>
</symbol><symbol viewBox="0 0 24 24" fill="none" id="icon-filters" xmlns="http://www.w3.org/2000/svg">
<path d="M3.94531 4.5H20.0545C20.1998 4.5 20.342 4.54221 20.4637 4.62149C20.5855 4.70077 20.6816 4.81371 20.7404 4.94658C20.7992 5.07946 20.8181 5.22655 20.7948 5.36998C20.7716 5.51341 20.7072 5.64699 20.6094 5.7545L14.4449 12.5354C14.3194 12.6735 14.2499 12.8534 14.2499 13.04V18.3486C14.2499 18.4721 14.2194 18.5936 14.1612 18.7025C14.1029 18.8114 14.0187 18.9042 13.9159 18.9726L10.9159 20.9727C10.803 21.048 10.6717 21.0912 10.5361 21.0977C10.4005 21.1043 10.2657 21.0739 10.146 21.0099C10.0263 20.9458 9.92626 20.8505 9.8565 20.734C9.78674 20.6176 9.7499 20.4844 9.7499 20.3486V13.04C9.7499 12.8534 9.68036 12.6735 9.55485 12.5355L3.39036 5.7545C3.29262 5.64699 3.22822 5.51341 3.20497 5.36998C3.18173 5.22655 3.20065 5.07946 3.25943 4.94658C3.31821 4.81371 3.41432 4.70077 3.53608 4.62149C3.65785 4.54221 3.80001 4.5 3.94531 4.5Z" fill="currentColor"/>
</symbol><symbol viewBox="0 0 24 24" fill="none" id="icon-filters-stroke" xmlns="http://www.w3.org/2000/svg">
<path d="M3.94531 4.5H20.0545C20.1998 4.5 20.342 4.54221 20.4637 4.62149C20.5855 4.70077 20.6816 4.81371 20.7404 4.94658C20.7992 5.07946 20.8181 5.22655 20.7948 5.36998C20.7716 5.51341 20.7072 5.64699 20.6094 5.7545L14.4449 12.5354C14.3194 12.6735 14.2499 12.8534 14.2499 13.04V18.3486C14.2499 18.4721 14.2194 18.5936 14.1612 18.7025C14.1029 18.8114 14.0187 18.9042 13.9159 18.9726L10.9159 20.9727C10.803 21.048 10.6717 21.0912 10.5361 21.0977C10.4005 21.1043 10.2657 21.0739 10.146 21.0099C10.0263 20.9458 9.92626 20.8505 9.8565 20.734C9.78674 20.6176 9.7499 20.4844 9.7499 20.3486V13.04C9.7499 12.8534 9.68036 12.6735 9.55485 12.5355L3.39036 5.7545C3.29262 5.64699 3.22822 5.51341 3.20497 5.36998C3.18173 5.22655 3.20065 5.07946 3.25943 4.94658C3.31821 4.81371 3.41432 4.70077 3.53608 4.62149C3.65785 4.54221 3.80001 4.5 3.94531 4.5Z" stroke="currentColor" stroke-linecap="round" stroke-linejoin="round"/>
</symbol><symbol viewBox="0 0 21 22" fill="none" id="icon-grid" xmlns="http://www.w3.org/2000/svg">
<rect y="0.5" width="8" height="8" rx="1" fill="currentColor"/>
<rect y="13.5" width="8" height="8" rx="1" fill="currentColor"/>
<rect x="13" y="0.5" width="8" height="8" rx="1" fill="currentColor"/>
<rect x="13" y="13.5" width="8" height="8" rx="1" fill="currentColor"/>
</symbol><symbol viewBox="0 0 16 17" fill="none" id="icon-heart" xmlns="http://www.w3.org/2000/svg">
<path d="M1.22268 9.95702C1.05415 9.86207 0.913826 9.72411 0.81603 9.55721C0.718234 9.39031 0.666468 9.20046 0.666016 9.00702V5.00035C0.666016 4.61035 0.875349 4.25035 1.21668 4.05369L3.77202 2.58035C4.11868 2.38035 4.54668 2.38035 4.89335 2.58035L7.99935 4.37035L11.106 2.57969C11.452 2.37969 11.88 2.37969 12.226 2.57969L14.782 4.05302C15.1233 4.24969 15.3327 4.60969 15.3327 4.99969V9.00635C15.3322 9.19979 15.2805 9.38965 15.1827 9.55654C15.0849 9.72344 14.9445 9.8614 14.776 9.95635L8.69868 14.8497C8.49982 15.0094 8.25241 15.0965 7.99735 15.0965C7.74229 15.0965 7.49488 15.0094 7.29602 14.8497L1.22268 9.95635V9.95702Z" stroke="currentColor" stroke-width="0.666667"/>
</symbol><symbol viewBox="0 0 21 18" fill="none" id="icon-list" xmlns="http://www.w3.org/2000/svg">
<rect x="5" y="0.5" width="16" height="3" rx="1" fill="currentColor"/>
<rect y="0.5" width="3" height="3" rx="1" fill="currentColor"/>
<rect x="5" y="7.5" width="16" height="3" rx="1" fill="currentColor"/>
<path d="M0 8.5C0 7.94772 0.447715 7.5 1 7.5H2C2.55228 7.5 3 7.94772 3 8.5V9.5C3 10.0523 2.55228 10.5 2 10.5H1C0.447715 10.5 0 10.0523 0 9.5V8.5Z" fill="currentColor"/>
<rect x="5" y="14.5" width="16" height="3" rx="1" fill="currentColor"/>
<path d="M0 15.5C0 14.9477 0.447715 14.5 1 14.5H2C2.55228 14.5 3 14.9477 3 15.5V16.5C3 17.0523 2.55228 17.5 2 17.5H1C0.447715 17.5 0 17.0523 0 16.5V15.5Z" fill="currentColor"/>
</symbol><symbol viewBox="0 0 21 18" fill="none" id="icon-list-full" xmlns="http://www.w3.org/2000/svg">
<rect y="0.5" width="21" height="3" rx="1" fill="currentColor"/>
<rect y="7.5" width="21" height="3" rx="1" fill="currentColor"/>
<rect y="14.5" width="21" height="3" rx="1" fill="currentColor"/>
</symbol><symbol viewBox="0 0 17 23" fill="none" id="icon-location" xmlns="http://www.w3.org/2000/svg">
<g clip-path="url(#aqclip0_718_20626)">
<g clip-path="url(#aqclip1_718_20626)">
<path d="M8.118 0C3.64 0 0 3.781 0 8.43C0 10.565 1.296 13.581 3.851 17.396C5.719 20.184 7.556 22.342 7.633 22.433L8.118 23L8.602 22.433C9.9502 20.8215 11.2126 19.1402 12.384 17.396C14.94 13.581 16.235 10.564 16.235 8.429C16.235 3.781 12.594 0 8.118 0ZM11.328 16.617C10.3229 18.1096 9.25187 19.5567 8.118 20.954C6.9863 19.5603 5.91724 18.1169 4.914 16.628C2.546 13.094 1.294 10.258 1.294 8.429C1.294 4.523 4.356 1.345 8.118 1.345C11.88 1.345 14.94 4.523 14.94 8.429C14.94 10.257 13.691 13.088 11.328 16.617ZM8.118 3.115C5.476 3.115 3.327 5.347 3.327 8.09C3.327 10.834 5.476 13.065 8.117 13.065C10.759 13.065 12.909 10.834 12.909 8.09C12.909 5.347 10.759 3.115 8.118 3.115ZM8.118 11.721C6.19 11.721 4.622 10.092 4.622 8.091C4.622 6.089 6.19 4.461 8.118 4.461C10.045 4.461 11.614 6.089 11.614 8.091C11.614 10.092 10.045 11.721 8.118 11.721Z" fill="currentColor"/>
</g>
</g>
<defs>
<clipPath id="aqclip0_718_20626">
<rect width="17" height="23" fill="currentColor"/>
</clipPath>
<clipPath id="aqclip1_718_20626">
<rect width="17" height="23" fill="currentColor"/>
</clipPath>
</defs>
</symbol><symbol viewBox="0 0 20 21" fill="none" id="icon-mail" xmlns="http://www.w3.org/2000/svg">
<g clip-path="url(#arclip0_718_20647)">
<path d="M18.0593 3.83203H1.94067C0.875664 3.83203 0 4.69545 0 5.7727V15.2284C0 16.2942 0.866943 17.169 1.94067 17.169H18.0593C19.1337 17.169 20 16.2934 20 15.2284V5.7727C20 4.69445 19.1235 3.83203 18.0593 3.83203ZM17.6813 4.89051L10 9.86974L2.31888 4.89051H17.6813ZM1.05855 5.7727C1.05855 5.63882 1.08884 5.50893 1.14529 5.39136L5.95023 8.50608L1.05855 15.0481V5.7727ZM18.0593 16.1105H1.94067C1.83095 16.1105 1.72623 16.0894 1.62916 16.0526L6.84047 9.08315L9.71213 10.9447C9.88735 11.0582 10.1128 11.0581 10.288 10.9447L13.1596 9.08315L18.3709 16.0526C18.2738 16.0895 18.1691 16.1105 18.0593 16.1105ZM18.9415 15.0481L14.0498 8.50608L18.8547 5.39136C18.9112 5.50893 18.9415 5.63882 18.9415 5.7727V15.0481Z" fill="currentColor"/>
</g>
<defs>
<clipPath id="arclip0_718_20647">
<rect width="20" height="20" fill="currentColor" transform="translate(0 0.5)"/>
</clipPath>
</defs>
</symbol><symbol viewBox="0 0 11 10" fill="none" id="icon-next" xmlns="http://www.w3.org/2000/svg">
<path d="M4.375 1.875L7.5 5L4.375 8.125" stroke="currentColor" stroke-width="1.5" stroke-linecap="round" stroke-linejoin="round"/>
</symbol><symbol viewBox="0 0 19 33" fill="none" id="icon-next-line" xmlns="http://www.w3.org/2000/svg">
<path d="M17.9395 16.4141L1.52382 0.807373" stroke="currentColor" stroke-width="1.5" stroke-linecap="round"/>
<path d="M17.9395 16.582L1.52382 32.1887" stroke="currentColor" stroke-width="1.5" stroke-linecap="round"/>
</symbol><symbol viewBox="0 0 19 19" fill="none" id="icon-paper" xmlns="http://www.w3.org/2000/svg">
<path d="M8.37288 13.389L8.37504 4.57199C8.37252 4.25705 8.49522 3.95402 8.71613 3.72955C8.93704 3.50508 9.23808 3.37755 9.55301 3.37504C9.86795 3.37252 10.171 3.49522 10.3955 3.71613C10.6199 3.93704 10.7474 4.23808 10.75 4.55301L10.7612 15.0493C10.7637 15.3612 10.7047 15.6705 10.5877 15.9596C10.4706 16.2487 10.2978 16.5119 10.079 16.7342C9.86026 16.9565 9.59985 17.1335 9.31267 17.2552C9.02548 17.3768 8.71714 17.4407 8.40526 17.4432C8.09339 17.4457 7.78407 17.3868 7.49498 17.2697C7.20588 17.1527 6.94268 16.9798 6.72038 16.761C6.49809 16.5423 6.32106 16.2819 6.19941 15.9947C6.07776 15.7075 6.01386 15.3992 6.01137 15.0873L6.00011 4.59096C5.99257 3.64616 6.36065 2.73705 7.02339 2.06364C7.68613 1.39022 8.58924 1.00766 9.53404 1.00011C10.4788 0.992566 11.3879 1.36065 12.0614 2.02339C12.7348 2.68613 13.1173 3.58924 13.1249 4.53404L13.1993 13.1405" stroke="currentColor" stroke-linecap="round" stroke-linejoin="round"/>
</symbol><symbol viewBox="0 0 10 11" fill="none" id="icon-prev" xmlns="http://www.w3.org/2000/svg">
<path d="M6.25 8.625L3.125 5.5L6.25 2.375" stroke="currentColor" stroke-width="1.5" stroke-linecap="round" stroke-linejoin="round"/>
</symbol><symbol viewBox="0 0 19 33" fill="none" id="icon-prev-line" xmlns="http://www.w3.org/2000/svg">
<path d="M1.10742 16.4141L17.5231 0.807373" stroke="currentColor" stroke-width="1.5" stroke-linecap="round"/>
<path d="M1.10742 16.582L17.5231 32.1887" stroke="currentColor" stroke-width="1.5" stroke-linecap="round"/>
</symbol><symbol viewBox="0 0 19 20" fill="none" id="icon-search" xmlns="http://www.w3.org/2000/svg">
<g clip-path="url(#axclip0_4001_2661)">
<g clip-path="url(#axclip1_4001_2661)">
<path d="M7.49942 0C6.40724 0.000553102 5.33016 0.255066 4.35325 0.743433C3.37635 1.2318 2.52639 1.94064 1.87052 2.81396C1.21465 3.68727 0.77084 4.70114 0.574152 5.77545C0.377463 6.84977 0.433285 7.95511 0.737206 9.00414C1.04113 10.0532 1.58482 11.0172 2.32534 11.82C3.06585 12.6228 3.9829 13.2424 5.00404 13.6298C6.02517 14.0173 7.12242 14.162 8.20909 14.0525C9.29576 13.943 10.3421 13.5824 11.2654 12.999C11.2854 13.025 11.3084 13.051 11.3324 13.075L17.1394 18.882C17.211 18.9536 17.296 19.0103 17.3895 19.0491C17.483 19.0878 17.5832 19.1077 17.6844 19.1077C17.7856 19.1077 17.8859 19.0878 17.9794 19.0491C18.0729 19.0103 18.1578 18.9536 18.2294 18.882C18.301 18.8104 18.3578 18.7255 18.3965 18.632C18.4352 18.5384 18.4552 18.4382 18.4552 18.337C18.4552 18.2358 18.4352 18.1356 18.3965 18.042C18.3578 17.9485 18.301 17.8636 18.2294 17.792L12.4724 12.034C13.4597 11.0496 14.1328 9.79449 14.4063 8.42742C14.6799 7.06036 14.5417 5.64286 14.0093 4.35437C13.4768 3.06589 12.574 1.96436 11.4152 1.18923C10.2563 0.414096 8.89359 0.000222305 7.49942 0ZM1.99742 7.044C1.99755 6.32134 2.14002 5.60577 2.41669 4.93817C2.69336 4.27056 3.09882 3.66399 3.60992 3.15308C4.12101 2.64218 4.72773 2.23694 5.39543 1.96051C6.06314 1.68408 6.77875 1.54187 7.50142 1.542C8.22408 1.54213 8.93964 1.6846 9.60725 1.96127C10.2749 2.23795 10.8814 2.6434 11.3923 3.1545C11.9032 3.66559 12.3085 4.27231 12.5849 4.94002C12.8613 5.60772 13.0035 6.32334 13.0034 7.046C13.0032 8.50549 12.4231 9.90509 11.3909 10.9369C10.3587 11.9687 8.9589 12.5483 7.49942 12.548C6.03993 12.5477 4.64033 11.9677 3.6085 10.9355C2.57668 9.9033 1.99715 8.50349 1.99742 7.044Z" fill="currentColor"/>
</g>
</g>
<defs>
<clipPath id="axclip0_4001_2661">
<rect width="18" height="20" fill="currentColor" transform="translate(0.455078)"/>
</clipPath>
<clipPath id="axclip1_4001_2661">
<rect width="18" height="20" fill="currentColor" transform="translate(0.455078)"/>
</clipPath>
</defs>
</symbol><symbol viewBox="0 0 19 18" fill="none" id="icon-sections" xmlns="http://www.w3.org/2000/svg">
<path d="M14.125 11.25V16.5M16.75 13.875H11.5M7.75 13.875C7.75 15.739 6.23896 17.25 4.375 17.25C2.51104 17.25 1 15.739 1 13.875C1 12.011 2.51104 10.5 4.375 10.5C6.23896 10.5 7.75 12.011 7.75 13.875ZM17.5 4.125C17.5 5.98896 15.989 7.5 14.125 7.5C12.261 7.5 10.75 5.98896 10.75 4.125C10.75 2.26104 12.261 0.75 14.125 0.75C15.989 0.75 17.5 2.26104 17.5 4.125ZM7.75 4.125C7.75 5.98896 6.23896 7.5 4.375 7.5C2.51104 7.5 1 5.98896 1 4.125C1 2.26104 2.51104 0.75 4.375 0.75C6.23896 0.75 7.75 2.26104 7.75 4.125Z" stroke="currentColor" stroke-width="1.5" stroke-linecap="round" stroke-linejoin="round"/>
</symbol><symbol viewBox="0 0 24 24" fill="none" id="icon-share" xmlns="http://www.w3.org/2000/svg">
<path d="M20.25 9.375L20.2493 3.75075L14.625 3.75M13.4973 10.5027L20.2473 3.75268M17.25 13.5V19.5C17.25 19.6989 17.171 19.8897 17.0303 20.0303C16.8897 20.171 16.6989 20.25 16.5 20.25H4.5C4.30109 20.25 4.11032 20.171 3.96967 20.0303C3.82902 19.8897 3.75 19.6989 3.75 19.5V7.5C3.75 7.30109 3.82902 7.11032 3.96967 6.96967C4.11032 6.82902 4.30109 6.75 4.5 6.75H10.5" stroke="currentColor" stroke-width="1.5" stroke-linecap="round" stroke-linejoin="round"/>
</symbol><symbol viewBox="0 0 40 40" fill="none" id="icon-shield" xmlns="http://www.w3.org/2000/svg">
<path d="M26.8448 14.9827L17.688 23.7232L13.1097 19.3529M6.24219 16.6476V7.49083C6.24219 7.15967 6.37374 6.84207 6.60791 6.60791C6.84207 6.37374 7.15967 6.24219 7.49083 6.24219H32.4637C32.7949 6.24219 33.1125 6.37374 33.3466 6.60791C33.5808 6.84207 33.7123 7.15967 33.7123 7.49083V16.6476C33.7123 29.7607 22.5829 34.1052 20.3606 34.8419C20.1122 34.9274 19.8423 34.9274 19.5939 34.8419C17.3717 34.1052 6.24219 29.7607 6.24219 16.6476Z" stroke="currentColor" stroke-width="1.5" stroke-linecap="round" stroke-linejoin="round"/>
</symbol><symbol viewBox="0 0 24 24" fill="none" id="icon-sort" xmlns="http://www.w3.org/2000/svg">
<path d="M10.5 18L7.5 21M7.5 21L4.5 18M7.5 21V3M13.5 6L16.5 3M16.5 3L19.5 6M16.5 3V21" stroke="currentColor" stroke-width="1.5" stroke-linecap="round" stroke-linejoin="round"/>
</symbol><symbol viewBox="0 0 20 18" fill="none" id="icon-star" xmlns="http://www.w3.org/2000/svg">
<path d="M10 14.4663L16.18 18L14.54 11.34L20 6.85895L12.81 6.28105L10 0L7.19 6.28105L0 6.85895L5.46 11.34L3.82 18L10 14.4663Z" fill="currentColor"/>
</symbol><symbol viewBox="0 0 26 26" fill="none" id="icon-tel" xmlns="http://www.w3.org/2000/svg">
<path d="M3.5 2.43359C4.40557 1.63056 5.72957 1.64013 6.64844 2.4209L7.01172 2.74316C7.36839 3.07161 7.70834 3.41829 8.04688 3.75879C8.74468 4.46053 9.4612 5.15592 10.1211 5.90039H10.1221C10.9423 6.82517 10.9179 8.16152 10.0918 9.08301C9.50889 9.73282 8.88265 10.3465 8.24609 11.0049C8.43483 11.3432 8.61227 11.7005 8.83691 12.0342C10.1803 14.0322 11.8567 15.6993 13.8721 17.0176C13.9992 17.1006 14.1347 17.1728 14.2754 17.2451C14.415 17.3169 14.5608 17.3896 14.7002 17.4727L14.7578 17.498C14.7707 17.5011 14.7784 17.5001 14.7832 17.499C14.7983 17.4956 14.8221 17.4826 14.8672 17.4375L15.7021 16.5977C15.9826 16.3181 16.267 16.0417 16.5615 15.7773C17.101 15.2933 17.6949 15.0432 18.291 15.0449C18.8873 15.0468 19.4732 15.3005 19.9971 15.8008C21.1153 16.8689 22.2022 17.9734 23.2588 19.1025C24.0952 19.9962 24.0805 21.3573 23.2969 22.293C23.0177 22.6261 22.7053 22.9327 22.4062 23.2383C21.9429 23.7121 21.4841 24.2072 20.9883 24.6572C20.4874 25.1116 19.8921 25.3813 19.2412 25.5068L18.959 25.5527C18.948 25.5541 18.9344 25.5576 18.9141 25.5654C18.8977 25.5717 18.8671 25.5853 18.8418 25.5938L18.8262 25.5986H17.7275L17.7188 25.5967C17.4648 25.5524 17.2129 25.5072 16.96 25.4658C15.6277 25.2468 14.3923 24.75 13.1973 24.167C10.4309 22.8175 7.9954 21.0117 5.90625 18.7539C3.8141 16.4926 2.07636 13.9896 0.977539 11.0781C0.584248 10.0353 0.285999 8.96571 0.226562 7.83691C0.158872 6.55548 0.481851 5.40111 1.4209 4.4668C2.10392 3.78706 2.77435 3.07722 3.5 2.43359ZM4.91992 3.5C4.73568 3.54381 4.542 3.66041 4.33789 3.86133C3.80304 4.38768 3.27585 4.94221 2.72852 5.46387C2.11909 6.04449 1.82576 6.73242 1.86523 7.44434L1.81543 7.44727H1.86523C1.86134 8.50717 2.11748 9.39843 2.43359 10.2832C3.28569 12.664 4.63749 14.7526 6.25586 16.6816C8.36426 19.1956 10.8781 21.2016 13.8242 22.6553C15.1655 23.3167 16.5375 23.8542 18.0352 23.9648C18.7506 24.0178 19.4193 23.8987 19.9355 23.4121C20.6481 22.7396 21.3287 22.0302 21.9961 21.3096C22.1763 21.1148 22.2542 20.9068 22.248 20.7031C22.2418 20.4982 22.1496 20.2855 21.9688 20.083C21.7822 19.8737 21.5811 19.6778 21.3779 19.4746H21.377C20.5544 18.6514 19.736 17.8257 18.9082 17.0098C18.6922 16.797 18.4791 16.7006 18.2734 16.6982C18.0671 16.696 17.8488 16.7885 17.6211 16.9922L17.6201 16.9912C17.5502 17.0541 17.4847 17.1218 17.415 17.1914C16.857 17.7482 16.3006 18.3096 15.7383 18.8633C15.5287 19.0694 15.2968 19.198 15.0479 19.2393C14.7988 19.2805 14.5418 19.2329 14.2852 19.1035C13.9445 18.9322 13.6011 18.7568 13.2705 18.5605C11.7651 17.6675 10.4631 16.5273 9.28809 15.2451C8.266 14.1298 7.33273 12.9407 6.70508 11.5352C6.55227 11.1928 6.48807 10.9045 6.54199 10.6299C6.59597 10.3554 6.76426 10.1118 7.03418 9.85059C7.62979 9.27342 8.22384 8.69629 8.79688 8.09961C9.0001 7.88797 9.08968 7.6865 9.0918 7.49219C9.09379 7.29691 9.00783 7.08883 8.81934 6.8623L8.66309 6.6875C7.7155 5.73728 6.76829 4.7858 5.81641 3.83984C5.71403 3.73814 5.59624 3.6469 5.47266 3.58203C5.28389 3.48271 5.10157 3.45688 4.91992 3.5Z" fill="currentColor" stroke="currentColor" stroke-width="0.2"/>
<path d="M13.5977 0.608398C13.7861 0.438453 14.0554 0.362579 14.3477 0.417969C17.0004 0.918188 19.3259 2.06683 21.2939 3.92871C23.2351 5.76435 24.5248 7.98029 25.1797 10.5674L25.3457 11.2754C25.3831 11.4401 25.4032 11.609 25.4033 11.7783V11.7891C25.4032 11.7952 25.403 11.804 25.4023 11.8145C25.4011 11.8353 25.3976 11.8642 25.3916 11.8984C25.3796 11.9663 25.355 12.0582 25.3008 12.1484C25.246 12.2396 25.1618 12.3284 25.0352 12.3887C24.9089 12.4487 24.7469 12.4769 24.541 12.457V12.4561C24.3326 12.4371 24.1528 12.3647 24.0146 12.2314C23.8771 12.0986 23.7887 11.9134 23.7471 11.6855C23.4856 10.2539 22.9922 8.90912 22.2393 7.66504C21.2705 6.06412 20.004 4.75737 18.4414 3.75L18.125 3.55273C16.8942 2.80995 15.5709 2.30954 14.1553 2.05273H14.1543C13.9182 2.00971 13.7264 1.92668 13.5869 1.80371C13.4456 1.67911 13.3633 1.5172 13.3418 1.3291C13.3085 1.03624 13.409 0.778544 13.5977 0.608398Z" fill="currentColor" stroke="currentColor" stroke-width="0.2"/>
<path d="M13.9541 4.94727C14.5454 4.94738 15.324 5.23109 15.9258 5.49707H15.9268C18.4166 6.59918 20.0217 8.48482 20.7266 11.1201C20.7857 11.3408 20.8383 11.5725 20.8555 11.8066C20.8828 12.1729 20.6642 12.497 20.3486 12.6172L20.208 12.6562C19.7912 12.7282 19.4038 12.5098 19.2754 12.0967C19.2001 11.8545 19.14 11.6044 19.0771 11.3643C19.0137 11.1218 18.9465 10.8859 18.8525 10.6631C17.9365 8.48917 16.33 7.12605 14.0215 6.60156C13.9799 6.5921 13.938 6.58398 13.8936 6.5752C13.8498 6.56653 13.8036 6.55743 13.7578 6.5459H13.7568C13.3304 6.43684 13.0835 6.06585 13.1406 5.62793C13.1427 5.61238 13.1453 5.59712 13.1475 5.58203C13.2062 5.17976 13.5738 4.94727 13.9541 4.94727Z" fill="currentColor" stroke="currentColor" stroke-width="0.2"/>
</symbol><symbol viewBox="0 0 31 31" fill="none" id="icon-tg" xmlns="http://www.w3.org/2000/svg">
<path d="M0.841797 15.4992C0.841797 23.5049 7.35431 30.0179 15.3605 30.0179C23.3667 30.0179 29.8792 23.5049 29.8792 15.4992C29.8792 7.49354 23.3667 0.980469 15.3605 0.980469C7.35431 0.980469 0.841797 7.49354 0.841797 15.4992ZM2.53555 15.4992C2.53555 8.42811 8.28944 2.67422 15.3605 2.67422C22.4316 2.67422 28.1855 8.42811 28.1855 15.4992C28.1855 22.5703 22.4316 28.3242 15.3605 28.3242C8.28944 28.3242 2.53555 22.5703 2.53555 15.4992Z" fill="currentColor" stroke="currentColor" stroke-width="0.6"/>
<path d="M8.49412 14.7037L20.5462 10.0569C21.1056 9.85478 21.5941 10.1933 21.4128 11.0392L21.4139 11.0381L19.3618 20.7058C19.2097 21.3913 18.8024 21.5579 18.2326 21.235L15.1076 18.9319L13.6003 20.384C13.4337 20.5506 13.293 20.6912 12.9701 20.6912L13.192 17.511L18.9837 12.2787C19.2358 12.0569 18.9274 11.9319 18.5951 12.1527L11.4378 16.659L8.35245 15.6965C7.68266 15.484 7.66807 15.0267 8.49412 14.7037Z" fill="currentColor"/>
</symbol><symbol viewBox="0 0 16 22" fill="none" id="icon-timer" xmlns="http://www.w3.org/2000/svg">
<path d="M7.92344 11L1.84344 15.75C1.74408 15.8276 1.66344 15.9283 1.6079 16.044C1.55235 16.1597 1.52344 16.2873 1.52344 16.4167V20.1667C1.52344 20.3877 1.60772 20.5996 1.75775 20.7559C1.90778 20.9122 2.11126 21 2.32344 21H13.5234C13.7356 21 13.9391 20.9122 14.0891 20.7559C14.2392 20.5996 14.3234 20.3877 14.3234 20.1667V16.454C14.3234 16.3252 14.2948 16.1981 14.2397 16.0828C14.1845 15.9674 14.1045 15.867 14.0058 15.7893L7.92344 11ZM7.92344 11V15.1662M7.92344 11L1.84344 6.25C1.74408 6.17238 1.66344 6.07172 1.6079 5.95601C1.55235 5.8403 1.52344 5.7127 1.52344 5.58333V1.83333C1.52344 1.61232 1.60772 1.40036 1.75775 1.24408C1.90778 1.0878 2.11126 1 2.32344 1H13.5234C13.7356 1 13.9391 1.0878 14.0891 1.24408C14.2392 1.40036 14.3234 1.61232 14.3234 1.83333V5.54596C14.3234 5.6748 14.2948 5.80189 14.2397 5.91723C14.1845 6.03258 14.1045 6.13305 14.0058 6.21074L7.92344 11ZM2.5895 6.83286H13.2157" stroke="currentColor" stroke-width="2" stroke-linecap="round" stroke-linejoin="round"/>
</symbol><symbol viewBox="0 0 24 24" fill="none" id="icon-truck" xmlns="http://www.w3.org/2000/svg">
<path d="M1.5 12.75C1.08579 12.75 0.75 13.0858 0.75 13.5C0.75 13.9142 1.08579 14.25 1.5 14.25V13.5V12.75ZM16.5 14.25C16.9142 14.25 17.25 13.9142 17.25 13.5C17.25 13.0858 16.9142 12.75 16.5 12.75V13.5V14.25ZM15.75 16.0514C15.75 16.4656 16.0858 16.8014 16.5 16.8014C16.9142 16.8014 17.25 16.4656 17.25 16.0514H16.5H15.75ZM22.5 11.25H23.25C23.25 11.1546 23.2318 11.06 23.1964 10.9715L22.5 11.25ZM16.5 7.5V6.75C16.0858 6.75 15.75 7.08579 15.75 7.5H16.5ZM20.4922 7.5L20.4922 6.75H20.4922V7.5ZM21.1886 7.97146L21.8849 7.69291L21.8849 7.69291L21.1886 7.97146ZM1.5 17.25H0.75H1.5ZM2.25 6V6.75V6ZM16.5 6H17.25C17.25 5.58579 16.9142 5.25 16.5 5.25V6ZM15.375 18V17.25H8.625V18V18.75H15.375V18ZM19.875 18H19.125C19.125 18.8284 18.4534 19.5 17.625 19.5V20.25V21C19.2819 21 20.625 19.6569 20.625 18H19.875ZM17.625 20.25V19.5C16.7966 19.5 16.125 18.8284 16.125 18H15.375H14.625C14.625 19.6569 15.9681 21 17.625 21V20.25ZM15.375 18H16.125C16.125 17.1716 16.7966 16.5 17.625 16.5V15.75V15C15.9681 15 14.625 16.3431 14.625 18H15.375ZM17.625 15.75V16.5C18.4534 16.5 19.125 17.1716 19.125 18H19.875H20.625C20.625 16.3431 19.2819 15 17.625 15V15.75ZM8.625 18H7.875C7.875 18.8284 7.20343 19.5 6.375 19.5V20.25V21C8.03185 21 9.375 19.6569 9.375 18H8.625ZM6.375 20.25V19.5C5.54657 19.5 4.875 18.8284 4.875 18H4.125H3.375C3.375 19.6569 4.71815 21 6.375 21V20.25ZM4.125 18H4.875C4.875 17.1716 5.54657 16.5 6.375 16.5V15.75V15C4.71815 15 3.375 16.3431 3.375 18H4.125ZM6.375 15.75V16.5C7.20343 16.5 7.875 17.1716 7.875 18H8.625H9.375C9.375 16.3431 8.03185 15 6.375 15V15.75ZM1.5 13.5V14.25H16.5V13.5V12.75H1.5V13.5ZM16.5 16.0514H17.25V11.25H16.5H15.75V16.0514H16.5ZM16.5 11.25V12H22.5V11.25V10.5H16.5V11.25ZM22.5 11.25H21.75V17.25H22.5H23.25V11.25H22.5ZM22.5 17.25H21.75L21.75 17.25L22.2803 17.7803L22.8107 18.3107C23.092 18.0294 23.25 17.6478 23.25 17.25H22.5ZM22.2803 17.7803L21.75 17.25L21.75 17.25V18V18.75C22.1478 18.75 22.5294 18.592 22.8107 18.3107L22.2803 17.7803ZM21.75 18V17.25H19.875V18V18.75H21.75V18ZM16.5 11.25H17.25V7.5H16.5H15.75V11.25H16.5ZM16.5 7.5V8.25H20.4922V7.5V6.75H16.5V7.5ZM20.4922 7.5L20.4922 8.25L20.4922 8.25L20.9127 7.62895L21.3332 7.0079C21.0849 6.83983 20.792 6.75 20.4922 6.75L20.4922 7.5ZM20.9127 7.62895L20.4922 8.25L20.4922 8.25L21.1886 7.97146L21.8849 7.69291C21.7736 7.41457 21.5814 7.17597 21.3332 7.0079L20.9127 7.62895ZM21.1886 7.97146L20.4922 8.25L21.8036 11.5285L22.5 11.25L23.1964 10.9715L21.8849 7.69291L21.1886 7.97146ZM4.125 18V17.25H2.25V18V18.75H4.125V18ZM2.25 18V17.25L2.25 17.25L1.71967 17.7803L1.18934 18.3107C1.47065 18.592 1.85218 18.75 2.25 18.75V18ZM1.71967 17.7803L2.25 17.25L2.25 17.25H1.5H0.75C0.75 17.6478 0.908035 18.0294 1.18934 18.3107L1.71967 17.7803ZM1.5 17.25H2.25V6.75H1.5H0.75V17.25H1.5ZM1.5 6.75H2.25L2.25 6.75L1.71967 6.21967L1.18934 5.68934C0.908035 5.97064 0.75 6.35218 0.75 6.75H1.5ZM1.71967 6.21967L2.25 6.75L2.25 6.75L2.25 6L2.25 5.25C1.85217 5.25 1.47064 5.40804 1.18934 5.68934L1.71967 6.21967ZM2.25 6V6.75H16.5V6V5.25H2.25V6ZM16.5 6H15.75V16.0514H16.5H17.25V6H16.5Z" fill="currentColor"/>
</symbol><symbol viewBox="0 0 29 29" fill="none" id="icon-wh" xmlns="http://www.w3.org/2000/svg">
<path d="M0 29L2.03845 21.553C0.780581 19.3732 0.119625 16.9022 0.120833 14.3683C0.124458 6.44646 6.5709 0 14.4915 0C18.3352 0.00120833 21.9433 1.49833 24.6572 4.21467C27.3699 6.931 28.8634 10.5415 28.8622 14.3816C28.8586 22.3046 22.4121 28.7511 14.4915 28.7511C12.0869 28.7499 9.71739 28.1469 7.61852 27.0014L0 29ZM7.97136 24.3999C9.99652 25.6022 11.9298 26.3223 14.4867 26.3235C21.0697 26.3235 26.4322 20.9658 26.4359 14.3792C26.4383 7.77925 21.1011 2.42875 14.4963 2.42633C7.90852 2.42633 2.54958 7.78408 2.54716 14.3695C2.54595 17.058 3.33378 19.0711 4.65691 21.1772L3.44978 25.5853L7.97136 24.3999ZM21.7306 17.7975C21.6412 17.6477 21.402 17.5583 21.0419 17.3783C20.683 17.1982 18.9176 16.3294 18.5877 16.2098C18.2591 16.0902 18.0198 16.0298 17.7794 16.3898C17.5401 16.7487 16.8514 17.5583 16.6423 17.7975C16.4333 18.0368 16.223 18.067 15.8642 17.887C15.5053 17.7069 14.3477 17.3287 12.9763 16.1047C11.9093 15.1525 11.1879 13.9768 10.9789 13.6167C10.7699 13.2578 10.9571 13.0633 11.136 12.8845C11.2979 12.7238 11.4948 12.4652 11.6749 12.2549C11.8573 12.0471 11.9166 11.8973 12.0374 11.6568C12.157 11.4175 12.0978 11.2073 12.0072 11.0273C11.9166 10.8484 11.1988 9.08063 10.9004 8.36167C10.6079 7.66204 10.3119 7.75629 10.092 7.74542L9.40323 7.73333C9.16398 7.73333 8.7749 7.82275 8.44623 8.18283C8.11757 8.54292 7.18957 9.4105 7.18957 11.1783C7.18957 12.9461 8.47644 14.6535 8.65527 14.8927C8.83531 15.132 11.1867 18.7594 14.7888 20.3145C15.6455 20.6843 16.3149 20.9054 16.8357 21.0709C17.696 21.344 18.479 21.3053 19.0977 21.2135C19.7876 21.1108 21.2219 20.3447 21.5216 19.5061C21.8212 18.6663 21.8212 17.9474 21.7306 17.7975Z" fill="currentColor"/>
</symbol></svg>